0
SECTION
2
HEADER
9
$INSUNITS
70
4
9
$ACADVER
1
AC1014
9
$HANDSEED
5
FFFF
0
ENDSEC
0
SECTION
2
TABLES
0
TABLE
2
VPORT
5
8
100
AcDbSymbolTable
0
ENDTAB
0
TABLE
2
LTYPE
5
5
100
AcDbSymbolTable
0
LTYPE
5
14
100
AcDbSymbolTableRecord
100
AcDbLinetypeTableRecord
2
BYBLOCK
70
0
0
LTYPE
5
15
100
AcDbSymbolTableRecord
100
AcDbLinetypeTableRecord
2
BYLAYER
70
0
0
ENDTAB
0
TABLE
2
LAYER
5
2
100
AcDbSymbolTable
70
2
0
LAYER
5
50
100
AcDbSymbolTableRecord
100
AcDbLayerTableRecord
2
0
70
0
6
CONTINUOUS
0
ENDTAB
0
TABLE
2
STYLE
5
3
100
AcDbSymbolTable
70
1
0
STYLE
5
11
100
AcDbSymbolTableRecord
100
AcDbTextStyleTableRecord
2
STANDARD
70
0
0
ENDTAB
0
TABLE
2
VIEW
5
6
100
AcDbSymbolTable
70
0
0
ENDTAB
0
TABLE
2
UCS
5
7
100
AcDbSymbolTable
70
0
0
ENDTAB
0
TABLE
2
APPID
5
9
100
AcDbSymbolTable
70
2
0
APPID
5
12
100
AcDbSymbolTableRecord
100
AcDbRegAppTableRecord
2
ACAD
70
0
0
ENDTAB
0
TABLE
2
DIMSTYLE
5
A
100
AcDbSymbolTable
70
1
0
ENDTAB
0
TABLE
2
BLOCK_RECORD
5
1
100
AcDbSymbolTable
70
1
0
BLOCK_RECORD
5
1F
100
AcDbSymbolTableRecord
100
AcDbBlockTableRecord
2
*MODEL_SPACE
0
BLOCK_RECORD
5
1B
100
AcDbSymbolTableRecord
100
AcDbBlockTableRecord
2
*PAPER_SPACE
0
ENDTAB
0
ENDSEC
0
SECTION
2
BLOCKS
0
BLOCK
5
20
100
AcDbEntity
100
AcDbBlockBegin
2
*MODEL_SPACE
0
ENDBLK
5
21
100
AcDbEntity
100
AcDbBlockEnd
0
BLOCK
5
1C
100
AcDbEntity
100
AcDbBlockBegin
2
*PAPER_SPACE
0
ENDBLK
5
1D
100
AcDbEntity
100
AcDbBlockEnd
0
ENDSEC
0
SECTION
2
ENTITIES
0
LWPOLYLINE
5
100
100
AcDbEntity
8
0
100
AcDbPolyline
90
54
70
1
43
0.0
10
573.61925251378636
20
421.09624692368345
10
573.61925251378636
20
438.14624692368341
42
-0.41421356237316442
10
575.11925251378648
20
439.64624692368346
10
610.80925251378642
20
439.64624692368346
42
0.41421356237309503
10
611.30925251378642
20
440.14624692368324
10
611.30925251378642
20
440.28624692368345
42
-0.41421356237309503
10
612.80925251378608
20
441.78624692368345
10
629.86925251378636
20
441.78624692368345
42
-0.35565177665020337
10
631.3381508294076
20
440.59011817662707
42
0.29769527893471215
10
631.72382775587243
20
440.20233479390811
10
708.16820580694775
20
423.95358063636809
42
-0.4142135623731929
10
709.32355967182173
20
422.17449169904086
10
705.77658622647095
20
405.487293630522
42
-0.41421356237311929
10
703.99749728914367
20
404.33193976564803
10
696.63596688868563
20
405.8966813561986
42
0.41421356237300494
10
696.04293724290983
20
405.51156340124061
10
692.49955567470897
20
388.84126378611091
42
0.41421356237279272
10
692.88467362966696
20
388.24823414033517
10
695.5882058069476
20
387.67358063636806
42
-0.41421356237313572
10
696.74355967182169
20
385.89449169904083
10
693.19922784736718
20
369.21972147972895
42
0.41421356237282481
10
693.58434580232529
20
368.6266918339532
10
700.93820580694796
20
367.06358063636821
42
-0.41421356237306789
10
702.09355967182194
20
365.28449169904059
10
698.54828485328142
20
348.60528504135908
42
0.41421356237279272
10
698.93340280823952
20
348.01225539558334
10
706.07820580694795
20
346.49358063636834
42
-0.41421356237309503
10
707.23355967182204
20
344.71449169904099
10
703.68658622647104
20
328.02729363052208
42
-0.41421356237305723
10
701.90749728914375
20
326.87193976564799
10
642.92102298449618
20
339.40990192888052
42
0.34246959556196921
10
642.36913720553116
20
339.14299647599921
42
-0.34246959556186041
10
640.71347986863645
20
338.34228011735519
10
614.71431664113186
20
343.86857285929119
42
-0.41421356237302431
10
613.558962776258
20
345.64766179661859
10
616.99911192827062
20
361.83229107827452
42
0.47697553269806647
10
616.51003812790361
20
362.4362469236832
10
591.3192525137863
20
362.43624692368337
42
0.41421356237297013
10
590.8192525137863
20
361.93624692368331
10
590.8192525137863
20
344.88624692368347
42
-0.41421356237312279
10
589.3192525137863
20
343.38624692368342
10
562.71925251378639
20
343.38624692368336
42
-0.41421356237309503
10
561.21925251378639
20
344.88624692368347
10
561.21925251378639
20
380.99624692368337
42
-0.41421356237310897
10
562.71925251378639
20
382.49624692368337
10
564.88925251378635
20
382.49624692368337
42
0.41421356237326151
10
565.38925251378623
20
382.99624692368332
10
565.38925251378623
20
400.04624692368338
42
-0.41421356237312279
10
566.88925251378635
20
401.54624692368344
10
568.9592525137864
20
401.54624692368344
42
0.4142135623730534
10
569.4592525137864
20
402.04624692368338
10
569.45925251378605
20
419.0962469236834
42
-0.41421356237301177
10
570.95925251378605
20
420.59624692368345
10
573.11925251378636
20
420.59624692368345
42
0.4142135623731783
0
LWPOLYLINE
5
101
100
AcDbEntity
8
0
100
AcDbPolyline
90
55
70
1
43
0.0
10
708.95494535575028
20
403.53449169904081
42
-0.41421356237312212
10
710.11029922062471
20
405.31358063636816
10
717.46619290846274
20
406.87712410666512
42
0.41421356237300494
10
717.85131086342085
20
407.47015375244086
10
714.30494535575065
20
424.15449169904088
42
-0.41421356237310575
10
715.46029922062485
20
425.93358063636805
10
789.39932082757764
20
441.64980484238725
42
-0.042377065209927033
10
789.65115548857614
20
441.68138164447868
10
792.23924810554422
20
441.78504512687567
42
-0.010008486344933286
10
792.2992809807721
20
441.78624692368345
10
810.8292525137864
20
441.78624692368317
42
-0.41421356237309503
10
812.32925251378617
20
440.28624692368339
10
812.32925251378617
20
440.14624692368341
42
0.41421356237309503
10
812.82925251378617
20
439.64624692368346
10
867.55925251378642
20
439.64624692368324
42
-0.41421356237313667
10
869.0592525137863
20
438.14624692368341
10
869.0592525137863
20
421.09624692368345
42
0.4142135623730534
10
869.5592525137863
20
420.59624692368351
10
871.72925251378626
20
420.59624692368345
42
-0.41421356237309503
10
873.22925251378638
20
419.0962469236834
10
873.22925251378649
20
402.04624692368338
42
0.41421356237309503
10
873.72925251378649
20
401.54624692368344
10
875.9892525137866
20
401.54624692368361
42
-0.4142135623731783
10
877.48925251378637
20
400.04624692368338
10
877.48925251378637
20
382.99624692368332
42
0.41421356237301177
10
877.98925251378637
20
382.4962469236832
10
880.1680025137864
20
382.4962469236832
42
-0.4142135623730257
10
881.66800251378629
20
380.99624692368337
10
881.66800251378618
20
363.93624692368348
42
-0.41421356237299795
10
880.1680025137864
20
362.43624692368326
10
878.49485251378633
20
362.43624692368337
42
0.41421356237292856
10
877.99485251378633
20
361.93624692368331
10
877.99485251378644
20
344.83824692368341
42
-0.41421356237309503
10
876.49485251378633
20
343.33824692368341
10
849.89485251378653
20
343.33824692368324
42
-0.41421356237309503
10
848.3948525137863
20
344.83824692368341
10
848.3948525137863
20
361.93624692368337
42
0.41421356237309503
10
847.89485251378642
20
362.43624692368337
10
797.79846689966928
20
362.43624692368337
42
0.47697553269825715
10
797.30939309930238
20
361.83229107827452
10
800.74954225131501
20
345.64766179661882
42
-0.41421356237303786
10
799.59418838644069
20
343.86857285929125
10
773.59501991436196
20
338.34227900258657
42
-0.34142032951708079
10
771.94187657879456
20
339.13795053204512
42
0.34142032951719525
10
771.39082880027206
20
339.40317437519786
10
721.50361878108686
20
328.79932054220939
42
-0.41421356237292645
10
719.72452984375934
20
329.95467440708353
10
712.21533415476972
20
365.28266254346897
42
-0.41421356237309503
10
713.37068801964381
20
367.06175148079632
10
720.73411575155455
20
368.62689636159712
42
0.41421356237294082
10
721.11923370651255
20
369.21992600737292
10
717.57770591324834
20
385.88150429711879
42
0.41421356237300494
10
716.98467626747242
20
386.26662225207679
10
714.28100773842903
20
385.69193976564804
42
-0.41421356237312212
10
712.50191880110174
20
386.84729363052213
0
LINE
5
102
100
AcDbEntity
8
0
100
AcDbLine
10
642.49256880596374
20
339.49763398222922
30
0
11
642.49324779049221
21
339.50082835328573
31
0
0
LINE
5
103
100
AcDbEntity
8
0
100
AcDbLine
10
631.36925251378648
20
440.2777020882192
30
0
11
631.36925251378648
21
440.28624692368345
31
0
0
LINE
5
104
100
AcDbEntity
8
0
100
AcDbLine
10
886.16925251378575
20
52.536246923682384
30
0
11
886.16925251378575
21
174.78624692368248
31
0
0
ARC
5
105
100
AcDbEntity
8
0
100
AcDbCircle
10
882.16925251378586
20
174.78624692368246
30
0
40
4.0000000000000568
100
AcDbArc
50
0
51
90
0
LINE
5
106
100
AcDbEntity
8
0
100
AcDbLine
10
541.3692525137858
20
48.536246923682391
30
0
11
882.16925251378586
21
48.536246923682413
31
0
0
ARC
5
107
100
AcDbEntity
8
0
100
AcDbCircle
10
882.16925251378586
20
52.536246923682306
30
0
40
3.9999999999998881
100
AcDbArc
50
-90
51
0
0
LINE
5
108
100
AcDbEntity
8
0
100
AcDbLine
10
537.3692525137858
20
174.78624692368248
30
0
11
537.3692525137858
21
52.536246923682377
31
0
0
ARC
5
109
100
AcDbEntity
8
0
100
AcDbCircle
10
541.3692525137858
20
174.7862469236824
30
0
40
4.0000000000000924
100
AcDbArc
50
90
51
180
0
ARC
5
110
100
AcDbEntity
8
0
100
AcDbCircle
10
541.36925251378568
20
52.536246923682349
30
0
40
3.9999999999999147
100
AcDbArc
50
180
51
270.00000000000159
0
LWPOLYLINE
5
111
100
AcDbEntity
8
0
100
AcDbPolyline
90
24
70
1
43
0.0
10
881.13800251378564
20
169.25624692368356
42
0.41421356237306034
10
879.63800251378586
20
170.75624692368348
10
718.04445251378513
20
170.75624692368351
42
-0.4142135623732095
10
717.0444525137849
20
171.75624692368356
10
717.04445251378525
20
175.92814610245395
42
0.41421296051067263
10
716.04445456867279
20
176.9281461024519
10
715.96925251378582
20
176.92814625698364
10
707.5692525137855
20
176.92814625698364
10
707.49405456867282
20
176.92814641150699
42
0.41421416423580482
10
706.49405251378528
20
175.92814641150906
10
706.49405251378539
20
171.75624692368356
42
-0.41421356237330315
10
705.49405251378528
20
170.75624692368353
10
544.39925251378577
20
170.75624692368351
42
0.41421356237297713
10
542.89925251378565
20
169.25624692368356
10
542.89925251378565
20
74.916246923683588
42
0.41421356237311241
10
544.39925251378577
20
73.41624692368363
10
616.93408276979812
20
73.416246923683602
42
-0.052407779283166075
10
617.14199446061582
20
73.394394524417422
10
711.56134082296671
20
53.324942906505569
42
0.10510423526559073
10
711.97716420460222
20
53.324942906505569
10
806.39651056695334
20
73.394394524417393
42
-0.052407779283222072
10
806.60442225777103
20
73.416246923683602
10
879.63800251378586
20
73.416246923683588
42
0.41421356237303608
10
881.13800251378564
20
74.91624692368363
0
CIRCLE
5
112
100
AcDbEntity
8
0
100
AcDbCircle
10
858.11800251378645
20
15.486246923683762
30
0
40
1.7499999999998863
0
CIRCLE
5
113
100
AcDbEntity
8
0
100
AcDbCircle
10
565.91925251378643
20
15.48624692368354
30
0
40
1.7500000000001137
0
ARC
5
114
100
AcDbEntity
8
0
100
AcDbCircle
10
541.3692525137858
20
310.03624692368237
30
0
40
4.0000000000000213
100
AcDbArc
50
90
51
180
0
LINE
5
115
100
AcDbEntity
8
0
100
AcDbLine
10
537.3692525137858
20
310.03624692368243
30
0
11
537.36925251378568
21
187.7862469236824
31
0
0
ARC
5
116
100
AcDbEntity
8
0
100
AcDbCircle
10
541.36925251378557
20
187.7862469236824
30
0
40
3.9999999999998437
100
AcDbArc
50
180
51
270.00000000000324
0
LINE
5
117
100
AcDbEntity
8
0
100
AcDbLine
10
541.3692525137858
20
183.78624692368254
30
0
11
882.16925251378586
21
183.78624692368237
31
0
0
LINE
5
118
100
AcDbEntity
8
0
100
AcDbLine
10
886.16925251378575
20
187.7862469236824
30
0
11
886.16925251378575
21
310.03624692368243
31
0
0
ARC
5
119
100
AcDbEntity
8
0
100
AcDbCircle
10
882.16925251378586
20
187.78624692368228
30
0
40
3.9999999999999147
100
AcDbArc
50
-90
51
0
0
ARC
5
120
100
AcDbEntity
8
0
100
AcDbCircle
10
882.16925251378586
20
310.03624692368248
30
0
40
3.9999999999999147
100
AcDbArc
50
0
51
90
0
LWPOLYLINE
5
121
100
AcDbEntity
8
0
100
AcDbPolyline
90
8
70
1
43
0.0
10
537.3692525137858
20
445.28624692368254
42
-0.41421356237314705
10
541.3692525137858
20
449.2862469236826
10
882.16925251378598
20
449.28624692368265
42
-0.41421356237307944
10
886.16925251378575
20
445.28624692368254
10
886.16925251378575
20
323.03624692368254
42
-0.41421356237308982
10
882.16925251378586
20
319.03624692368237
10
541.3692525137858
20
319.03624692368248
42
-0.41421356237309503
10
537.36925251378591
20
323.03624692368237
0
LWPOLYLINE
5
122
100
AcDbEntity
8
0
100
AcDbPolyline
90
8
70
1
43
0.0
10
882.16925251378586
20
-86.713753076317701
42
0.41421356237308593
10
886.16925251378575
20
-82.71375307631763
10
886.16925251378575
20
39.536246923682384
42
0.41421356237308915
10
882.16925251378586
20
43.536246923682469
10
541.3692525137858
20
43.536246923682391
42
0.41421356237308105
10
537.3692525137858
20
39.536246923682384
10
537.3692525137858
20
-82.71375307631763
42
0.41421356237308593
10
541.3692525137858
20
-86.713753076317559
0
LWPOLYLINE
5
123
100
AcDbEntity
8
0
100
AcDbPolyline
90
24
70
1
43
0.0
10
566.49925251378613
20
404.17624692368344
42
-0.41421356237309503
10
564.99925251378636
20
402.67624692368344
10
562.92925251378631
20
402.67624692368344
42
0.4142135623730534
10
562.4292525137862
20
402.17624692368349
10
562.42925251378642
20
385.12624692368348
42
-0.41421356237301177
10
560.9292525137862
20
383.62624692368337
10
543.86925251378648
20
383.62624692368342
42
-0.4142135623730534
10
542.36925251378636
20
385.12624692368348
10
542.36925251378636
20
402.18624692368348
42
-0.41421356237308116
10
543.86925251378648
20
403.68624692368343
10
545.93925251378619
20
403.68624692368343
42
0.4142135623731783
10
546.43925251378619
20
404.18624692368337
10
546.43925251378607
20
421.23624692368338
42
-0.41421356237316442
10
547.9392525137863
20
422.73624692368372
10
550.09925251378627
20
422.7362469236835
42
0.41421356237321988
10
550.59925251378627
20
423.2362469236835
10
550.5992525137865
20
440.28624692368345
42
-0.41421356237313667
10
552.09925251378627
20
441.78624692368345
10
569.15925251378644
20
441.78624692368345
42
-0.41421356237306733
10
570.65925251378644
20
440.28624692368345
10
570.65925251378656
20
423.2262469236835
42
-0.41421356237301177
10
569.15925251378644
20
421.72624692368345
10
566.99925251378613
20
421.72624692368345
42
0.4142135623731783
10
566.49925251378613
20
421.22624692368345
0
CIRCLE
5
124
100
AcDbEntity
8
0
100
AcDbCircle
10
545.11925251378443
20
219.88624692368359
30
0
40
2.0000000000000044
0
CIRCLE
5
125
100
AcDbEntity
8
0
100
AcDbCircle
10
545.11925251378443
20
215.38624692368359
30
0
40
2.000000000000016
0
CIRCLE
5
126
100
AcDbEntity
8
0
100
AcDbCircle
10
545.11925251378443
20
210.88624692368359
30
0
40
2.000000000000016
0
LINE
5
127
100
AcDbEntity
8
0
100
AcDbLine
10
882.16925251378586
20
314.03624692368237
30
0
11
717.1192525137858
21
314.03624692368243
31
0
0
LINE
5
128
100
AcDbEntity
8
0
100
AcDbLine
10
706.41925251378575
20
314.03624692368243
30
0
11
541.3692525137858
21
314.03624692368237
31
0
0
ARC
5
129
100
AcDbEntity
8
0
100
AcDbCircle
10
717.11925251378591
20
313.53624692368237
30
0
40
0.50000000000007816
100
AcDbArc
50
90.000000000013031
51
180
0
ARC
5
130
100
AcDbEntity
8
0
100
AcDbCircle
10
706.41925251378564
20
313.53624692368237
30
0
40
0.50000000000011369
100
AcDbArc
50
0
51
89.999999999986969
0
ARC
5
131
100
AcDbEntity
8
0
100
AcDbCircle
10
707.41925251378586
20
303.2704840782572
30
0
40
0.50000000000011369
100
AcDbArc
50
180
51
269.99999999998698
0
ARC
5
132
100
AcDbEntity
8
0
100
AcDbCircle
10
716.11925251378568
20
303.2704840782572
30
0
40
0.50000000000007816
100
AcDbArc
50
270.00000000001302
51
360
0
LINE
5
133
100
AcDbEntity
8
0
100
AcDbLine
10
706.91925251378575
20
313.53624692368243
30
0
11
706.91925251378575
21
303.27048407825714
31
0
0
LINE
5
134
100
AcDbEntity
8
0
100
AcDbLine
10
707.41925251378575
20
302.77048407825708
30
0
11
716.1192525137858
21
302.77048407825714
31
0
0
LINE
5
135
100
AcDbEntity
8
0
100
AcDbLine
10
716.6192525137858
20
303.27048407825714
30
0
11
716.6192525137858
21
313.53624692368243
31
0
0
LINE
5
136
100
AcDbEntity
8
0
100
AcDbLine
10
717.11925251378557
20
178.78624692368243
30
0
11
882.16925251378586
21
178.78624692368248
31
0
0
LINE
5
137
100
AcDbEntity
8
0
100
AcDbLine
10
706.41925251378564
20
178.78624692368243
30
0
11
541.3692525137858
21
178.78624692368248
31
0
0
ARC
5
138
100
AcDbEntity
8
0
100
AcDbCircle
10
706.41925251378564
20
178.28624692368243
30
0
40
0.49999999999997158
100
AcDbArc
50
0
51
90
0
ARC
5
139
100
AcDbEntity
8
0
100
AcDbCircle
10
717.11925251378557
20
178.28624692368243
30
0
40
0.49999999999997158
100
AcDbArc
50
90
51
180
0
LINE
5
140
100
AcDbEntity
8
0
100
AcDbLine
10
706.91925251378564
20
178.2862469236824
30
0
11
716.61925251378557
21
178.2862469236824
31
0
0
CIRCLE
5
141
100
AcDbEntity
8
0
100
AcDbCircle
10
767.16925251378586
20
444.28624692368254
30
0
40
1.7499999999999343
0
CIRCLE
5
142
100
AcDbEntity
8
0
100
AcDbCircle
10
656.3692525137858
20
444.28624692368254
30
0
40
1.7499999999999716
0
CIRCLE
5
143
100
AcDbEntity
8
0
100
AcDbCircle
10
656.3692525137858
20
324.03624692368254
30
0
40
1.7499999999999716
0
CIRCLE
5
144
100
AcDbEntity
8
0
100
AcDbCircle
10
767.16925251378586
20
324.03624692368254
30
0
40
1.7500000000000637
0
CIRCLE
5
145
100
AcDbEntity
8
0
100
AcDbCircle
10
881.16925251378575
20
324.03624692368237
30
0
40
1.7500000000000404
0
CIRCLE
5
146
100
AcDbEntity
8
0
100
AcDbCircle
10
542.36925251378591
20
324.03624692368254
30
0
40
1.7499999999999813
0
CIRCLE
5
147
100
AcDbEntity
8
0
100
AcDbCircle
10
542.3692525137858
20
444.2862469236826
30
0
40
1.7499999999999762
0
CIRCLE
5
148
100
AcDbEntity
8
0
100
AcDbCircle
10
881.16925251378575
20
444.28624692368265
30
0
40
1.7499999999999907
0
CIRCLE
5
149
100
AcDbEntity
8
0
100
AcDbCircle
10
767.16925251378598
20
309.03624692368237
30
0
40
1.7499999999999343
0
CIRCLE
5
150
100
AcDbEntity
8
0
100
AcDbCircle
10
656.36925251378602
20
309.03624692368237
30
0
40
1.7499999999999716
0
CIRCLE
5
151
100
AcDbEntity
8
0
100
AcDbCircle
10
881.16925251378586
20
309.03624692368248
30
0
40
1.7499999999999907
0
CIRCLE
5
152
100
AcDbEntity
8
0
100
AcDbCircle
10
542.36925251378591
20
309.03624692368243
30
0
40
1.7499999999999762
0
CIRCLE
5
153
100
AcDbEntity
8
0
100
AcDbCircle
10
542.36925251378602
20
188.78624692368237
30
0
40
1.7499999999999813
0
CIRCLE
5
154
100
AcDbEntity
8
0
100
AcDbCircle
10
656.36925251378602
20
188.78624692368237
30
0
40
1.7499999999999716
0
CIRCLE
5
155
100
AcDbEntity
8
0
100
AcDbCircle
10
767.16925251378598
20
188.78624692368237
30
0
40
1.7500000000000637
0
CIRCLE
5
156
100
AcDbEntity
8
0
100
AcDbCircle
10
881.16925251378586
20
188.78624692368223
30
0
40
1.7500000000000404
0
CIRCLE
5
157
100
AcDbEntity
8
0
100
AcDbCircle
10
767.16925251378598
20
173.78624692368237
30
0
40
1.7499999999999343
0
CIRCLE
5
158
100
AcDbEntity
8
0
100
AcDbCircle
10
656.36925251378602
20
173.78624692368237
30
0
40
1.7499999999999716
0
CIRCLE
5
159
100
AcDbEntity
8
0
100
AcDbCircle
10
881.16925251378586
20
173.78624692368251
30
0
40
1.7499999999999907
0
CIRCLE
5
160
100
AcDbEntity
8
0
100
AcDbCircle
10
542.36925251378591
20
173.78624692368246
30
0
40
1.7499999999999762
0
CIRCLE
5
161
100
AcDbEntity
8
0
100
AcDbCircle
10
542.36925251378602
20
53.536246923682391
30
0
40
1.7499999999999813
0
CIRCLE
5
162
100
AcDbEntity
8
0
100
AcDbCircle
10
656.36925251378602
20
53.536246923682391
30
0
40
1.7499999999999716
0
CIRCLE
5
163
100
AcDbEntity
8
0
100
AcDbCircle
10
767.16925251378598
20
53.536246923682391
30
0
40
1.7500000000000637
0
CIRCLE
5
164
100
AcDbEntity
8
0
100
AcDbCircle
10
881.16925251378586
20
53.536246923682249
30
0
40
1.7500000000000404
0
CIRCLE
5
165
100
AcDbEntity
8
0
100
AcDbCircle
10
767.16925251378586
20
38.536246923682427
30
0
40
1.25
0
CIRCLE
5
166
100
AcDbEntity
8
0
100
AcDbCircle
10
656.3692525137858
20
38.536246923682427
30
0
40
1.25
0
CIRCLE
5
167
100
AcDbEntity
8
0
100
AcDbCircle
10
881.16925251378575
20
38.536246923682569
30
0
40
1.25
0
CIRCLE
5
168
100
AcDbEntity
8
0
100
AcDbCircle
10
542.3692525137858
20
38.536246923682498
30
0
40
1.25
0
CIRCLE
5
169
100
AcDbEntity
8
0
100
AcDbCircle
10
542.36925251378591
20
-81.713753076317559
30
0
40
1.25
0
CIRCLE
5
170
100
AcDbEntity
8
0
100
AcDbCircle
10
656.3692525137858
20
-81.713753076317559
30
0
40
1.25
0
CIRCLE
5
171
100
AcDbEntity
8
0
100
AcDbCircle
10
767.16925251378586
20
-81.713753076317559
30
0
40
1.25
0
CIRCLE
5
172
100
AcDbEntity
8
0
100
AcDbCircle
10
881.16925251378575
20
-81.713753076317701
30
0
40
1.25
0
LINE
5
173
100
AcDbEntity
8
0
100
AcDbLine
10
576.1592504872259
20
243.21624692368289
30
0
11
576.15925048722602
21
230.96624692368374
31
0
0
LWPOLYLINE
5
174
100
AcDbEntity
8
0
100
AcDbPolyline
90
8
70
1
43
0.0
10
634.51498507365852
20
286.94668386345347
10
646.25275628246413
20
284.45174357364033
42
0.41421356237307905
10
647.43881557401562
20
285.22197948355642
10
649.93375586382911
20
296.95975069236215
42
0.41421356237310086
10
649.16351995391312
20
298.14580998391364
10
637.4257487451074
20
300.64075027372678
42
0.41421356237321133
10
636.23968945355557
20
299.87051436381074
10
633.74474916374243
20
288.13274315500507
42
0.41421356237312773
0
LWPOLYLINE
5
175
100
AcDbEntity
8
0
100
AcDbPolyline
90
8
70
1
43
0.0
10
567.62925251378556
20
302.50624692368353
42
0.41421356237310542
10
566.62925251378567
20
303.50624692368353
10
554.62925251378567
20
303.50624692368353
42
0.41421356237313667
10
553.62925251378567
20
302.50624692368353
10
553.62925251378567
20
290.50624692368353
42
0.41421356237314705
10
554.62925251378567
20
289.50624692368353
10
566.62925251378567
20
289.50624692368359
42
0.4142135623730846
10
567.62925251378567
20
290.50624692368353
0
LWPOLYLINE
5
176
100
AcDbEntity
8
0
100
AcDbPolyline
90
8
70
1
43
0.0
10
624.14574874510731
20
283.9907502737268
42
0.41421356237305218
10
622.9596894535556
20
283.22051436381082
10
620.46474916374257
20
271.4827431550051
42
0.41421356237312557
10
621.23498507365844
20
270.29668386345355
10
632.97275628246427
20
267.80174357364047
42
0.41421356237309287
10
634.15881557401576
20
268.57197948355639
10
636.65375586382891
20
280.30975069236212
42
0.4142135623731808
10
635.88351995391292
20
281.49580998391372
0
LWPOLYLINE
5
177
100
AcDbEntity
8
0
100
AcDbPolyline
90
8
70
1
43
0.0
10
562.4692525137857
20
270.45624692368358
42
0.4142135623730846
10
563.46925251378582
20
271.45624692368352
10
563.46925251378582
20
283.45624692368352
42
0.41421356237316787
10
562.4692525137857
20
284.45624692368364
10
550.4692525137857
20
284.45624692368369
42
0.41421356237309503
10
549.46925251378559
20
283.45624692368352
10
549.46925251378559
20
271.45624692368352
42
0.41421356237301177
10
550.4692525137857
20
270.45624692368347
0
ARC
5
178
100
AcDbEntity
8
0
100
AcDbCircle
10
568.40925048722613
20
245.21624616872745
30
0
40
1.0000000000001563
100
AcDbArc
50
90.000000000006523
51
180
0
LWPOLYLINE
5
179
100
AcDbEntity
8
0
100
AcDbPolyline
90
8
70
1
43
0.0
10
615.75925251378567
20
250.26624692368358
10
615.75925251378578
20
262.26624692368364
42
0.4142135623730846
10
614.75925251378567
20
263.26624692368364
10
602.75925251378567
20
263.26624692368364
42
0.41421356237307422
10
601.75925251378567
20
262.26624692368364
10
601.75925251378567
20
250.26624692368358
42
0.41421356237311585
10
602.75925251378567
20
249.26624692368361
10
614.75925251378567
20
249.26624692368358
42
0.4142135623730534
0
ARC
5
180
100
AcDbEntity
8
0
100
AcDbCircle
10
568.40925048722613
20
227.71624619269457
30
0
40
1.0000000000000853
100
AcDbArc
50
180
51
270.00000137318864
0
LINE
5
181
100
AcDbEntity
8
0
100
AcDbLine
10
575.65925048722602
20
230.46624692368371
30
0
11
575.4092504872259
21
230.46624692368374
31
0
0
LWPOLYLINE
5
182
100
AcDbEntity
8
0
100
AcDbPolyline
90
8
70
1
43
0.0
10
615.05925251378585
20
269.31624692368359
10
615.05925251378574
20
281.31624692368359
42
0.41421356237300139
10
614.05925251378574
20
282.31624692368365
10
602.05925251378562
20
282.31624692368371
42
0.41421356237311585
10
601.05925251378562
20
281.31624692368359
10
601.05925251378562
20
269.31624692368359
42
0.41421356237312623
10
602.05925251378562
20
268.31624692368348
10
614.05925251378574
20
268.31624692368354
42
0.4142135623730846
0
LWPOLYLINE
5
183
100
AcDbEntity
8
0
100
AcDbPolyline
90
8
70
1
43
0.0
10
628.3392525137856
20
290.50624692368353
10
628.3392525137856
20
302.50624692368353
42
0.41421356237298057
10
627.33925251378582
20
303.50624692368353
10
615.33925251378582
20
303.50624692368353
42
0.41421356237307422
10
614.3392525137856
20
302.50624692368353
10
614.33925251378571
20
290.50624692368353
42
0.41421356237304302
10
615.33925251378582
20
289.50624692368353
10
627.3392525137856
20
289.50624692368353
42
0.41421356237307422
0
LWPOLYLINE
5
184
100
AcDbEntity
8
0
100
AcDbPolyline
90
8
70
1
43
0.0
10
639.0984609577215
20
267.52202544492678
42
0.41421356237312773
10
639.8686968676376
20
266.33596615337518
10
651.60646807644343
20
263.84102586356204
42
0.41421356237308488
10
652.79252736799481
20
264.61126177347813
10
655.28746765780761
20
276.34903298228369
42
0.41421356237324836
10
654.51723174789197
20
277.53509227383529
10
642.77946053908624
20
280.03003256364843
42
0.41421356237312557
10
641.59340124753487
20
279.25979665373245
0
LINE
5
185
100
AcDbEntity
8
0
100
AcDbLine
10
567.40925048722602
20
245.21624616872745
30
0
11
567.40925048722613
21
227.71624619269457
31
0
0
LINE
5
186
100
AcDbEntity
8
0
100
AcDbLine
10
574.9092504872259
20
230.96624692368374
30
0
11
574.90925048722602
21
245.21624616872799
31
0
0
LWPOLYLINE
5
187
100
AcDbEntity
8
0
100
AcDbPolyline
90
8
70
1
43
0.0
10
624.84574874510713
20
264.36075027372669
42
0.41421356237307466
10
623.65968945355564
20
263.59051436381083
10
621.1647491637425
20
251.8527431550051
42
0.41421356237307255
10
621.93498507365848
20
250.66668386345356
10
633.67275628246409
20
248.17174357364038
42
0.41421356237309503
10
634.85881557401603
20
248.94197948355645
10
637.35375586382906
20
260.67975069236212
42
0.41421356237317869
10
636.58351995391286
20
261.86580998391366
0
LWPOLYLINE
5
188
100
AcDbEntity
8
0
100
AcDbPolyline
90
8
70
1
43
0.0
10
545.39925251378565
20
252.4062469236836
42
0.41421356237306384
10
546.39925251378577
20
251.40624692368363
10
558.39925251378577
20
251.40624692368363
42
0.41421356237309503
10
559.39925251378565
20
252.40624692368363
10
559.39925251378565
20
264.40624692368363
42
0.41421356237301177
10
558.39925251378577
20
265.40624692368357
10
546.39925251378577
20
265.40624692368357
42
0.4142135623730846
10
545.39925251378565
20
264.40624692368363
0
LWPOLYLINE
5
189
100
AcDbEntity
8
0
100
AcDbPolyline
90
8
70
1
43
0.0
10
570.79925251378586
20
250.26624692368358
42
0.4142135623730534
10
571.79925251378575
20
249.26624692368361
10
583.79925251378586
20
249.26624692368358
42
0.41421356237301177
10
584.79925251378575
20
250.26624692368358
10
584.79925251378575
20
262.26624692368364
42
0.4142135623730222
10
583.79925251378586
20
263.2662469236837
10
571.79925251378575
20
263.26624692368358
42
0.41421356237309503
10
570.79925251378563
20
262.26624692368364
0
LWPOLYLINE
5
190
100
AcDbEntity
8
0
100
AcDbPolyline
90
8
70
1
43
0.0
10
643.47946053908629
20
260.40003256364844
42
0.41421356237328472
10
642.29340124753446
20
259.62979665373246
10
639.79846095772166
20
247.89202544492682
42
0.4142135623729235
10
640.56869686763764
20
246.70596615337524
10
652.30646807644325
20
244.2110258635621
42
0.41421356237298895
10
653.49252736799485
20
244.98126177347811
10
655.98746765780788
20
256.71903298228381
42
0.4142135623731234
10
655.2172317478919
20
257.90509227383541
0
LINE
5
191
100
AcDbEntity
8
0
100
AcDbLine
10
573.90925048722613
20
246.21624616872765
30
0
11
568.40925048722602
21
246.21624616872762
31
0
0
LWPOLYLINE
5
192
100
AcDbEntity
8
0
100
AcDbPolyline
90
8
70
1
43
0.0
10
570.01925251378566
20
225.16624692368364
42
0.4142135623730846
10
569.01925251378566
20
224.16624692368359
10
569.01925251378566
20
212.16624692368359
42
0.41421356237307422
10
570.01925251378566
20
211.16624692368362
10
582.01925251378589
20
211.16624692368362
42
0.41421356237312623
10
583.01925251378589
20
212.16624692368359
10
583.01925251378577
20
224.16624692368359
42
0.41421356237312623
10
582.01925251378589
20
225.16624692368362
0
ARC
5
193
100
AcDbEntity
8
0
100
AcDbCircle
10
857.0042525137859
20
288.1162469236836
30
0
40
0.50000000000011369
100
AcDbArc
50
180
51
270
0
LWPOLYLINE
5
194
100
AcDbEntity
8
0
100
AcDbPolyline
90
8
70
1
43
0.0
10
746.49609636595505
20
260.39524844329685
42
0.41421356237311541
10
747.26633227587104
20
261.58130773484845
10
744.77139198605801
20
273.31907894365418
42
0.4142135623730136
10
743.58533269450641
20
274.08931485357016
10
731.84756148570057
20
271.59437456375707
42
0.41421356237301732
10
731.07732557578447
20
270.40831527220541
10
733.57226586559796
20
258.67054406339975
42
0.41421356237308915
10
734.75832515714933
20
257.90030815348382
0
LWPOLYLINE
5
195
100
AcDbEntity
8
0
100
AcDbPolyline
90
8
70
1
43
0.0
10
596.69925251378561
20
301.3662469236836
42
0.41421356237309503
10
595.69925251378561
20
300.36624692368372
10
595.69925251378561
20
288.36624692368355
42
0.41421356237314705
10
596.69925251378561
20
287.36624692368355
10
608.69925251378561
20
287.3662469236836
42
0.4142135623730846
10
609.69925251378561
20
288.36624692368355
10
609.69925251378561
20
300.36624692368372
42
0.41421356237309503
10
608.69925251378561
20
301.3662469236836
0
LWPOLYLINE
5
196
100
AcDbEntity
8
0
100
AcDbPolyline
90
8
70
1
43
0.0
10
667.79723174789183
20
294.18509227383538
10
656.0594605390861
20
296.68003256364852
42
0.41421356237311541
10
654.87340124753462
20
295.90979665373243
10
652.37846095772159
20
284.17202544492682
42
0.41421356237303181
10
653.14869686763768
20
282.9859661533751
10
664.88646807644329
20
280.49102586356196
42
0.41421356237317059
10
666.07252736799478
20
281.26126177347817
10
668.56746765780815
20
292.99903298228372
42
0.41421356237312773
0
LWPOLYLINE
5
197
100
AcDbEntity
8
0
100
AcDbPolyline
90
8
70
1
43
0.0
10
750.48127327967961
20
275.55509227383527
42
0.41421356237295626
10
749.71103736976363
20
274.36903298228373
10
752.20597765957666
20
262.63126177347817
42
0.41421356237306883
10
753.39203695112838
20
261.86102586356202
10
765.12980815993376
20
264.35596615337522
42
0.41421356237301948
10
765.90004406984986
20
265.54202544492682
10
763.40510378003717
20
277.27979665373249
42
0.41421356237306817
10
762.21904448848522
20
278.05003256364847
0
ARC
5
198
100
AcDbEntity
8
0
100
AcDbCircle
10
575.40925048722579
20
230.96624692368357
30
0
40
0.49999999999982947
100
AcDbArc
50
180
51
270.00000000001302
0
LWPOLYLINE
5
199
100
AcDbEntity
8
0
100
AcDbPolyline
90
8
70
1
43
0.0
10
757.56597765957645
20
283.24126177347802
42
0.41421356237321716
10
758.75203695112862
20
282.47102586356209
10
770.48980815993389
20
284.96596615337512
42
0.41421356237303181
10
771.26004406985032
20
286.15202544492678
10
768.76510378003718
20
297.88979665373245
42
0.414213562373066
10
767.57904448848524
20
298.66003256364849
10
755.84127327967951
20
296.1650922738354
42
0.41421356237300933
10
755.0710373697633
20
294.9790329822838
0
LWPOLYLINE
5
200
100
AcDbEntity
8
0
100
AcDbPolyline
90
8
70
1
43
0.0
10
577.64925251378577
20
301.3662469236836
42
0.41421356237311585
10
576.64925251378565
20
300.36624692368372
10
576.64925251378565
20
288.36624692368355
42
0.41421356237307422
10
577.64925251378577
20
287.36624692368355
10
589.64925251378577
20
287.36624692368355
42
0.41421356237309503
10
590.64925251378577
20
288.36624692368355
10
590.64925251378565
20
300.36624692368372
42
0.41421356237307422
10
589.64925251378577
20
301.36624692368372
0
LWPOLYLINE
5
201
100
AcDbEntity
8
0
100
AcDbPolyline
90
8
70
1
43
0.0
10
737.20756148570058
20
292.20437456375686
42
0.41421356237300933
10
736.4373255757846
20
291.01831527220543
10
738.93226586559774
20
279.28054406339976
42
0.41421356237303619
10
740.11832515714923
20
278.51030815348372
10
751.85609636595484
20
281.00524844329675
42
0.41421356237301732
10
752.62633227587105
20
282.19130773484835
10
750.13139198605791
20
293.92907894365402
42
0.41421356237297502
10
748.94533269450619
20
294.69931485357017
0
LWPOLYLINE
5
202
100
AcDbEntity
8
0
100
AcDbPolyline
90
8
70
1
43
0.0
10
770.83968945355559
20
266.59197948355643
42
0.41421356237311324
10
772.02574874510731
20
265.82174357364045
10
783.76351995391303
20
268.31668386345365
42
0.41421356237295837
10
784.53375586382936
20
269.50274315500513
10
782.03881557401587
20
281.24051436381069
42
0.41421356237303397
10
780.8527562824645
20
282.0107502737269
10
769.11498507365854
20
279.5158099839137
42
0.4142135623730645
10
768.34474916374256
20
278.32975069236215
0
LWPOLYLINE
5
203
100
AcDbEntity
8
0
100
AcDbPolyline
90
8
70
1
43
0.0
10
733.22238457197614
20
277.04453073321844
42
0.41421356237299112
10
733.99262048189189
20
278.23059002477009
10
731.49768019207886
20
289.96836123357571
42
0.41421356237324403
10
730.31162090052703
20
290.7385971434918
10
718.57384969172153
20
288.24365685367866
42
0.41421356237323814
10
717.80361378180555
20
287.05759756212717
10
720.29855407161836
20
275.31982635332145
42
0.41421356237309875
10
721.4846133631703
20
274.54959044340529
0
ARC
5
204
100
AcDbEntity
8
0
100
AcDbCircle
10
590.65925251378565
20
230.96624692368368
30
0
40
0.50000000000004263
100
AcDbArc
50
180
51
269.99999999998698
0
LINE
5
205
100
AcDbEntity
8
0
100
AcDbLine
10
597.90925253776447
20
226.71624689971679
30
0
11
568.40925051119279
21
226.71624619269448
31
0
0
LWPOLYLINE
5
206
100
AcDbEntity
8
0
100
AcDbPolyline
90
8
70
1
43
0.0
10
673.50711304151355
20
291.94907894365417
10
671.0121727517004
20
280.2113077348485
42
0.41421356237302165
10
671.78240866161661
20
279.02524844329685
10
683.52017987042234
20
276.53030815348382
42
0.41421356237314594
10
684.70623916197371
20
277.3005440633998
10
687.20117945178697
20
289.03831527220552
42
0.41421356237307255
10
686.43094354187087
20
290.22437456375707
10
674.69317233306526
20
292.7193148535701
42
0.41421356237311324
0
LWPOLYLINE
5
207
100
AcDbEntity
8
0
100
AcDbPolyline
90
8
70
1
43
0.0
10
662.11317233306534
20
256.43931485357018
42
0.41421356237312773
10
660.92711304151351
20
255.66907894365411
10
658.43217275170036
20
243.93130773484847
42
0.41421356237308266
10
659.20240866161646
20
242.7452484432969
10
670.94017987042218
20
240.25030815348373
42
0.41421356237304197
10
672.12623916197367
20
241.02054406339988
10
674.6211794517867
20
252.75831527220546
42
0.41421356237302964
10
673.85094354187072
20
253.94437456375712
0
ARC
5
208
100
AcDbEntity
8
0
100
AcDbCircle
10
590.9092525137861
20
230.96624692368351
30
0
40
0.49999999999982947
100
AcDbArc
50
269.99999999998698
51
360
0
LWPOLYLINE
5
209
100
AcDbEntity
8
0
100
AcDbPolyline
90
8
70
1
43
0.0
10
670.24017987042248
20
259.88030815348355
42
0.41421356237311174
10
671.42623916197397
20
260.65054406339988
10
673.921179451787
20
272.38831527220549
42
0.41421356237296642
10
673.1509435418709
20
273.57437456375703
10
661.41317233306518
20
276.06931485357018
42
0.41421356237319901
10
660.22711304151358
20
275.29907894365414
10
657.73217275170043
20
263.56130773484841
42
0.41421356237296642
10
658.50240866161641
20
262.37524844329687
0
LWPOLYLINE
5
210
100
AcDbEntity
8
0
100
AcDbPolyline
90
8
70
1
43
0.0
10
727.86238457197555
20
256.43453073321848
42
0.41421356237308266
10
728.63262048189199
20
257.62059002477008
10
726.13768019207873
20
269.35836123357569
42
0.41421356237298312
10
724.95162090052747
20
270.12859714349179
10
713.21384969172175
20
267.63365685367887
42
0.41421356237318879
10
712.44361378180554
20
266.4475975621271
10
714.93855407161868
20
254.70982635332138
42
0.41421356237313145
10
716.12461336317028
20
253.93959044340548
0
LINE
5
211
100
AcDbEntity
8
0
100
AcDbLine
10
589.15925251378565
20
244.21624692368363
30
0
11
577.15925251378553
21
244.21624692368366
31
0
0
LWPOLYLINE
5
212
100
AcDbEntity
8
0
100
AcDbPolyline
90
8
70
1
43
0.0
10
607.10925251378558
20
243.2162469236836
10
607.10925251378558
20
231.2162469236836
42
0.41421356237297013
10
608.1092525137858
20
230.21624692368363
10
620.10925251378558
20
230.2162469236836
42
0.41421356237307422
10
621.1092525137858
20
231.2162469236836
10
621.1092525137858
20
243.2162469236836
42
0.4142135623730534
10
620.10925251378558
20
244.21624692368366
10
608.10925251378558
20
244.21624692368366
42
0.41421356237310542
0
LINE
5
213
100
AcDbEntity
8
0
100
AcDbLine
10
591.4092525137969
20
245.21624692368442
30
0
11
591.40925251378587
21
230.96624692368323
31
0
0
LWPOLYLINE
5
214
100
AcDbEntity
8
0
100
AcDbPolyline
90
8
70
1
43
0.0
10
578.24925251378568
20
268.31624692368354
10
590.24925251378568
20
268.31624692368354
42
0.41421356237309503
10
591.24925251378568
20
269.31624692368354
10
591.24925251378568
20
281.31624692368359
42
0.41421356237311585
10
590.24925251378568
20
282.31624692368365
10
578.24925251378568
20
282.31624692368365
42
0.41421356237313667
10
577.24925251378568
20
281.31624692368359
10
577.24925251378568
20
269.31624692368359
42
0.41421356237310542
0
LINE
5
215
100
AcDbEntity
8
0
100
AcDbLine
10
598.90925251379781
20
245.21624692368363
30
0
11
598.90925251379758
21
227.71624689971677
31
0
0
LINE
5
216
100
AcDbEntity
8
0
100
AcDbLine
10
590.15925251378565
20
243.21624692368263
30
0
11
590.15925251378565
21
230.96624692368366
31
0
0
ARC
5
217
100
AcDbEntity
8
0
100
AcDbCircle
10
589.15924905671557
20
243.21624692368263
30
0
40
1.0000034570700223
100
AcDbArc
50
0
51
89.999801924475804
0
ARC
5
218
100
AcDbEntity
8
0
100
AcDbCircle
10
597.90925251379781
20
227.71624689971671
30
0
40
0.99999999999990785
100
AcDbArc
50
-89.999998626811347
51
0
0
ARC
5
219
100
AcDbEntity
8
0
100
AcDbCircle
10
597.90925251379792
20
245.21624692368388
30
0
40
0.9999999999998721
100
AcDbArc
50
0
51
90.000000000006523
0
ARC
5
220
100
AcDbEntity
8
0
100
AcDbCircle
10
575.65925048722613
20
230.96624692368357
30
0
40
0.499999999999865
100
AcDbArc
50
-90.000000000013031
51
0
0
LINE
5
221
100
AcDbEntity
8
0
100
AcDbLine
10
590.65925251378553
20
230.46624692368366
30
0
11
590.90925251378599
21
230.46624692368368
31
0
0
ARC
5
222
100
AcDbEntity
8
0
100
AcDbCircle
10
592.40925251379679
20
245.21624692368377
30
0
40
0.99999999999980105
100
AcDbArc
50
89.999999999986969
51
180
0
LINE
5
223
100
AcDbEntity
8
0
100
AcDbLine
10
592.40925251379701
20
246.21624692368357
30
0
11
597.90925251379781
21
246.2162469236836
31
0
0
ARC
5
224
100
AcDbEntity
8
0
100
AcDbCircle
10
577.15925048722875
20
243.21624692368289
30
0
40
1.0000000000028137
100
AcDbArc
50
89.999883886849247
51
180
0
ARC
5
225
100
AcDbEntity
8
0
100
AcDbCircle
10
573.90925048722636
20
245.21624616872799
30
0
40
0.99999999999965894
100
AcDbArc
50
0
51
90.000000000013031
0
LWPOLYLINE
5
226
100
AcDbEntity
8
0
100
AcDbPolyline
90
24
70
1
43
0.0
10
751.42351995391311
20
203.0066838634535
42
0.41421415593758171
10
752.19375784610349
20
204.19274357635058
10
749.64683963358596
20
216.17505168533972
42
-0.41421356237320545
10
750.03195758854406
20
216.76808133111552
10
750.27649448872717
20
216.82005925381984
42
-0.41421356237327395
10
750.86952413450285
20
216.43494129886193
10
753.83226557169223
20
202.49633872686363
42
0.41421356237318729
10
755.01832486324361
20
201.72610281694747
10
760.39813666727935
20
202.86961711644511
42
0.41421356237297224
10
761.16837257719556
20
204.05567640799688
10
757.52991799286747
20
221.1732593973953
42
0.41421356939268189
10
756.34385867787296
20
221.94349530232816
10
727.48850262093765
20
215.8100993102843
42
0.41421355535346532
10
726.71826673446481
20
214.62404002371571
10
730.35672132875845
20
197.50645698743108
42
0.4142135623733893
10
731.54278062031017
20
196.73622107751495
10
736.92259242434704
20
197.87973537701282
42
0.41421356237293588
10
737.69282833426303
20
199.06579466856371
10
734.73008674012067
20
213.00439797902382
42
-0.41421356237302964
10
735.11520469507877
20
213.59742762479922
10
735.35974159526234
20
213.6494055475037
42
-0.41421356237337265
10
735.95277124103802
20
213.26428759254568
10
738.49968945355545
20
201.28197948355663
42
0.41421254982076883
10
739.68574946385945
20
200.51174019211987
0
LWPOLYLINE
5
227
100
AcDbEntity
8
0
100
AcDbPolyline
90
8
70
1
43
0.0
10
622.47498507365867
20
210.06668386345351
10
634.21275628246417
20
207.57174357364036
42
0.41421356237304197
10
635.39881557401577
20
208.34197948355643
10
637.89375586382903
20
220.0797506923621
42
0.41421356237313572
10
637.12351995391271
20
221.26580998391375
10
625.38574874510743
20
223.7607502737269
42
0.41421356237316848
10
624.19968945355561
20
222.9905143638108
10
621.70474916374258
20
211.25274315500505
42
0.4142135623730398
0
LWPOLYLINE
5
228
100
AcDbEntity
8
0
100
AcDbPolyline
90
8
70
1
43
0.0
10
818.6092525137858
20
263.26624692368358
42
0.41421356237301177
10
817.6092525137858
20
262.26624692368364
10
817.6092525137858
20
250.26624692368358
42
0.41421356237295975
10
818.6092525137858
20
249.26624692368358
10
830.60925251378592
20
249.26624692368364
42
0.41421356237313667
10
831.60925251378569
20
250.26624692368358
10
831.60925251378569
20
262.26624692368364
42
0.4142135623728973
10
830.60925251378592
20
263.26624692368364
0
LWPOLYLINE
5
229
100
AcDbEntity
8
0
100
AcDbPolyline
90
8
70
1
43
0.0
10
808.56925251378584
20
269.31624692368359
42
0.4142135623731783
10
809.5692525137855
20
268.31624692368359
10
821.5692525137855
20
268.31624692368354
42
0.41421356237312623
10
822.56925251378573
20
269.31624692368359
10
822.56925251378584
20
281.31624692368359
42
0.41421356237300139
10
821.5692525137855
20
282.31624692368365
10
809.5692525137855
20
282.31624692368376
42
0.41421356237307422
10
808.56925251378561
20
281.31624692368359
0
LWPOLYLINE
5
230
100
AcDbEntity
8
0
100
AcDbPolyline
90
8
70
1
43
0.0
10
774.09968945355604
20
228.33197948355644
42
0.41421356237297224
10
775.28574874510753
20
227.5617435736404
10
787.02351995391268
20
230.05668386345354
42
0.41421356237311541
10
787.79375586382923
20
231.24274315500514
10
785.29881557401586
20
242.98051436381081
42
0.41421356237311174
10
784.11275628246415
20
243.75075027372677
10
772.37498507365842
20
241.25580998391365
42
0.41421356237306667
10
771.60474916374255
20
240.06975069236211
0
LINE
5
231
100
AcDbEntity
8
0
100
AcDbLine
10
841.25425048722627
20
288.11624692368372
30
0
11
841.25425048722627
21
302.3662461687278
31
0
0
LWPOLYLINE
5
232
100
AcDbEntity
8
0
100
AcDbPolyline
90
8
70
1
43
0.0
10
852.43925251378585
20
268.31624692368348
10
864.43925251378573
20
268.31624692368354
42
0.4142135623730534
10
865.43925251378585
20
269.31624692368348
10
865.43925251378585
20
281.31624692368359
42
0.41421356237327195
10
864.43925251378573
20
282.31624692368371
10
852.43925251378585
20
282.31624692368376
42
0.4142135623730222
10
851.43925251378573
20
281.31624692368359
10
851.43925251378596
20
269.31624692368359
42
0.41421356237303258
0
ARC
5
233
100
AcDbEntity
8
0
100
AcDbCircle
10
848.05925251378585
20
262.51624692368358
30
0
40
0.49999999999997158
100
AcDbArc
50
0
51
90
0
LINE
5
234
100
AcDbEntity
8
0
100
AcDbLine
10
857.0042525137859
20
287.61624692368355
30
0
11
857.25425251378635
21
287.61624692368349
31
0
0
LINE
5
235
100
AcDbEntity
8
0
100
AcDbLine
10
863.05925454034525
20
263.01624692368352
30
0
11
863.30925454034525
21
263.01624692368352
31
0
0
LINE
5
236
100
AcDbEntity
8
0
100
AcDbLine
10
865.25425251379818
20
302.36624692368383
30
0
11
865.25425251379772
21
284.86624689971666
31
0
0
LWPOLYLINE
5
237
100
AcDbEntity
8
0
100
AcDbPolyline
90
8
70
1
43
0.0
10
630.19574874510693
20
243.75075027372679
42
0.41421356237301948
10
629.00968945355555
20
242.98051436381084
10
626.51474916374252
20
231.24274315500514
42
0.41421356237298895
10
627.28498507365862
20
230.05668386345349
10
639.02275628246434
20
227.56174357364048
42
0.41421356237305218
10
640.20881557401583
20
228.33197948355647
10
642.70375586382886
20
240.06975069236211
42
0.41421356237322804
10
641.93351995391276
20
241.25580998391371
0
LWPOLYLINE
5
238
100
AcDbEntity
8
0
100
AcDbPolyline
90
8
70
1
43
0.0
10
755.46597765957642
20
224.3712617734781
42
0.41421356237300716
10
756.65203695112825
20
223.60102586356214
10
768.38980815993409
20
226.09596615337526
42
0.41421356237294826
10
769.16004406984985
20
227.28202544492675
10
766.66510378003693
20
239.01979665373247
42
0.4142135623730136
10
765.4790444884851
20
239.79003256364848
10
753.74127327967972
20
237.29509227383539
42
0.41421356237301948
10
752.97103736976351
20
236.10903298228376
0
LWPOLYLINE
5
239
100
AcDbEntity
8
0
100
AcDbPolyline
90
8
70
1
43
0.0
10
770.83904448848534
20
260.40003256364844
10
759.10127327967973
20
257.90509227383535
42
0.41421356237301732
10
758.33103736976352
20
256.71903298228369
10
760.82597765957667
20
244.98126177347811
42
0.41421356237298312
10
762.01203695112793
20
244.21102586356204
10
773.7498081599341
20
246.70596615337519
42
0.4142135623729134
10
774.52004406984986
20
247.89202544492682
10
772.02510378003706
20
259.6297966537324
42
0.41421356237303608
0
LINE
5
240
100
AcDbEntity
8
0
100
AcDbLine
10
842.00425048722639
20
287.61624692368372
30
0
11
841.75425048722627
21
287.61624692368372
31
0
0
LWPOLYLINE
5
241
100
AcDbEntity
8
0
100
AcDbPolyline
90
8
70
1
43
0.0
10
813.92925251378551
20
300.36624692368372
10
813.92925251378585
20
288.36624692368355
42
0.41421356237318868
10
814.92925251378551
20
287.36624692368355
10
826.92925251378585
20
287.3662469236836
42
0.41421356237312623
10
827.92925251378597
20
288.36624692368349
10
827.92925251378574
20
300.36624692368372
42
0.41421356237306384
10
826.92925251378585
20
301.3662469236836
10
814.92925251378551
20
301.36624692368355
42
0.41421356237306384
0
LWPOLYLINE
5
242
100
AcDbEntity
8
0
100
AcDbPolyline
90
8
70
1
43
0.0
10
803.93925251378562
20
270.37624692368354
10
803.93925251378562
20
282.37624692368365
42
0.41421356237310542
10
802.93925251378585
20
283.37624692368354
10
790.93925251378573
20
283.37624692368371
42
0.41421356237311585
10
789.93925251378585
20
282.37624692368365
10
789.93925251378585
20
270.37624692368354
42
0.41421356237312623
10
790.93925251378573
20
269.37624692368354
10
802.93925251378585
20
269.37624692368365
42
0.41421356237304302
0
LWPOLYLINE
5
243
100
AcDbEntity
8
0
100
AcDbPolyline
90
8
70
1
43
0.0
10
809.29925251378575
20
290.50624692368365
10
809.29925251378563
20
302.50624692368353
42
0.41421356237331353
10
808.29925251378586
20
303.50624692368353
10
796.29925251378586
20
303.50624692368359
42
0.41421356237312623
10
795.29925251378586
20
302.50624692368353
10
795.29925251378586
20
290.50624692368353
42
0.41421356237310542
10
796.29925251378586
20
289.50624692368353
10
808.29925251378586
20
289.50624692368353
42
0.41421356237314705
0
LWPOLYLINE
5
244
100
AcDbEntity
8
0
100
AcDbPolyline
90
8
70
1
43
0.0
10
840.61925251378568
20
268.31624692368348
42
0.41421356237301177
10
841.6192525137858
20
269.31624692368359
10
841.61925251378591
20
281.31624692368359
42
0.41421356237295975
10
840.61925251378568
20
282.31624692368365
10
828.6192525137858
20
282.31624692368365
42
0.41421356237312623
10
827.61925251378557
20
281.31624692368359
10
827.6192525137858
20
269.31624692368359
42
0.4142135623730846
10
828.6192525137858
20
268.31624692368359
0
LINE
5
245
100
AcDbEntity
8
0
100
AcDbLine
10
833.75425048722627
20
302.3662461687274
30
0
11
833.75425048722627
21
284.86624619269452
31
0
0
LWPOLYLINE
5
246
100
AcDbEntity
8
0
100
AcDbPolyline
90
8
70
1
43
0.0
10
750.5263322758708
20
223.32130773484849
10
748.03139198605788
20
235.0590789436541
42
0.4142135623730463
10
746.8453326945064
20
235.8293148535702
10
735.10756148570056
20
233.33437456375697
42
0.41421356237301948
10
734.3373255757848
20
232.14831527220551
10
736.83226586559772
20
220.41054406339981
42
0.41421356237303181
10
738.01832515714921
20
219.64030815348369
10
749.75609636595493
20
222.13524844329692
42
0.41421356237307688
0
LINE
5
247
100
AcDbEntity
8
0
100
AcDbLine
10
842.50425048722627
20
300.36624692368275
30
0
11
842.50425048722627
21
288.11624692368372
31
0
0
LWPOLYLINE
5
248
100
AcDbEntity
8
0
100
AcDbPolyline
90
8
70
1
43
0.0
10
755.11609636595495
20
242.74524844329682
42
0.41421356237307466
10
755.88633227587081
20
243.93130773484842
10
753.39139198605778
20
255.66907894365414
42
0.41421356237318452
10
752.2053326945063
20
256.43931485357018
10
740.46756148570068
20
253.94437456375698
42
0.41421356237307466
10
739.6973255757847
20
252.75831527220538
10
742.19226586559773
20
241.02054406339974
42
0.41421356237310736
10
743.37832515714922
20
240.25030815348373
0
LWPOLYLINE
5
249
100
AcDbEntity
8
0
100
AcDbPolyline
90
8
70
1
43
0.0
10
811.55925251378574
20
263.26624692368364
10
799.55925251378574
20
263.26624692368364
42
0.4142135623730222
10
798.55925251378585
20
262.26624692368364
10
798.55925251378551
20
250.26624692368358
42
0.4142135623731783
10
799.55925251378574
20
249.26624692368358
10
811.55925251378574
20
249.26624692368364
42
0.41421356237313667
10
812.55925251378585
20
250.26624692368358
10
812.55925251378585
20
262.26624692368364
42
0.41421356237290774
0
ARC
5
250
100
AcDbEntity
8
0
100
AcDbCircle
10
840.8092525137738
20
265.76624694765053
30
0
40
0.99999999999994338
100
AcDbArc
50
90.000001373201684
51
180
0
ARC
5
251
100
AcDbEntity
8
0
100
AcDbCircle
10
847.8092525137854
20
262.51624692368358
30
0
40
0.49999999999997158
100
AcDbArc
50
90
51
180
0
LINE
5
252
100
AcDbEntity
8
0
100
AcDbLine
10
857.75425251379727
20
302.36624692368372
30
0
11
857.75425251378635
21
288.11624692368321
31
0
0
ARC
5
253
100
AcDbEntity
8
0
100
AcDbCircle
10
863.05925454034525
20
262.51624692368352
30
0
40
0.50000000000000711
100
AcDbArc
50
90
51
180
0
LWPOLYLINE
5
254
100
AcDbEntity
8
0
100
AcDbPolyline
90
8
70
1
43
0.0
10
774.47498507365844
20
300.12580998391354
42
0.4142135623731219
10
773.70474916374235
20
298.93975069236205
10
776.19968945355595
20
287.20197948355639
42
0.41421356237310736
10
777.38574874510732
20
286.43174357364023
10
789.12351995391305
20
288.92668386345349
42
0.4142135623729134
10
789.8937558638288
20
290.11274315500509
10
787.39881557401577
20
301.85051436381082
42
0.41421356237306667
10
786.21275628246417
20
302.62075027372669
0
ARC
5
255
100
AcDbEntity
8
0
100
AcDbCircle
10
864.25425251379784
20
284.86624689971666
30
0
40
1.0000000000000144
100
AcDbArc
50
-89.999998626804825
51
0
0
ARC
5
256
100
AcDbEntity
8
0
100
AcDbCircle
10
863.30925454034525
20
262.51624692368352
30
0
40
0.49999999999997158
100
AcDbArc
50
0
51
90
0
ARC
5
257
100
AcDbEntity
8
0
100
AcDbCircle
10
858.75425251379716
20
302.36624692368372
30
0
40
0.99999999999980105
100
AcDbArc
50
89.999999999986969
51
180
0
ARC
5
258
100
AcDbEntity
8
0
100
AcDbCircle
10
857.25425251378624
20
288.1162469236836
30
0
40
0.50000000000011369
100
AcDbArc
50
270.00000000001302
51
360
0
ARC
5
259
100
AcDbEntity
8
0
100
AcDbCircle
10
842.00425048722639
20
288.11624692368366
30
0
40
0.49999999999997158
100
AcDbArc
50
-90
51
0
0
LINE
5
260
100
AcDbEntity
8
0
100
AcDbLine
10
856.50425251378579
20
300.3662469236827
30
0
11
856.50425251378579
21
288.1162469236836
31
0
0
ARC
5
261
100
AcDbEntity
8
0
100
AcDbCircle
10
834.75425048722639
20
302.3662461687274
30
0
40
1.0000000000002274
100
AcDbArc
50
90.000000000006523
51
180
0
LINE
5
262
100
AcDbEntity
8
0
100
AcDbLine
10
858.75425251379738
20
303.36624692368355
30
0
11
864.25425251379806
21
303.36624692368378
31
0
0
ARC
5
263
100
AcDbEntity
8
0
100
AcDbCircle
10
841.75425048722627
20
288.11624692368366
30
0
40
0.49999999999997158
100
AcDbArc
50
180
51
270
0
ARC
5
264
100
AcDbEntity
8
0
100
AcDbCircle
10
834.75425048722639
20
284.86624619269452
30
0
40
1.0000000000000853
100
AcDbArc
50
180
51
270.00000137318864
0
ARC
5
265
100
AcDbEntity
8
0
100
AcDbCircle
10
864.25425251379852
20
302.36624692368383
30
0
40
0.99999999999965894
100
AcDbArc
50
0
51
90.000000000026063
0
ARC
5
266
100
AcDbEntity
8
0
100
AcDbCircle
10
870.30925454034514
20
265.76624765467272
30
0
40
1.0000000000000853
100
AcDbArc
50
0
51
90.000001373182144
0
LWPOLYLINE
5
267
100
AcDbEntity
8
0
100
AcDbPolyline
90
8
70
1
43
0.0
10
663.78217275170073
20
223.32130773484852
42
0.41421356237302809
10
664.55240866161671
20
222.13524844329686
10
676.29017987042232
20
219.6403081534838
42
0.41421356237317059
10
677.47623916197369
20
220.41054406339984
10
679.97117945178684
20
232.14831527220551
42
0.41421356237321783
10
679.20094354187086
20
233.33437456375705
10
667.46317233306513
20
235.82931485357028
42
0.41421356237311174
10
666.27711304151376
20
235.0590789436541
0
LWPOLYLINE
5
268
100
AcDbEntity
8
0
100
AcDbPolyline
90
8
70
1
43
0.0
10
806.19925251378561
20
244.21624692368366
10
794.19925251378572
20
244.21624692368363
42
0.41421356237299095
10
793.19925251378561
20
243.2162469236836
10
793.19925251378572
20
231.2162469236836
42
0.4142135623730222
10
794.19925251378572
20
230.21624692368357
10
806.19925251378572
20
230.21624692368363
42
0.41421356237309503
10
807.19925251378584
20
231.21624692368371
10
807.19925251378584
20
243.2162469236836
42
0.41421356237295975
0
LWPOLYLINE
5
269
100
AcDbEntity
8
0
100
AcDbPolyline
90
8
70
1
43
0.0
10
705.06465533585003
20
286.26365685367881
10
693.32688412704442
20
288.75859714349184
42
0.41421356237307466
10
692.14082483549259
20
287.98836123357592
10
689.64588454567979
20
276.25059002477019
42
0.41421356237307466
10
690.41612045559555
20
275.06453073321859
10
702.15389166440127
20
272.56959044340539
42
0.41421356237307905
10
703.33995095595287
20
273.33982635332166
10
705.83489124576568
20
285.07759756212721
42
0.41421356237323964
0
LWPOLYLINE
5
270
100
AcDbEntity
8
0
100
AcDbPolyline
90
8
70
1
43
0.0
10
793.15375586382925
20
251.8527431550051
10
790.65881557401565
20
263.59051436381083
42
0.41421356237293155
10
789.47275628246416
20
264.36075027372675
10
777.73498507365844
20
261.86580998391372
42
0.41421356237290102
10
776.96474916374268
20
260.67975069236212
10
779.45968945355571
20
248.94197948355639
42
0.41421356237315393
10
780.64574874510754
20
248.17174357364041
10
792.38351995391304
20
250.66668386345353
42
0.41421356237297074
0
ARC
5
271
100
AcDbEntity
8
0
100
AcDbCircle
10
656.7565812615378
20
217.86261551328724
30
0
40
0.50000000000000799
100
AcDbArc
50
77.999999999984283
51
167.99999999995563
0
LWPOLYLINE
5
272
100
AcDbEntity
8
0
100
AcDbPolyline
90
8
70
1
43
0.0
10
721.06361378180554
20
248.79759756212707
10
723.55855407161835
20
237.0598263533214
42
0.4142135623730136
10
724.74461336317017
20
236.28959044340542
10
736.48238457197613
20
238.78453073321847
42
0.41421356237302964
10
737.25262048189211
20
239.97059002477016
10
734.75768019207885
20
251.70836123357574
42
0.41421356237300494
10
733.57162090052714
20
252.47859714349175
10
721.83384969172153
20
249.98365685367875
42
0.41421356237302964
0
LWPOLYLINE
5
273
100
AcDbEntity
8
0
100
AcDbPolyline
90
8
70
1
43
0.0
10
677.83612045559562
20
238.78453073321865
10
689.57389166440123
20
236.28959044340547
42
0.41421356237302159
10
690.75995095595306
20
237.05982635332157
10
693.25489124576598
20
248.79759756212721
42
0.41421356237302964
10
692.48465533585022
20
249.98365685367887
10
680.74688412704415
20
252.47859714349187
42
0.41421356237313572
10
679.56082483549278
20
251.70836123357589
10
677.06588454567952
20
239.97059002477016
42
0.41421356237305429
0
LWPOLYLINE
5
274
100
AcDbEntity
8
0
100
AcDbPolyline
90
8
70
1
43
0.0
10
690.05995095595279
20
256.68982635332151
10
692.5548912457657
20
268.42759756212718
42
0.41421356237323387
10
691.78465533585018
20
269.61365685367883
10
680.04688412704411
20
272.10859714349192
42
0.41421356237320117
10
678.86082483549274
20
271.33836123357577
10
676.36588454567959
20
259.6005900247701
42
0.41421356237296425
10
677.13612045559557
20
258.41453073321861
10
688.8738916644013
20
255.91959044340564
42
0.41421356237326223
0
LWPOLYLINE
5
275
100
AcDbEntity
8
0
100
AcDbPolyline
90
8
70
1
43
0.0
10
812.2492525137859
20
243.2162469236836
10
812.24925251378613
20
231.2162469236836
42
0.4142135623730846
10
813.24925251378602
20
230.21624692368363
10
825.2492525137859
20
230.21624692368363
42
0.4142135623730534
10
826.24925251378602
20
231.21624692368357
10
826.24925251378556
20
243.2162469236836
42
0.41421356237318868
10
825.2492525137859
20
244.21624692368363
10
813.24925251378602
20
244.21624692368371
42
0.4142135623730222
0
LWPOLYLINE
5
276
100
AcDbEntity
8
0
100
AcDbPolyline
90
8
70
1
43
0.0
10
878.63800251378575
20
231.21624692368363
10
878.63800251378564
20
243.2162469236836
42
0.4142135623730846
10
877.63800251378586
20
244.21624692368366
10
865.63800251378575
20
244.21624692368363
42
0.41421356237307422
10
864.63800251378586
20
243.21624692368346
10
864.63800251378586
20
231.21624692368343
42
0.41421356237307422
10
865.63800251378575
20
230.21624692368334
10
877.63800251378598
20
230.21624692368363
42
0.41421356237299095
0
LWPOLYLINE
5
277
100
AcDbEntity
8
0
100
AcDbPolyline
90
8
70
1
43
0.0
10
869.19485251378592
20
225.11824692368361
10
857.19485251378592
20
225.11824692368361
42
0.41421356237294937
10
856.1948525137858
20
224.11824692368359
10
856.1948525137858
20
212.11824692368361
42
0.41421356237307422
10
857.19485251378592
20
211.11824692368359
10
869.19485251378592
20
211.11824692368367
42
0.41421356237318868
10
870.1948525137858
20
212.11824692368364
10
870.1948525137858
20
224.11824692368359
42
0.41421356237329271
0
LWPOLYLINE
5
278
100
AcDbEntity
8
0
100
AcDbPolyline
90
8
70
1
43
0.0
10
851.44425251378584
20
244.21624692368371
10
839.44425251378573
20
244.21624692368366
42
0.4142135623732095
10
838.44425251378584
20
243.2162469236836
10
838.44425251378595
20
231.2162469236836
42
0.41421356237307422
10
839.44425251378573
20
230.21624692368363
10
851.44425251378584
20
230.21624692368366
42
0.4142135623731783
10
852.44425251378573
20
231.2162469236836
10
852.44425251378573
20
243.2162469236836
42
0.4142135623730846
0
LWPOLYLINE
5
279
100
AcDbEntity
8
0
100
AcDbPolyline
90
8
70
1
43
0.0
10
790.10881557401592
20
222.9905143638108
42
0.41421356237303608
10
788.92275628246409
20
223.76075027372684
10
777.18498507365837
20
221.26580998391358
42
0.41421356237305218
10
776.4147491637425
20
220.0797506923621
10
778.90968945355553
20
208.34197948355643
42
0.41421356237324186
10
780.09574874510702
20
207.57174357364028
10
791.83351995391308
20
210.06668386345365
42
0.41421356237296858
10
792.60375586382906
20
211.25274315500519
0
LWPOLYLINE
5
280
100
AcDbEntity
8
0
100
AcDbPolyline
90
8
70
1
43
0.0
10
657.65646807644339
20
223.60102586356217
42
0.41421356237307039
10
658.84252736799476
20
224.3712617734781
10
661.33746765780802
20
236.10903298228376
42
0.41421356237303181
10
660.56723174789181
20
237.29509227383545
10
648.82946053908631
20
239.79003256364848
42
0.41421356237304197
10
647.6434012475346
20
239.01979665373247
10
645.14846095772145
20
227.28202544492683
42
0.41421356237309503
10
645.91869686763744
20
226.095966153375
0
LWPOLYLINE
5
281
100
AcDbEntity
8
0
100
AcDbPolyline
90
8
70
1
43
0.0
10
715.70361378180553
20
228.18759756212714
10
718.19855407161867
20
216.44982635332141
42
0.41421356237310308
10
719.38461336317016
20
215.67959044340535
10
731.122384571976
20
218.17453073321849
42
0.41421356237318296
10
731.8926204818921
20
219.36059002477009
10
729.39768019207906
20
231.09836123357579
42
0.41421356237303764
10
728.21162090052724
20
231.86859714349185
10
716.47384969172151
20
229.37365685367854
42
0.41421356237321783
0
ARC
5
282
100
AcDbEntity
8
0
100
AcDbCircle
10
650.58526105653061
20
222.49697707484202
30
0
40
0.99999999999991307
100
AcDbArc
50
78.000001373203006
51
168.00000000000634
0
ARC
5
283
100
AcDbEntity
8
0
100
AcDbCircle
10
671.67333415500354
20
214.6919618069706
30
0
40
0.50000000000012268
100
AcDbArc
50
78.000000000026589
51
167.99999999999292
0
ARC
5
284
100
AcDbEntity
8
0
100
AcDbCircle
10
671.91787105518642
20
214.63998388426614
30
0
40
0.50000000000028899
100
AcDbArc
50
-11.999999999972538
51
77.99999999997695
0
ARC
5
285
100
AcDbEntity
8
0
100
AcDbCircle
10
657.00111816172148
20
217.81063759058253
30
0
40
0.5000000000001501
100
AcDbArc
50
-11.999999999975234
51
77.999999999989029
0
LINE
5
286
100
AcDbEntity
8
0
100
AcDbLine
10
840.80925248980691
20
266.76624694765047
30
0
11
870.30925451637859
21
266.76624765467284
31
0
0
LINE
5
287
100
AcDbEntity
8
0
100
AcDbLine
10
864.25425253776461
20
283.8662468997166
30
0
11
834.75425051119305
21
283.86624619269435
31
0
0
ARC
5
288
100
AcDbEntity
8
0
100
AcDbCircle
10
855.50424905671571
20
300.3662469236827
30
0
40
1.0000034570700223
100
AcDbArc
50
0
51
89.999801924462773
0
ARC
5
289
100
AcDbEntity
8
0
100
AcDbCircle
10
843.50425048722911
20
300.36624692368275
30
0
40
1.0000000000028493
100
AcDbArc
50
89.999883886842738
51
180
0
LINE
5
290
100
AcDbEntity
8
0
100
AcDbLine
10
840.25425048722639
20
303.36624616872757
30
0
11
834.75425048722627
21
303.36624616872763
31
0
0
ARC
5
291
100
AcDbEntity
8
0
100
AcDbCircle
10
840.25425048722673
20
302.3662461687278
30
0
40
0.99999999999965894
100
AcDbArc
50
0
51
90.00000000001954
0
LINE
5
292
100
AcDbEntity
8
0
100
AcDbLine
10
855.50425251378601
20
301.36624692368355
30
0
11
843.50425251378601
21
301.36624692368355
31
0
0
LINE
5
293
100
AcDbEntity
8
0
100
AcDbLine
10
848.05925251378585
20
263.01624692368358
30
0
11
847.8092525137854
21
263.01624692368358
31
0
0
LINE
5
294
100
AcDbEntity
8
0
100
AcDbLine
10
650.79317272390517
20
223.47512468055874
30
0
11
679.64852907483703
21
217.34173007165907
31
0
0
LWPOLYLINE
5
295
100
AcDbEntity
8
0
100
AcDbPolyline
90
8
70
1
43
0.0
10
683.18612045559564
20
218.17453073321857
10
694.92389166440137
20
215.6795904434054
42
0.41421356237310952
10
696.10995095595297
20
216.44982635332158
10
698.60489124576588
20
228.18759756212725
42
0.41421356237292939
10
697.83465533584956
20
229.37365685367882
10
686.09688412704418
20
231.86859714349191
42
0.41421356237325641
10
684.9108248354928
20
231.09836123357587
10
682.41588454567989
20
219.36059002477009
42
0.41421356237307905
0
LINE
5
296
100
AcDbEntity
8
0
100
AcDbLine
10
863.80925454034525
20
262.51624692368352
30
0
11
863.80925454034536
21
248.26624767863933
31
0
0
LINE
5
297
100
AcDbEntity
8
0
100
AcDbLine
10
864.80925454034536
20
247.26624767863967
30
0
11
870.30925454034548
21
247.26624767863962
31
0
0
LINE
5
298
100
AcDbEntity
8
0
100
AcDbLine
10
847.30925251377448
20
248.26624692368341
30
0
11
847.3092525137854
21
262.51624692368398
31
0
0
LINE
5
299
100
AcDbEntity
8
0
100
AcDbLine
10
849.55925251378574
20
249.26624692368361
30
0
11
861.55925251378574
21
249.26624692368361
31
0
0
LINE
5
300
100
AcDbEntity
8
0
100
AcDbLine
10
846.30925251377448
20
247.26624692368361
30
0
11
840.80925251377357
21
247.26624692368352
31
0
0
LINE
5
301
100
AcDbEntity
8
0
100
AcDbLine
10
848.55925251378585
20
250.26624692368446
30
0
11
848.55925251378585
21
262.51624692368358
31
0
0
LINE
5
302
100
AcDbEntity
8
0
100
AcDbLine
10
657.1050740071305
20
218.29971139094962
30
0
11
656.86053710694682
21
218.35168931365413
31
0
0
LINE
5
303
100
AcDbEntity
8
0
100
AcDbLine
10
862.55925454034536
20
250.26624692368441
30
0
11
862.55925454034525
21
262.51624692368352
31
0
0
LINE
5
304
100
AcDbEntity
8
0
100
AcDbLine
10
871.30925454034525
20
248.26624767863976
30
0
11
871.30925454034525
21
265.76624765467272
31
0
0
LINE
5
305
100
AcDbEntity
8
0
100
AcDbLine
10
839.80925251377346
20
248.26624692368335
30
0
11
839.8092525137738
21
265.76624694765053
31
0
0
LINE
5
306
100
AcDbEntity
8
0
100
AcDbLine
10
654.94327374957129
20
205.72437363618474
30
0
11
657.4901919620886
21
217.70668174517382
31
0
0
LINE
5
307
100
AcDbEntity
8
0
100
AcDbLine
10
670.21443932828083
20
199.41136617530762
30
0
11
675.59425113231669
21
198.26785187581004
31
0
0
LWPOLYLINE
5
308
100
AcDbEntity
8
0
100
AcDbPolyline
90
8
70
1
43
0.0
10
700.64552866416636
20
209.30063980805986
10
688.90775745536075
20
211.79558009787291
42
0.41421356237324619
10
687.72169816380892
20
211.02534418795696
10
685.22675787399589
20
199.28757297915126
42
0.41421356237326873
10
685.99699378391188
20
198.10151368759986
10
697.7347649927176
20
195.60657339778663
42
0.41421356237316259
10
698.9208242842692
20
196.37680930770284
10
701.41576457408223
20
208.11458051650834
42
0.41421356237328261
0
ARC
5
309
100
AcDbEntity
8
0
100
AcDbCircle
10
655.92142473183003
20
205.51646122660256
30
0
40
1.0000034570700822
100
AcDbArc
50
168.00000000005008
51
257.99980192447879
0
LINE
5
310
100
AcDbEntity
8
0
100
AcDbLine
10
652.11870657545569
20
203.25773213832562
30
0
11
646.73889477141881
21
204.40124643782349
31
0
0
ARC
5
311
100
AcDbEntity
8
0
100
AcDbCircle
10
646.94680646223662
20
205.37939403855702
30
0
40
1.000000000000155
100
AcDbArc
50
167.99999999998568
51
257.99999999999397
0
ARC
5
312
100
AcDbEntity
8
0
100
AcDbCircle
10
675.80216282313461
20
199.245999476544
30
0
40
1.000000000000195
100
AcDbArc
50
257.99999999999272
51
347.9999999999834
0
LINE
5
313
100
AcDbEntity
8
0
100
AcDbLine
10
668.637342142119
20
202.81360954339053
30
0
11
671.18426035463642
21
214.79591765237959
31
0
0
ARC
5
314
100
AcDbEntity
8
0
100
AcDbCircle
10
667.65919454138259
20
203.0215212342097
30
0
40
1.0000000000028466
100
AcDbArc
50
257.99988388683562
51
347.9999999999518
0
LINE
5
315
100
AcDbEntity
8
0
100
AcDbLine
10
653.30476586700695
20
204.02796804824101
30
0
11
656.26750746117091
21
217.96657135869651
31
0
0
LINE
5
316
100
AcDbEntity
8
0
100
AcDbLine
10
655.71350965948704
20
204.53831434463314
30
0
11
667.45128086829277
21
202.04337405481999
31
0
0
LINE
5
317
100
AcDbEntity
8
0
100
AcDbLine
10
676.78031042386806
20
199.03808778572602
30
0
11
680.41876500819615
21
216.15567077512449
31
0
0
LINE
5
318
100
AcDbEntity
8
0
100
AcDbLine
10
672.40694485555366
20
214.53602803885744
30
0
11
669.44420341836474
21
200.59742546685919
31
0
0
ARC
5
319
100
AcDbEntity
8
0
100
AcDbCircle
10
652.3266182662735
20
204.23587973905921
30
0
40
0.99999999999978317
100
AcDbArc
50
257.99999999999466
51
347.99999999997073
0
ARC
5
320
100
AcDbEntity
8
0
100
AcDbCircle
10
870.30925454034514
20
248.26624767863976
30
0
40
1.0000000000001563
100
AcDbArc
50
-89.99999999998046
51
0
0
ARC
5
321
100
AcDbEntity
8
0
100
AcDbCircle
10
670.42235101909807
20
200.38951377604121
30
0
40
0.99999999999958411
100
AcDbArc
50
167.99999999998207
51
258.00000000002649
0
ARC
5
322
100
AcDbEntity
8
0
100
AcDbCircle
10
679.44061740746201
20
216.36358246594227
30
0
40
1.0000000000002423
100
AcDbArc
50
-11.999999999997319
51
78.000001373178534
0
LINE
5
323
100
AcDbEntity
8
0
100
AcDbLine
10
645.96865886150272
20
205.58730572937506
30
0
11
649.60711345579671
21
222.70488876565969
31
0
0
ARC
5
324
100
AcDbEntity
8
0
100
AcDbCircle
10
846.3092525137746
20
248.26624692368341
30
0
40
0.99999999999980105
100
AcDbArc
50
-90.000000000006523
51
0
0
ARC
5
325
100
AcDbEntity
8
0
100
AcDbCircle
10
861.55925454034264
20
250.26624692368441
30
0
40
1.0000000000028493
100
AcDbArc
50
-90.000116113157262
51
0
0
ARC
5
326
100
AcDbEntity
8
0
100
AcDbCircle
10
849.55925597085582
20
250.26624692368446
30
0
40
1.0000034570700223
100
AcDbArc
50
180
51
269.99980192447583
0
LINE
5
327
100
AcDbEntity
8
0
100
AcDbLine
10
671.77729000041222
20
215.18103560733766
30
0
11
672.02182690059556
21
215.12905768463327
31
0
0
ARC
5
328
100
AcDbEntity
8
0
100
AcDbCircle
10
864.80925454034502
20
248.26624767863933
30
0
40
0.99999999999965894
100
AcDbArc
50
180
51
270.00000000001955
0
ARC
5
329
100
AcDbEntity
8
0
100
AcDbCircle
10
840.80925251377323
20
248.26624692368335
30
0
40
0.99999999999980105
100
AcDbArc
50
180
51
270.00000000001955
0
ENDSEC
0
SECTION
2
OBJECTS
0
DICTIONARY
5
C
100
AcDbDictionary
3
ACAD_GROUP
350
D
3
ACAD_MLINESTYLE
350
17
0
DICTIONARY
5
D
100
AcDbDictionary
0
DICTIONARY
5
1A
330
C
100
AcDbDictionary
0
DICTIONARY
5
17
100
AcDbDictionary
0
ENDSEC
0
EOF
