<?xml version="1.0" encoding="utf-8"?>
<!-- Generator: Adobe Illustrator 21.1.0, SVG Export Plug-In . SVG Version: 6.00 Build 0)  -->
<svg version="1.1" id="_x30_" xmlns="http://www.w3.org/2000/svg" xmlns:xlink="http://www.w3.org/1999/xlink" x="0px" y="0px"
	 viewBox="0 0 1020.5 1559.1" style="enable-background:new 0 0 1020.5 1559.1;" xml:space="preserve">
<style type="text/css">
	.st0{fill:none;stroke:#0000FF;stroke-width:0.7087;stroke-linecap:round;stroke-linejoin:round;stroke-miterlimit:10;}
</style>
<g id="LWPOLYLINE">
	<path class="st0" d="M118.3,98.9V50.6c0-2.3,1.9-4.3,4.3-4.3h101.2c0.8,0,1.4-0.6,1.4-1.4v-0.4c0-2.3,1.9-4.3,4.3-4.3
		c0,0,48.4,0,48.4,0c2,0,3.8,1.4,4.2,3.4c0.1,0.6,0.5,1,1.1,1.1c0,0,216.7,46.1,216.7,46.1c2.3,0.5,3.8,2.7,3.3,5
		c0,0-10.1,47.3-10.1,47.3c-0.5,2.3-2.7,3.8-5,3.3L467,142c-0.8-0.2-1.5,0.3-1.7,1.1l-10,47.3c-0.2,0.8,0.3,1.5,1.1,1.7l7.7,1.6
		c2.3,0.5,3.8,2.7,3.3,5c0,0-10,47.3-10,47.3c-0.2,0.8,0.3,1.5,1.1,1.7l20.8,4.4c2.3,0.5,3.8,2.7,3.3,5l-10,47.3
		c-0.2,0.8,0.3,1.5,1.1,1.7l20.3,4.3c2.3,0.5,3.8,2.7,3.3,5L487,362.7c-0.5,2.3-2.7,3.8-5,3.3c0,0-167.2-35.5-167.2-35.5
		c-0.6-0.1-1.3,0.2-1.6,0.8c-0.9,1.7-2.8,2.7-4.7,2.3l-73.7-15.7c-2.3-0.5-3.8-2.7-3.3-5l9.8-45.9c0.2-0.8-0.3-1.5-1.1-1.7
		c-0.1,0-0.2,0-0.3,0h-71.4c-0.8,0-1.4,0.6-1.4,1.4v48.3c0,2.3-1.9,4.3-4.3,4.3c0,0-75.4,0-75.4,0c-2.3,0-4.3-1.9-4.3-4.3V212.6
		c0-2.3,1.9-4.3,4.3-4.3h6.2c0.8,0,1.4-0.6,1.4-1.4c0,0,0-48.3,0-48.3c0-2.3,1.9-4.3,4.3-4.3h5.9c0.8,0,1.4-0.6,1.4-1.4
		c0,0,0-48.3,0-48.3c0-2.3,1.9-4.3,4.3-4.3h6.1C117.7,100.3,118.3,99.7,118.3,98.9z"/>
</g>
<g id="LWPOLYLINE_1_">
	<path class="st0" d="M501.9,148.7c-0.5-2.3,1-4.6,3.3-5c0,0,20.9-4.4,20.9-4.4c0.8-0.2,1.3-0.9,1.1-1.7l-10.1-47.3
		c-0.5-2.3,1-4.6,3.3-5c0,0,209.6-44.5,209.6-44.5c0.2,0,0.5-0.1,0.7-0.1c0,0,7.3-0.3,7.3-0.3c0.1,0,0.1,0,0.2,0h52.5
		c2.3,0,4.3,1.9,4.3,4.3v0.4c0,0.8,0.6,1.4,1.4,1.4h155.1c2.3,0,4.3,1.9,4.3,4.3v48.3c0,0.8,0.6,1.4,1.4,1.4h6.2
		c2.3,0,4.3,1.9,4.3,4.3v48.3c0,0.8,0.6,1.4,1.4,1.4h6.4c2.3,0,4.3,1.9,4.3,4.3v48.3c0,0.8,0.6,1.4,1.4,1.4h6.2
		c2.3,0,4.3,1.9,4.3,4.3v48.4c0,2.3-1.9,4.3-4.3,4.3h-4.7c-0.8,0-1.4,0.6-1.4,1.4v48.5c0,2.3-1.9,4.3-4.3,4.3h-75.4
		c-2.3,0-4.3-1.9-4.3-4.3v-48.5c0-0.8-0.6-1.4-1.4-1.4h-142c-0.8,0-1.4,0.6-1.4,1.4c0,0.1,0,0.2,0,0.3l9.8,45.9c0.5,2.3-1,4.6-3.3,5
		l-73.7,15.7c-1.9,0.4-3.8-0.5-4.7-2.3c-0.3-0.6-0.9-0.9-1.6-0.8l-141.4,30.1c-2.3,0.5-4.6-1-5-3.3l-21.3-100.1
		c-0.5-2.3,1-4.6,3.3-5c0,0,20.9-4.4,20.9-4.4c0.8-0.2,1.3-0.9,1.1-1.7l-10-47.2c-0.2-0.8-0.9-1.3-1.7-1.1l-7.7,1.6
		c-2.3,0.5-4.6-1-5-3.3C512,196,501.9,148.7,501.9,148.7z"/>
</g>
<g id="LINE">
	<line class="st0" x1="313.5" y1="330.2" x2="313.5" y2="330.2"/>
</g>
<g id="LINE_1_">
	<line class="st0" x1="282" y1="44.5" x2="282" y2="44.5"/>
</g>
<g id="LINE_2_">
	<line class="st0" x1="1004.3" y1="1143.6" x2="1004.3" y2="797.1"/>
</g>
<g id="ARC">
	<path class="st0" d="M1004.3,797.1c0-6.3-5.1-11.3-11.3-11.3"/>
</g>
<g id="LINE_3_">
	<line class="st0" x1="26.9" y1="1155" x2="992.9" y2="1155"/>
</g>
<g id="ARC_1_">
	<path class="st0" d="M992.9,1155c6.3,0,11.3-5.1,11.3-11.3"/>
</g>
<g id="LINE_4_">
	<line class="st0" x1="15.5" y1="797.1" x2="15.5" y2="1143.6"/>
</g>
<g id="ARC_2_">
	<path class="st0" d="M26.9,785.8c-6.3,0-11.3,5.1-11.3,11.3"/>
</g>
<g id="ARC_3_">
	<path class="st0" d="M15.5,1143.6c0,6.3,5.1,11.3,11.3,11.3"/>
</g>
<g id="LWPOLYLINE_2_">
	<path class="st0" d="M990,812.8c0-2.3-1.9-4.3-4.3-4.3H527.7c-1.6,0-2.8-1.3-2.8-2.8v-11.8c0-1.6-1.3-2.8-2.8-2.8h-0.2H498h-0.2
		c-1.6,0-2.8,1.3-2.8,2.8c0,0,0,11.8,0,11.8c0,1.6-1.3,2.8-2.8,2.8H35.5c-2.3,0-4.3,1.9-4.3,4.3v267.4c0,2.3,1.9,4.3,4.3,4.3h205.6
		c0.2,0,0.4,0,0.6,0.1l267.6,56.9c0.4,0.1,0.8,0.1,1.2,0c0,0,267.6-56.9,267.6-56.9c0.2,0,0.4-0.1,0.6-0.1h207
		c2.3,0,4.3-1.9,4.3-4.3C990,1080.2,990,812.8,990,812.8z"/>
</g>
<g id="CIRCLE">
	<path class="st0" d="M919.8,1248.7c0-2.7,2.2-5,5-5s5,2.2,5,5c0,2.7-2.2,5-5,5S919.8,1251.4,919.8,1248.7L919.8,1248.7z"/>
</g>
<g id="CIRCLE_1_">
	<path class="st0" d="M91.5,1248.7c0-2.7,2.2-5,5-5c2.7,0,5,2.2,5,5c0,2.7-2.2,5-5,5C93.7,1253.6,91.5,1251.4,91.5,1248.7
		L91.5,1248.7z"/>
</g>
<g id="ARC_4_">
	<path class="st0" d="M26.9,402.4c-6.3,0-11.3,5.1-11.3,11.3"/>
</g>
<g id="LINE_5_">
	<line class="st0" x1="15.5" y1="413.7" x2="15.5" y2="760.3"/>
</g>
<g id="ARC_5_">
	<path class="st0" d="M15.5,760.3c0,6.3,5.1,11.3,11.3,11.3"/>
</g>
<g id="LINE_6_">
	<line class="st0" x1="26.9" y1="771.6" x2="992.9" y2="771.6"/>
</g>
<g id="LINE_7_">
	<line class="st0" x1="1004.3" y1="760.3" x2="1004.3" y2="413.7"/>
</g>
<g id="ARC_6_">
	<path class="st0" d="M992.9,771.6c6.3,0,11.3-5.1,11.3-11.3"/>
</g>
<g id="ARC_7_">
	<path class="st0" d="M1004.3,413.7c0-6.3-5.1-11.3-11.3-11.3"/>
</g>
<g id="LWPOLYLINE_3_">
	<path class="st0" d="M15.5,30.3c0-6.3,5.1-11.3,11.3-11.3h966c6.3,0,11.3,5.1,11.3,11.3v346.5c0,6.3-5.1,11.3-11.3,11.3h-966
		c-6.3,0-11.3-5.1-11.3-11.3C15.5,376.9,15.5,30.3,15.5,30.3z"/>
</g>
<g id="LWPOLYLINE_4_">
	<path class="st0" d="M992.9,1538.4c6.3,0,11.3-5.1,11.3-11.3v-346.5c0-6.3-5.1-11.3-11.3-11.3h-966c-6.3,0-11.3,5.1-11.3,11.3V1527
		c0,6.3,5.1,11.3,11.3,11.3H992.9z"/>
</g>
<g id="LWPOLYLINE_5_">
	<path class="st0" d="M98.1,146.9c0,2.3-1.9,4.3-4.3,4.3H88c-0.8,0-1.4,0.6-1.4,1.4v48.3c0,2.3-1.9,4.3-4.3,4.3H34
		c-2.3,0-4.3-1.9-4.3-4.3c0,0,0-48.4,0-48.4c0-2.3,1.9-4.3,4.3-4.3h5.9c0.8,0,1.4-0.6,1.4-1.4V98.5c0-2.3,1.9-4.3,4.3-4.3h6.1
		c0.8,0,1.4-0.6,1.4-1.4c0,0,0-48.3,0-48.3c0-2.3,1.9-4.3,4.3-4.3h48.4c2.3,0,4.3,1.9,4.3,4.3v48.4c0,2.3-1.9,4.3-4.3,4.3h-6.1
		c-0.8,0-1.4,0.6-1.4,1.4C98.1,98.5,98.1,146.9,98.1,146.9z"/>
</g>
<g id="CIRCLE_2_">
	<path class="st0" d="M31.8,669.3c0-3.1,2.5-5.7,5.7-5.7s5.7,2.5,5.7,5.7c0,3.1-2.5,5.7-5.7,5.7S31.8,672.4,31.8,669.3L31.8,669.3z"
		/>
</g>
<g id="CIRCLE_3_">
	<path class="st0" d="M31.8,682c0-3.1,2.5-5.7,5.7-5.7s5.7,2.5,5.7,5.7c0,3.1-2.5,5.7-5.7,5.7S31.8,685.2,31.8,682L31.8,682z"/>
</g>
<g id="CIRCLE_4_">
	<path class="st0" d="M31.8,694.8c0-3.1,2.5-5.7,5.7-5.7s5.7,2.5,5.7,5.7s-2.5,5.7-5.7,5.7S31.8,697.9,31.8,694.8L31.8,694.8z"/>
</g>
<g id="LINE_8_">
	<line class="st0" x1="992.9" y1="402.4" x2="525.1" y2="402.4"/>
</g>
<g id="LINE_9_">
	<line class="st0" x1="494.7" y1="402.4" x2="26.9" y2="402.4"/>
</g>
<g id="ARC_8_">
	<path class="st0" d="M525.1,402.4c-0.8,0-1.4,0.6-1.4,1.4"/>
</g>
<g id="ARC_9_">
	<path class="st0" d="M496.2,403.8c0-0.8-0.6-1.4-1.4-1.4"/>
</g>
<g id="ARC_10_">
	<path class="st0" d="M496.2,432.9c0,0.8,0.6,1.4,1.4,1.4"/>
</g>
<g id="ARC_11_">
	<path class="st0" d="M522.2,434.3c0.8,0,1.4-0.6,1.4-1.4"/>
</g>
<g id="LINE_10_">
	<line class="st0" x1="496.2" y1="403.8" x2="496.2" y2="432.9"/>
</g>
<g id="LINE_11_">
	<line class="st0" x1="497.6" y1="434.3" x2="522.2" y2="434.3"/>
</g>
<g id="LINE_12_">
	<line class="st0" x1="523.7" y1="432.9" x2="523.7" y2="403.8"/>
</g>
<g id="LINE_13_">
	<line class="st0" x1="525.1" y1="785.8" x2="992.9" y2="785.8"/>
</g>
<g id="LINE_14_">
	<line class="st0" x1="494.7" y1="785.8" x2="26.9" y2="785.8"/>
</g>
<g id="ARC_12_">
	<path class="st0" d="M496.2,787.2c0-0.8-0.6-1.4-1.4-1.4"/>
</g>
<g id="ARC_13_">
	<path class="st0" d="M525.1,785.8c-0.8,0-1.4,0.6-1.4,1.4"/>
</g>
<g id="LINE_15_">
	<line class="st0" x1="496.2" y1="787.2" x2="523.7" y2="787.2"/>
</g>
<g id="CIRCLE_5_">
	<path class="st0" d="M662,33.2c0-2.7,2.2-5,5-5c2.7,0,5,2.2,5,5s-2.2,5-5,5C664.2,38.1,662,35.9,662,33.2L662,33.2z"/>
</g>
<g id="CIRCLE_6_">
	<path class="st0" d="M347.9,33.2c0-2.7,2.2-5,5-5s5,2.2,5,5s-2.2,5-5,5S347.9,35.9,347.9,33.2L347.9,33.2z"/>
</g>
<g id="CIRCLE_7_">
	<path class="st0" d="M347.9,374c0-2.7,2.2-5,5-5s5,2.2,5,5c0,2.7-2.2,5-5,5S347.9,376.8,347.9,374L347.9,374z"/>
</g>
<g id="CIRCLE_8_">
	<path class="st0" d="M662,374c0-2.7,2.2-5,5-5s5,2.2,5,5c0,2.7-2.2,5-5,5S662,376.8,662,374L662,374z"/>
</g>
<g id="CIRCLE_9_">
	<path class="st0" d="M985.1,374c0-2.7,2.2-5,5-5s5,2.2,5,5c0,2.7-2.2,5-5,5S985.1,376.8,985.1,374L985.1,374z"/>
</g>
<g id="CIRCLE_10_">
	<path class="st0" d="M24.8,374c0-2.7,2.2-5,5-5s5,2.2,5,5c0,2.7-2.2,5-5,5S24.8,376.8,24.8,374L24.8,374z"/>
</g>
<g id="CIRCLE_11_">
	<path class="st0" d="M24.8,33.2c0-2.7,2.2-5,5-5s5,2.2,5,5s-2.2,5-5,5S24.8,35.9,24.8,33.2L24.8,33.2z"/>
</g>
<g id="CIRCLE_12_">
	<path class="st0" d="M985.1,33.2c0-2.7,2.2-5,5-5s5,2.2,5,5s-2.2,5-5,5S985.1,35.9,985.1,33.2L985.1,33.2z"/>
</g>
<g id="CIRCLE_13_">
	<path class="st0" d="M662,416.6c0-2.7,2.2-5,5-5s5,2.2,5,5s-2.2,5-5,5S662,419.3,662,416.6L662,416.6z"/>
</g>
<g id="CIRCLE_14_">
	<path class="st0" d="M347.9,416.6c0-2.7,2.2-5,5-5s5,2.2,5,5s-2.2,5-5,5S347.9,419.3,347.9,416.6L347.9,416.6z"/>
</g>
<g id="CIRCLE_15_">
	<path class="st0" d="M985.1,416.6c0-2.7,2.2-5,5-5s5,2.2,5,5s-2.2,5-5,5S985.1,419.3,985.1,416.6L985.1,416.6z"/>
</g>
<g id="CIRCLE_16_">
	<path class="st0" d="M24.8,416.6c0-2.7,2.2-5,5-5s5,2.2,5,5s-2.2,5-5,5S24.8,419.3,24.8,416.6L24.8,416.6z"/>
</g>
<g id="CIRCLE_17_">
	<path class="st0" d="M24.8,757.4c0-2.7,2.2-5,5-5s5,2.2,5,5s-2.2,5-5,5S24.8,760.2,24.8,757.4L24.8,757.4z"/>
</g>
<g id="CIRCLE_18_">
	<path class="st0" d="M347.9,757.4c0-2.7,2.2-5,5-5s5,2.2,5,5s-2.2,5-5,5S347.9,760.2,347.9,757.4L347.9,757.4z"/>
</g>
<g id="CIRCLE_19_">
	<path class="st0" d="M662,757.4c0-2.7,2.2-5,5-5s5,2.2,5,5s-2.2,5-5,5S662,760.2,662,757.4L662,757.4z"/>
</g>
<g id="CIRCLE_20_">
	<path class="st0" d="M985.1,757.4c0-2.7,2.2-5,5-5s5,2.2,5,5s-2.2,5-5,5S985.1,760.2,985.1,757.4L985.1,757.4z"/>
</g>
<g id="CIRCLE_21_">
	<path class="st0" d="M662,799.9c0-2.7,2.2-5,5-5s5,2.2,5,5s-2.2,5-5,5S662,802.7,662,799.9L662,799.9z"/>
</g>
<g id="CIRCLE_22_">
	<path class="st0" d="M347.9,799.9c0-2.7,2.2-5,5-5s5,2.2,5,5s-2.2,5-5,5S347.9,802.7,347.9,799.9L347.9,799.9z"/>
</g>
<g id="CIRCLE_23_">
	<path class="st0" d="M985.1,799.9c0-2.7,2.2-5,5-5s5,2.2,5,5s-2.2,5-5,5S985.1,802.7,985.1,799.9L985.1,799.9z"/>
</g>
<g id="CIRCLE_24_">
	<path class="st0" d="M24.8,799.9c0-2.7,2.2-5,5-5s5,2.2,5,5s-2.2,5-5,5S24.8,802.7,24.8,799.9L24.8,799.9z"/>
</g>
<g id="CIRCLE_25_">
	<path class="st0" d="M24.8,1140.8c0-2.7,2.2-5,5-5s5,2.2,5,5c0,2.7-2.2,5-5,5S24.8,1143.6,24.8,1140.8L24.8,1140.8z"/>
</g>
<g id="CIRCLE_26_">
	<path class="st0" d="M347.9,1140.8c0-2.7,2.2-5,5-5s5,2.2,5,5c0,2.7-2.2,5-5,5S347.9,1143.6,347.9,1140.8L347.9,1140.8z"/>
</g>
<g id="CIRCLE_27_">
	<path class="st0" d="M662,1140.8c0-2.7,2.2-5,5-5s5,2.2,5,5c0,2.7-2.2,5-5,5S662,1143.6,662,1140.8L662,1140.8z"/>
</g>
<g id="CIRCLE_28_">
	<path class="st0" d="M985.1,1140.8c0-2.7,2.2-5,5-5s5,2.2,5,5c0,2.7-2.2,5-5,5S985.1,1143.6,985.1,1140.8L985.1,1140.8z"/>
</g>
<g id="CIRCLE_29_">
	<path class="st0" d="M663.4,1183.3c0-2,1.6-3.5,3.5-3.5s3.5,1.6,3.5,3.5s-1.6,3.5-3.5,3.5S663.4,1185.3,663.4,1183.3L663.4,1183.3z
		"/>
</g>
<g id="CIRCLE_30_">
	<path class="st0" d="M349.3,1183.3c0-2,1.6-3.5,3.5-3.5s3.5,1.6,3.5,3.5s-1.6,3.5-3.5,3.5S349.3,1185.3,349.3,1183.3L349.3,1183.3z
		"/>
</g>
<g id="CIRCLE_31_">
	<path class="st0" d="M986.6,1183.3c0-2,1.6-3.5,3.5-3.5s3.5,1.6,3.5,3.5s-1.6,3.5-3.5,3.5S986.6,1185.3,986.6,1183.3L986.6,1183.3z
		"/>
</g>
<g id="CIRCLE_32_">
	<path class="st0" d="M26.2,1183.3c0-2,1.6-3.5,3.5-3.5s3.5,1.6,3.5,3.5s-1.6,3.5-3.5,3.5S26.2,1185.3,26.2,1183.3L26.2,1183.3z"/>
</g>
<g id="CIRCLE_33_">
	<path class="st0" d="M26.2,1524.2c0-2,1.6-3.5,3.5-3.5s3.5,1.6,3.5,3.5s-1.6,3.5-3.5,3.5S26.2,1526.2,26.2,1524.2L26.2,1524.2z"/>
</g>
<g id="CIRCLE_34_">
	<path class="st0" d="M349.3,1524.2c0-2,1.6-3.5,3.5-3.5s3.5,1.6,3.5,3.5s-1.6,3.5-3.5,3.5S349.3,1526.2,349.3,1524.2L349.3,1524.2z
		"/>
</g>
<g id="CIRCLE_35_">
	<path class="st0" d="M663.4,1524.2c0-2,1.6-3.5,3.5-3.5c2,0,3.5,1.6,3.5,3.5s-1.6,3.5-3.5,3.5
		C665,1527.7,663.4,1526.2,663.4,1524.2L663.4,1524.2z"/>
</g>
<g id="CIRCLE_36_">
	<path class="st0" d="M986.6,1524.2c0-2,1.6-3.5,3.5-3.5s3.5,1.6,3.5,3.5s-1.6,3.5-3.5,3.5S986.6,1526.2,986.6,1524.2L986.6,1524.2z
		"/>
</g>
<g id="LINE_16_">
	<line class="st0" x1="125.5" y1="603.1" x2="125.5" y2="637.9"/>
</g>
<g id="LWPOLYLINE_6_">
	<path class="st0" d="M290.9,479.2l33.3,7.1c1.5,0.3,3-0.7,3.4-2.2l7.1-33.3c0.3-1.5-0.7-3-2.2-3.4l-33.3-7.1
		c-1.5-0.3-3,0.7-3.4,2.2c0,0-7.1,33.3-7.1,33.3C288.4,477.3,289.4,478.9,290.9,479.2z"/>
</g>
<g id="LWPOLYLINE_7_">
	<path class="st0" d="M101.3,435.1c0-1.6-1.3-2.8-2.8-2.8h-34c-1.6,0-2.8,1.3-2.8,2.8v34c0,1.6,1.3,2.8,2.8,2.8h34
		c1.6,0,2.8-1.3,2.8-2.8C101.3,469.1,101.3,435.1,101.3,435.1z"/>
</g>
<g id="LWPOLYLINE_8_">
	<path class="st0" d="M261.5,487.6c-1.5-0.3-3,0.7-3.4,2.2l-7.1,33.3c-0.3,1.5,0.7,3,2.2,3.4l33.3,7.1c1.5,0.3,3-0.7,3.4-2.2
		L297,498c0.3-1.5-0.7-3-2.2-3.4C294.8,494.6,261.5,487.6,261.5,487.6z"/>
</g>
<g id="LWPOLYLINE_9_">
	<path class="st0" d="M86.7,525.9c1.6,0,2.8-1.3,2.8-2.8c0,0,0-34,0-34c0-1.6-1.3-2.8-2.8-2.8c0,0-34,0-34,0c-1.6,0-2.8,1.3-2.8,2.8
		v34c0,1.6,1.3,2.8,2.8,2.8H86.7z"/>
</g>
<g id="ARC_14_">
	<path class="st0" d="M103.5,594.6c-1.6,0-2.8,1.3-2.8,2.8"/>
</g>
<g id="LWPOLYLINE_10_">
	<path class="st0" d="M237.8,583.2v-34c0-1.6-1.3-2.8-2.8-2.8h-34c-1.6,0-2.8,1.3-2.8,2.8v34c0,1.6,1.3,2.8,2.8,2.8h34
		C236.5,586,237.8,584.7,237.8,583.2z"/>
</g>
<g id="ARC_15_">
	<path class="st0" d="M100.7,647.1c0,1.6,1.3,2.8,2.8,2.8"/>
</g>
<g id="LINE_17_">
	<line class="st0" x1="124.1" y1="639.3" x2="123.4" y2="639.3"/>
</g>
<g id="LWPOLYLINE_11_">
	<path class="st0" d="M235.8,529.2v-34c0-1.6-1.3-2.8-2.8-2.8h-34c-1.6,0-2.8,1.3-2.8,2.8c0,0,0,34,0,34c0,1.6,1.3,2.8,2.8,2.8h34
		C234.5,532,235.8,530.7,235.8,529.2z"/>
</g>
<g id="LWPOLYLINE_12_">
	<path class="st0" d="M273.4,469.1v-34c0-1.6-1.3-2.8-2.8-2.8h-34c-1.6,0-2.8,1.3-2.8,2.8v34c0,1.6,1.3,2.8,2.8,2.8h34
		C272.1,471.9,273.4,470.7,273.4,469.1z"/>
</g>
<g id="LWPOLYLINE_13_">
	<path class="st0" d="M303.9,534.2c-0.3,1.5,0.7,3,2.2,3.4c0,0,33.3,7.1,33.3,7.1c1.5,0.3,3-0.7,3.4-2.2l7.1-33.3
		c0.3-1.5-0.7-3-2.2-3.4c0,0-33.3-7.1-33.3-7.1c-1.5-0.3-3,0.7-3.4,2.2C311,501,303.9,534.2,303.9,534.2z"/>
</g>
<g id="LINE_18_">
	<line class="st0" x1="100.7" y1="597.5" x2="100.7" y2="647.1"/>
</g>
<g id="LINE_19_">
	<line class="st0" x1="122" y1="637.9" x2="122" y2="597.5"/>
</g>
<g id="LWPOLYLINE_14_">
	<path class="st0" d="M263.5,543.2c-1.5-0.3-3,0.7-3.4,2.2c0,0-7.1,33.3-7.1,33.3c-0.3,1.5,0.7,3,2.2,3.4l33.3,7.1
		c1.5,0.3,3-0.7,3.4-2.2c0,0,7.1-33.3,7.1-33.3c0.3-1.5-0.7-3-2.2-3.4C296.8,550.3,263.5,543.2,263.5,543.2z"/>
</g>
<g id="LWPOLYLINE_15_">
	<path class="st0" d="M38.3,577.1c0,1.6,1.3,2.8,2.8,2.8c0,0,34,0,34,0c1.6,0,2.8-1.3,2.8-2.8v-34c0-1.6-1.3-2.8-2.8-2.8h-34
		c-1.6,0-2.8,1.3-2.8,2.8V577.1z"/>
</g>
<g id="LWPOLYLINE_16_">
	<path class="st0" d="M110.3,583.2c0,1.6,1.3,2.8,2.8,2.8h34c1.6,0,2.8-1.3,2.8-2.8v-34c0-1.6-1.3-2.8-2.8-2.8h-34
		c-1.6,0-2.8,1.3-2.8,2.8C110.3,549.1,110.3,583.2,110.3,583.2z"/>
</g>
<g id="LWPOLYLINE_17_">
	<path class="st0" d="M316.3,554.4c-1.5-0.3-3,0.7-3.4,2.2c0,0-7.1,33.3-7.1,33.3c-0.3,1.5,0.7,3,2.2,3.4l33.3,7.1
		c1.5,0.3,3-0.7,3.4-2.2c0,0,7.1-33.3,7.1-33.3c0.3-1.5-0.7-3-2.2-3.4C349.6,561.5,316.3,554.4,316.3,554.4z"/>
</g>
<g id="LINE_20_">
	<line class="st0" x1="119.1" y1="594.6" x2="103.5" y2="594.6"/>
</g>
<g id="LWPOLYLINE_18_">
	<path class="st0" d="M108.1,654.3c-1.6,0-2.8,1.3-2.8,2.8v34c0,1.6,1.3,2.8,2.8,2.8h34c1.6,0,2.8-1.3,2.8-2.8v-34
		c0-1.6-1.3-2.8-2.8-2.8H108.1z"/>
</g>
<g id="ARC_16_">
	<path class="st0" d="M920.2,475.9c0,0.8,0.6,1.4,1.4,1.4"/>
</g>
<g id="LWPOLYLINE_19_">
	<path class="st0" d="M608.3,554.4c1.5-0.3,2.5-1.8,2.2-3.4c0,0-7.1-33.3-7.1-33.3c-0.3-1.5-1.8-2.5-3.4-2.2l-33.3,7.1
		c-1.5,0.3-2.5,1.8-2.2,3.4c0,0,7.1,33.3,7.1,33.3c0.3,1.5,1.8,2.5,3.4,2.2L608.3,554.4z"/>
</g>
<g id="LWPOLYLINE_20_">
	<path class="st0" d="M183.7,438.3c-1.6,0-2.8,1.3-2.8,2.8v34c0,1.6,1.3,2.8,2.8,2.8c0,0,34,0,34,0c1.6,0,2.8-1.3,2.8-2.8v-34
		c0-1.6-1.3-2.8-2.8-2.8H183.7z"/>
</g>
<g id="LWPOLYLINE_21_">
	<path class="st0" d="M385.3,458.7l-33.3-7.1c-1.5-0.3-3,0.7-3.4,2.2l-7.1,33.3c-0.3,1.5,0.7,3,2.2,3.4l33.3,7.1
		c1.5,0.3,3-0.7,3.4-2.2c0,0,7.1-33.3,7.1-33.3C387.8,460.5,386.8,459,385.3,458.7z"/>
</g>
<g id="LWPOLYLINE_22_">
	<path class="st0" d="M619.6,511.5c-1.5,0.3-2.5,1.8-2.2,3.4c0,0,7.1,33.3,7.1,33.3c0.3,1.5,1.8,2.5,3.4,2.2c0,0,33.3-7.1,33.3-7.1
		c1.5-0.3,2.5-1.8,2.2-3.4c0,0-7.1-33.3-7.1-33.3c-0.3-1.5-1.8-2.5-3.4-2.2C652.9,504.4,619.6,511.5,619.6,511.5z"/>
</g>
<g id="ARC_17_">
	<path class="st0" d="M122,637.9c0,0.8,0.6,1.4,1.4,1.4"/>
</g>
<g id="LWPOLYLINE_23_">
	<path class="st0" d="M639.7,489.7c0.3,1.5,1.8,2.5,3.4,2.2c0,0,33.3-7.1,33.3-7.1c1.5-0.3,2.5-1.8,2.2-3.4l-7.1-33.3
		c-0.3-1.5-1.8-2.5-3.4-2.2c0,0-33.3,7.1-33.3,7.1c-1.5,0.3-2.5,1.8-2.2,3.4C632.7,456.4,639.7,489.7,639.7,489.7z"/>
</g>
<g id="LWPOLYLINE_24_">
	<path class="st0" d="M129.7,438.3c-1.6,0-2.8,1.3-2.8,2.8v34c0,1.6,1.3,2.8,2.8,2.8h34c1.6,0,2.8-1.3,2.8-2.8v-34
		c0-1.6-1.3-2.8-2.8-2.8H129.7z"/>
</g>
<g id="LWPOLYLINE_25_">
	<path class="st0" d="M582,464.3c-1.5,0.3-2.5,1.8-2.2,3.4l7.1,33.3c0.3,1.5,1.8,2.5,3.4,2.2c0,0,33.3-7.1,33.3-7.1
		c1.5-0.3,2.5-1.8,2.2-3.4l-7.1-33.3c-0.3-1.5-1.8-2.5-3.4-2.2C615.3,457.2,582,464.3,582,464.3z"/>
</g>
<g id="LWPOLYLINE_26_">
	<path class="st0" d="M677.4,536.9c0.3,1.5,1.8,2.5,3.4,2.2c0,0,33.3-7.1,33.3-7.1c1.5-0.3,2.5-1.8,2.2-3.4l-7.1-33.3
		c-0.3-1.5-1.8-2.5-3.4-2.2l-33.3,7.1c-1.5,0.3-2.5,1.8-2.2,3.4C670.3,503.6,677.4,536.9,677.4,536.9z"/>
</g>
<g id="LWPOLYLINE_27_">
	<path class="st0" d="M570.7,507.2c1.5-0.3,2.5-1.8,2.2-3.4l-7.1-33.3c-0.3-1.5-1.8-2.5-3.4-2.2c0,0-33.3,7.1-33.3,7.1
		c-1.5,0.3-2.5,1.8-2.2,3.4c0,0,7.1,33.3,7.1,33.3c0.3,1.5,1.8,2.5,3.4,2.2C537.4,514.3,570.7,507.2,570.7,507.2z"/>
</g>
<g id="ARC_18_">
	<path class="st0" d="M165.2,637.9c0,0.8,0.6,1.4,1.4,1.4"/>
</g>
<g id="LINE_21_">
	<line class="st0" x1="187.2" y1="649.9" x2="103.5" y2="649.9"/>
</g>
<g id="LWPOLYLINE_28_">
	<path class="st0" d="M401.4,465l-7.1,33.3c-0.3,1.5,0.7,3,2.2,3.4l33.3,7.1c1.5,0.3,3-0.7,3.4-2.2c0,0,7.1-33.3,7.1-33.3
		c0.3-1.5-0.7-3-2.2-3.4l-33.3-7.1C403.3,462.5,401.8,463.5,401.4,465z"/>
</g>
<g id="LWPOLYLINE_29_">
	<path class="st0" d="M369.2,565.7c-1.5-0.3-3,0.7-3.4,2.2l-7.1,33.3c-0.3,1.5,0.7,3,2.2,3.4l33.3,7.1c1.5,0.3,3-0.7,3.4-2.2
		l7.1-33.3c0.3-1.5-0.7-3-2.2-3.4L369.2,565.7z"/>
</g>
<g id="ARC_19_">
	<path class="st0" d="M167.3,639.3c0.8,0,1.4-0.6,1.4-1.4"/>
</g>
<g id="LWPOLYLINE_30_">
	<path class="st0" d="M392.2,555.9c1.5,0.3,3-0.7,3.4-2.2l7.1-33.3c0.3-1.5-0.7-3-2.2-3.4c0,0-33.3-7.1-33.3-7.1
		c-1.5-0.3-3,0.7-3.4,2.2c0,0-7.1,33.3-7.1,33.3c-0.3,1.5,0.7,3,2.2,3.4C358.9,548.8,392.2,555.9,392.2,555.9z"/>
</g>
<g id="LWPOLYLINE_31_">
	<path class="st0" d="M555.5,565.7c1.5-0.3,2.5-1.8,2.2-3.4l-7.1-33.3c-0.3-1.5-1.8-2.5-3.4-2.2c0,0-33.3,7.1-33.3,7.1
		c-1.5,0.3-2.5,1.8-2.2,3.4c0,0,7.1,33.3,7.1,33.3c0.3,1.5,1.8,2.5,3.4,2.2C522.3,572.7,555.5,565.7,555.5,565.7z"/>
</g>
<g id="LINE_22_">
	<line class="st0" x1="162.4" y1="600.3" x2="128.3" y2="600.3"/>
</g>
<g id="LWPOLYLINE_32_">
	<path class="st0" d="M213.2,603.1v34c0,1.6,1.3,2.8,2.8,2.8h34c1.6,0,2.8-1.3,2.8-2.8v-34c0-1.6-1.3-2.8-2.8-2.8h-34
		C214.5,600.3,213.2,601.6,213.2,603.1z"/>
</g>
<g id="LINE_23_">
	<line class="st0" x1="168.7" y1="597.5" x2="168.7" y2="637.9"/>
</g>
<g id="LWPOLYLINE_33_">
	<path class="st0" d="M131.4,532h34c1.6,0,2.8-1.3,2.8-2.8v-34c0-1.6-1.3-2.8-2.8-2.8h-34c-1.6,0-2.8,1.3-2.8,2.8c0,0,0,34,0,34
		C128.6,530.7,129.9,532,131.4,532z"/>
</g>
<g id="LINE_24_">
	<line class="st0" x1="190" y1="597.5" x2="190" y2="647.1"/>
</g>
<g id="LINE_25_">
	<line class="st0" x1="165.2" y1="603.1" x2="165.2" y2="637.9"/>
</g>
<g id="ARC_20_">
	<path class="st0" d="M165.2,603.1c0-1.6-1.3-2.8-2.8-2.8"/>
</g>
<g id="ARC_21_">
	<path class="st0" d="M187.2,649.9c1.6,0,2.8-1.3,2.8-2.8"/>
</g>
<g id="ARC_22_">
	<path class="st0" d="M190,597.5c0-1.6-1.3-2.8-2.8-2.8"/>
</g>
<g id="ARC_23_">
	<path class="st0" d="M124.1,639.3c0.8,0,1.4-0.6,1.4-1.4"/>
</g>
<g id="LINE_26_">
	<line class="st0" x1="166.6" y1="639.3" x2="167.3" y2="639.3"/>
</g>
<g id="ARC_24_">
	<path class="st0" d="M171.6,594.6c-1.6,0-2.8,1.3-2.8,2.8"/>
</g>
<g id="LINE_27_">
	<line class="st0" x1="171.6" y1="594.6" x2="187.2" y2="594.6"/>
</g>
<g id="ARC_25_">
	<path class="st0" d="M128.3,600.3c-1.6,0-2.8,1.3-2.8,2.8"/>
</g>
<g id="ARC_26_">
	<path class="st0" d="M122,597.5c0-1.6-1.3-2.8-2.8-2.8"/>
</g>
<g id="LWPOLYLINE_34_">
	<path class="st0" d="M622.3,717.1c1.5-0.3,2.5-1.8,2.2-3.4c0,0-7.2-34-7.2-34c-0.2-0.8,0.3-1.5,1.1-1.7l0.7-0.1
		c0.8-0.2,1.5,0.3,1.7,1.1c0,0,8.4,39.5,8.4,39.5c0.3,1.5,1.8,2.5,3.4,2.2c0,0,15.2-3.2,15.2-3.2c1.5-0.3,2.5-1.8,2.2-3.4
		l-10.3-48.5c-0.3-1.5-1.8-2.5-3.4-2.2c0,0-81.8,17.4-81.8,17.4c-1.5,0.3-2.5,1.8-2.2,3.4l10.3,48.5c0.3,1.5,1.8,2.5,3.4,2.2
		c0,0,15.2-3.2,15.2-3.2c1.5-0.3,2.5-1.8,2.2-3.4l-8.4-39.5c-0.2-0.8,0.3-1.5,1.1-1.7l0.7-0.1c0.8-0.2,1.5,0.3,1.7,1.1
		c0,0,7.2,34,7.2,34c0.3,1.5,1.8,2.5,3.4,2.2C589,724.2,622.3,717.1,622.3,717.1z"/>
</g>
<g id="LWPOLYLINE_35_">
	<path class="st0" d="M256.8,697.1l33.3,7.1c1.5,0.3,3-0.7,3.4-2.2l7.1-33.3c0.3-1.5-0.7-3-2.2-3.4c0,0-33.3-7.1-33.3-7.1
		c-1.5-0.3-3,0.7-3.4,2.2c0,0-7.1,33.3-7.1,33.3C254.3,695.3,255.3,696.8,256.8,697.1z"/>
</g>
<g id="LWPOLYLINE_36_">
	<path class="st0" d="M812.8,546.3c-1.6,0-2.8,1.3-2.8,2.8v34c0,1.6,1.3,2.8,2.8,2.8h34c1.6,0,2.8-1.3,2.8-2.8v-34
		c0-1.6-1.3-2.8-2.8-2.8C846.8,546.3,812.8,546.3,812.8,546.3z"/>
</g>
<g id="LWPOLYLINE_37_">
	<path class="st0" d="M784.3,529.2c0,1.6,1.3,2.8,2.8,2.8h34c1.6,0,2.8-1.3,2.8-2.8v-34c0-1.6-1.3-2.8-2.8-2.8h-34
		c-1.6,0-2.8,1.3-2.8,2.8C784.3,495.1,784.3,529.2,784.3,529.2z"/>
</g>
<g id="LWPOLYLINE_38_">
	<path class="st0" d="M686.6,645.3c0.3,1.5,1.8,2.5,3.4,2.2l33.3-7.1c1.5-0.3,2.5-1.8,2.2-3.4l-7.1-33.3c-0.3-1.5-1.8-2.5-3.4-2.2
		l-33.3,7.1c-1.5,0.3-2.5,1.8-2.2,3.4C679.5,612.1,686.6,645.3,686.6,645.3z"/>
</g>
<g id="LINE_28_">
	<line class="st0" x1="877" y1="475.9" x2="877" y2="435.5"/>
</g>
<g id="LWPOLYLINE_39_">
	<path class="st0" d="M908.7,532h34c1.6,0,2.8-1.3,2.8-2.8v-34c0-1.6-1.3-2.8-2.8-2.8c0,0-34,0-34,0c-1.6,0-2.8,1.3-2.8,2.8v34
		C905.8,530.7,907.1,532,908.7,532z"/>
</g>
<g id="ARC_27_">
	<path class="st0" d="M897.7,548.4c0-0.8-0.6-1.4-1.4-1.4"/>
</g>
<g id="LINE_29_">
	<line class="st0" x1="921.6" y1="477.3" x2="922.3" y2="477.3"/>
</g>
<g id="LINE_30_">
	<line class="st0" x1="938.8" y1="547" x2="939.5" y2="547"/>
</g>
<g id="LINE_31_">
	<line class="st0" x1="945" y1="435.5" x2="945" y2="485.1"/>
</g>
<g id="LWPOLYLINE_40_">
	<path class="st0" d="M278.7,601.6c-1.5-0.3-3,0.7-3.4,2.2c0,0-7.1,33.3-7.1,33.3c-0.3,1.5,0.7,3,2.2,3.4c0,0,33.3,7.1,33.3,7.1
		c1.5,0.3,3-0.7,3.4-2.2l7.1-33.3c0.3-1.5-0.7-3-2.2-3.4C311.9,608.7,278.7,601.6,278.7,601.6z"/>
</g>
<g id="LWPOLYLINE_41_">
	<path class="st0" d="M633.8,656.6c0.3,1.5,1.8,2.5,3.4,2.2l33.3-7.1c1.5-0.3,2.5-1.8,2.2-3.4l-7.1-33.3c-0.3-1.5-1.8-2.5-3.4-2.2
		l-33.3,7.1c-1.5,0.3-2.5,1.8-2.2,3.4L633.8,656.6z"/>
</g>
<g id="LWPOLYLINE_42_">
	<path class="st0" d="M677.4,554.4l-33.3,7.1c-1.5,0.3-2.5,1.8-2.2,3.4l7.1,33.3c0.3,1.5,1.8,2.5,3.4,2.2c0,0,33.3-7.1,33.3-7.1
		c1.5-0.3,2.5-1.8,2.2-3.4l-7.1-33.3C680.4,555.1,678.9,554.1,677.4,554.4z"/>
</g>
<g id="LINE_32_">
	<line class="st0" x1="879.1" y1="477.3" x2="878.4" y2="477.3"/>
</g>
<g id="LWPOLYLINE_43_">
	<path class="st0" d="M799.5,441.1v34c0,1.6,1.3,2.8,2.8,2.8h34c1.6,0,2.8-1.3,2.8-2.8v-34c0-1.6-1.3-2.8-2.8-2.8h-34
		C800.8,438.3,799.5,439.6,799.5,441.1z"/>
</g>
<g id="LWPOLYLINE_44_">
	<path class="st0" d="M771.2,526.1v-34c0-1.6-1.3-2.8-2.8-2.8h-34c-1.6,0-2.8,1.3-2.8,2.8v34c0,1.6,1.3,2.8,2.8,2.8h34
		C769.9,529,771.2,527.7,771.2,526.1z"/>
</g>
<g id="LWPOLYLINE_45_">
	<path class="st0" d="M786.4,469.1v-34c0-1.6-1.3-2.8-2.8-2.8c0,0-34,0-34,0c-1.6,0-2.8,1.3-2.8,2.8v34c0,1.6,1.3,2.8,2.8,2.8h34
		C785.1,471.9,786.4,470.7,786.4,469.1z"/>
</g>
<g id="LWPOLYLINE_46_">
	<path class="st0" d="M875.2,532c1.6,0,2.8-1.3,2.8-2.8v-34c0-1.6-1.3-2.8-2.8-2.8c0,0-34,0-34,0c-1.6,0-2.8,1.3-2.8,2.8v34
		c0,1.6,1.3,2.8,2.8,2.8C841.1,532,875.2,532,875.2,532z"/>
</g>
<g id="LINE_33_">
	<line class="st0" x1="855.7" y1="435.5" x2="855.7" y2="485.1"/>
</g>
<g id="LWPOLYLINE_47_">
	<path class="st0" d="M619.8,659.5l-7.1-33.3c-0.3-1.5-1.8-2.5-3.4-2.2l-33.3,7.1c-1.5,0.3-2.5,1.8-2.2,3.4l7.1,33.3
		c0.3,1.5,1.8,2.5,3.4,2.2l33.3-7.1C619.1,662.6,620.1,661.1,619.8,659.5z"/>
</g>
<g id="LINE_34_">
	<line class="st0" x1="880.5" y1="441.1" x2="880.5" y2="475.9"/>
</g>
<g id="LWPOLYLINE_48_">
	<path class="st0" d="M632.8,604.5c1.5-0.3,2.5-1.8,2.2-3.4l-7.1-33.3c-0.3-1.5-1.8-2.5-3.4-2.2l-33.3,7.1c-1.5,0.3-2.5,1.8-2.2,3.4
		c0,0,7.1,33.3,7.1,33.3c0.3,1.5,1.8,2.5,3.4,2.2L632.8,604.5z"/>
</g>
<g id="LWPOLYLINE_49_">
	<path class="st0" d="M792.8,546.3h-34c-1.6,0-2.8,1.3-2.8,2.8v34c0,1.6,1.3,2.8,2.8,2.8h34c1.6,0,2.8-1.3,2.8-2.8c0,0,0-34,0-34
		C795.6,547.6,794.3,546.3,792.8,546.3z"/>
</g>
<g id="ARC_28_">
	<path class="st0" d="M875.7,536.4c-1.6,0-2.8,1.3-2.8,2.8"/>
</g>
<g id="ARC_29_">
	<path class="st0" d="M895.5,547c-0.8,0-1.4,0.6-1.4,1.4"/>
</g>
<g id="LINE_35_">
	<line class="st0" x1="923.7" y1="435.5" x2="923.7" y2="475.9"/>
</g>
<g id="ARC_30_">
	<path class="st0" d="M938.8,547c-0.8,0-1.4,0.6-1.4,1.4"/>
</g>
<g id="LWPOLYLINE_50_">
	<path class="st0" d="M687.7,441.8c-1.5,0.3-2.5,1.8-2.2,3.4c0,0,7.1,33.3,7.1,33.3c0.3,1.5,1.8,2.5,3.4,2.2l33.3-7.1
		c1.5-0.3,2.5-1.8,2.2-3.4l-7.1-33.3c-0.3-1.5-1.8-2.5-3.4-2.2C720.9,434.7,687.7,441.8,687.7,441.8z"/>
</g>
<g id="ARC_31_">
	<path class="st0" d="M942.2,487.9c1.6,0,2.8-1.3,2.8-2.8"/>
</g>
<g id="ARC_32_">
	<path class="st0" d="M940.9,548.4c0-0.8-0.6-1.4-1.4-1.4"/>
</g>
<g id="ARC_33_">
	<path class="st0" d="M926.6,432.6c-1.6,0-2.8,1.3-2.8,2.8"/>
</g>
<g id="ARC_34_">
	<path class="st0" d="M922.3,477.3c0.8,0,1.4-0.6,1.4-1.4"/>
</g>
<g id="ARC_35_">
	<path class="st0" d="M879.1,477.3c0.8,0,1.4-0.6,1.4-1.4"/>
</g>
<g id="LINE_36_">
	<line class="st0" x1="920.2" y1="441.1" x2="920.2" y2="475.9"/>
</g>
<g id="ARC_36_">
	<path class="st0" d="M858.5,432.6c-1.6,0-2.8,1.3-2.8,2.8"/>
</g>
<g id="LINE_37_">
	<line class="st0" x1="926.6" y1="432.6" x2="942.2" y2="432.6"/>
</g>
<g id="ARC_37_">
	<path class="st0" d="M877,475.9c0,0.8,0.6,1.4,1.4,1.4"/>
</g>
<g id="ARC_38_">
	<path class="st0" d="M855.7,485.1c0,1.6,1.3,2.8,2.8,2.8"/>
</g>
<g id="ARC_39_">
	<path class="st0" d="M945,435.5c0-1.6-1.3-2.8-2.8-2.8"/>
</g>
<g id="ARC_40_">
	<path class="st0" d="M962.1,539.2c0-1.6-1.3-2.8-2.8-2.8"/>
</g>
<g id="LWPOLYLINE_51_">
	<path class="st0" d="M373.9,659.5c-0.3,1.5,0.7,3,2.2,3.4c0,0,33.3,7.1,33.3,7.1c1.5,0.3,3-0.7,3.4-2.2c0,0,7.1-33.3,7.1-33.3
		c0.3-1.5-0.7-3-2.2-3.4c0,0-33.3-7.1-33.3-7.1c-1.5-0.3-3,0.7-3.4,2.2C381,626.3,373.9,659.5,373.9,659.5z"/>
</g>
<g id="LWPOLYLINE_52_">
	<path class="st0" d="M777.6,600.3h-34c-1.6,0-2.8,1.3-2.8,2.8v34c0,1.6,1.3,2.8,2.8,2.8h34c1.6,0,2.8-1.3,2.8-2.8v-34
		C780.4,601.6,779.2,600.3,777.6,600.3z"/>
</g>
<g id="LWPOLYLINE_53_">
	<path class="st0" d="M490.9,481.1l-33.3-7.1c-1.5-0.3-3,0.7-3.4,2.2c0,0-7.1,33.3-7.1,33.3c-0.3,1.5,0.7,3,2.2,3.4
		c0,0,33.3,7.1,33.3,7.1c1.5,0.3,3-0.7,3.4-2.2l7.1-33.3C493.4,482.9,492.4,481.4,490.9,481.1z"/>
</g>
<g id="LWPOLYLINE_54_">
	<path class="st0" d="M740.6,578.7l-7.1-33.3c-0.3-1.5-1.8-2.5-3.4-2.2l-33.3,7.1c-1.5,0.3-2.5,1.8-2.2,3.4l7.1,33.3
		c0.3,1.5,1.8,2.5,3.4,2.2l33.3-7.1C740,581.7,740.9,580.2,740.6,578.7z"/>
</g>
<g id="ARC_41_">
	<path class="st0" d="M354.3,673.6c-0.8-0.2-1.5,0.3-1.7,1.1"/>
</g>
<g id="LWPOLYLINE_55_">
	<path class="st0" d="M536.3,587.3l7.1,33.3c0.3,1.5,1.8,2.5,3.4,2.2l33.3-7.1c1.5-0.3,2.5-1.8,2.2-3.4c0,0-7.1-33.3-7.1-33.3
		c-0.3-1.5-1.8-2.5-3.4-2.2l-33.3,7.1C536.9,584.3,535.9,585.8,536.3,587.3z"/>
</g>
<g id="LWPOLYLINE_56_">
	<path class="st0" d="M413.7,615.7l33.3,7.1c1.5,0.3,3-0.7,3.4-2.2l7.1-33.3c0.3-1.5-0.7-3-2.2-3.4l-33.3-7.1
		c-1.5-0.3-3,0.7-3.4,2.2c0,0-7.1,33.3-7.1,33.3C411.2,613.9,412.2,615.4,413.7,615.7z"/>
</g>
<g id="LWPOLYLINE_57_">
	<path class="st0" d="M448.4,564.9l7.1-33.3c0.3-1.5-0.7-3-2.2-3.4c0,0-33.3-7.1-33.3-7.1c-1.5-0.3-3,0.7-3.4,2.2
		c0,0-7.1,33.3-7.1,33.3c-0.3,1.5,0.7,3,2.2,3.4c0,0,33.3,7.1,33.3,7.1C446.5,567.5,448,566.5,448.4,564.9z"/>
</g>
<g id="LWPOLYLINE_58_">
	<path class="st0" d="M794.7,603.1v34c0,1.6,1.3,2.8,2.8,2.8c0,0,34,0,34,0c1.6,0,2.8-1.3,2.8-2.8c0,0,0-34,0-34
		c0-1.6-1.3-2.8-2.8-2.8h-34C796,600.3,794.7,601.6,794.7,603.1z"/>
</g>
<g id="LWPOLYLINE_59_">
	<path class="st0" d="M982.9,637.2v-34c0-1.6-1.3-2.8-2.8-2.8h-34c-1.6,0-2.8,1.3-2.8,2.8v34c0,1.6,1.3,2.8,2.8,2.8h34
		C981.7,640,982.9,638.7,982.9,637.2z"/>
</g>
<g id="LWPOLYLINE_60_">
	<path class="st0" d="M956.2,654.4h-34c-1.6,0-2.8,1.3-2.8,2.8v34c0,1.6,1.3,2.8,2.8,2.8h34c1.6,0,2.8-1.3,2.8-2.8c0,0,0-34,0-34
		C959,655.7,957.7,654.4,956.2,654.4z"/>
</g>
<g id="LWPOLYLINE_61_">
	<path class="st0" d="M905.8,600.3h-34c-1.6,0-2.8,1.3-2.8,2.8c0,0,0,34,0,34c0,1.6,1.3,2.8,2.8,2.8c0,0,34,0,34,0
		c1.6,0,2.8-1.3,2.8-2.8c0,0,0-34,0-34C908.7,601.6,907.4,600.3,905.8,600.3z"/>
</g>
<g id="LWPOLYLINE_62_">
	<path class="st0" d="M732,660.5c-0.3-1.5-1.8-2.5-3.4-2.2c0,0-33.3,7.1-33.3,7.1c-1.5,0.3-2.5,1.8-2.2,3.4l7.1,33.3
		c0.3,1.5,1.8,2.5,3.4,2.2l33.3-7.1c1.5-0.3,2.5-1.8,2.2-3.4C739,693.7,732,660.5,732,660.5z"/>
</g>
<g id="LWPOLYLINE_63_">
	<path class="st0" d="M356.5,658.7c1.5,0.3,3-0.7,3.4-2.2l7.1-33.3c0.3-1.5-0.7-3-2.2-3.4c0,0-33.3-7.1-33.3-7.1
		c-1.5-0.3-3,0.7-3.4,2.2c0,0-7.1,33.3-7.1,33.3c-0.3,1.5,0.7,3,2.2,3.4L356.5,658.7z"/>
</g>
<g id="LWPOLYLINE_64_">
	<path class="st0" d="M521.1,645.7l7.1,33.3c0.3,1.5,1.8,2.5,3.4,2.2l33.3-7.1c1.5-0.3,2.5-1.8,2.2-3.4c0,0-7.1-33.3-7.1-33.3
		c-0.3-1.5-1.8-2.5-3.4-2.2l-33.3,7.1C521.7,642.7,520.7,644.2,521.1,645.7z"/>
</g>
<g id="ARC_42_">
	<path class="st0" d="M337.1,659.1c-1.5-0.3-3,0.7-3.4,2.2"/>
</g>
<g id="ARC_43_">
	<path class="st0" d="M396.5,682.6c-0.8-0.2-1.5,0.3-1.7,1.1"/>
</g>
<g id="ARC_44_">
	<path class="st0" d="M398.3,684.4c0.2-0.8-0.3-1.5-1.1-1.7"/>
</g>
<g id="ARC_45_">
	<path class="st0" d="M356,675.4c0.2-0.8-0.3-1.5-1.1-1.7"/>
</g>
<g id="LINE_38_">
	<line class="st0" x1="875.7" y1="536.4" x2="959.3" y2="536.4"/>
</g>
<g id="LINE_39_">
	<line class="st0" x1="942.2" y1="487.9" x2="858.5" y2="487.9"/>
</g>
<g id="ARC_46_">
	<path class="st0" d="M920.2,441.1c0-1.6-1.3-2.8-2.8-2.8"/>
</g>
<g id="ARC_47_">
	<path class="st0" d="M883.3,438.3c-1.6,0-2.8,1.3-2.8,2.8"/>
</g>
<g id="LINE_40_">
	<line class="st0" x1="874.1" y1="432.6" x2="858.5" y2="432.6"/>
</g>
<g id="ARC_48_">
	<path class="st0" d="M877,435.5c0-1.6-1.3-2.8-2.8-2.8"/>
</g>
<g id="LINE_41_">
	<line class="st0" x1="917.3" y1="438.3" x2="883.3" y2="438.3"/>
</g>
<g id="LINE_42_">
	<line class="st0" x1="896.2" y1="547" x2="895.5" y2="547"/>
</g>
<g id="LINE_43_">
	<line class="st0" x1="337.1" y1="659.1" x2="418.9" y2="676.5"/>
</g>
<g id="LWPOLYLINE_65_">
	<path class="st0" d="M428.9,674.1l33.3,7.1c1.5,0.3,3-0.7,3.4-2.2c0,0,7.1-33.3,7.1-33.3c0.3-1.5-0.7-3-2.2-3.4l-33.3-7.1
		c-1.5-0.3-3,0.7-3.4,2.2c0,0-7.1,33.3-7.1,33.3C426.4,672.3,427.4,673.8,428.9,674.1z"/>
</g>
<g id="LINE_44_">
	<line class="st0" x1="940.9" y1="548.4" x2="940.9" y2="588.8"/>
</g>
<g id="LINE_45_">
	<line class="st0" x1="943.7" y1="591.7" x2="959.3" y2="591.7"/>
</g>
<g id="LINE_46_">
	<line class="st0" x1="894.1" y1="588.8" x2="894.1" y2="548.4"/>
</g>
<g id="LINE_47_">
	<line class="st0" x1="900.5" y1="586" x2="934.5" y2="586"/>
</g>
<g id="LINE_48_">
	<line class="st0" x1="891.3" y1="591.7" x2="875.7" y2="591.7"/>
</g>
<g id="LINE_49_">
	<line class="st0" x1="897.7" y1="583.2" x2="897.7" y2="548.4"/>
</g>
<g id="LINE_50_">
	<line class="st0" x1="355" y1="673.8" x2="354.3" y2="673.6"/>
</g>
<g id="LINE_51_">
	<line class="st0" x1="937.3" y1="583.2" x2="937.3" y2="548.4"/>
</g>
<g id="LINE_52_">
	<line class="st0" x1="962.1" y1="588.8" x2="962.1" y2="539.2"/>
</g>
<g id="LINE_53_">
	<line class="st0" x1="872.9" y1="588.8" x2="872.9" y2="539.2"/>
</g>
<g id="LINE_54_">
	<line class="st0" x1="348.8" y1="709.4" x2="356" y2="675.4"/>
</g>
<g id="LINE_55_">
	<line class="st0" x1="392.1" y1="727.3" x2="407.4" y2="730.6"/>
</g>
<g id="LWPOLYLINE_66_">
	<path class="st0" d="M478.4,699.3l-33.3-7.1c-1.5-0.3-3,0.7-3.4,2.2c0,0-7.1,33.3-7.1,33.3c-0.3,1.5,0.7,3,2.2,3.4
		c0,0,33.3,7.1,33.3,7.1c1.5,0.3,3-0.7,3.4-2.2c0,0,7.1-33.3,7.1-33.3C480.9,701.1,479.9,699.6,478.4,699.3z"/>
</g>
<g id="ARC_49_">
	<path class="st0" d="M348.8,709.4c-0.3,1.5,0.7,3,2.2,3.4"/>
</g>
<g id="LINE_56_">
	<line class="st0" x1="340.8" y1="716.4" x2="325.6" y2="713.2"/>
</g>
<g id="ARC_50_">
	<path class="st0" d="M323.4,709.8c-0.3,1.5,0.7,3,2.2,3.4"/>
</g>
<g id="ARC_51_">
	<path class="st0" d="M407.4,730.6c1.5,0.3,3-0.7,3.4-2.2"/>
</g>
<g id="LINE_57_">
	<line class="st0" x1="387.6" y1="717.7" x2="394.9" y2="683.7"/>
</g>
<g id="ARC_52_">
	<path class="st0" d="M384.3,719.8c1.5,0.3,3-0.7,3.4-2.2"/>
</g>
<g id="LINE_58_">
	<line class="st0" x1="344.2" y1="714.2" x2="352.6" y2="674.7"/>
</g>
<g id="LINE_59_">
	<line class="st0" x1="351" y1="712.8" x2="384.3" y2="719.8"/>
</g>
<g id="LINE_60_">
	<line class="st0" x1="410.7" y1="728.4" x2="421" y2="679.8"/>
</g>
<g id="LINE_61_">
	<line class="st0" x1="398.3" y1="684.4" x2="389.9" y2="723.9"/>
</g>
<g id="ARC_53_">
	<path class="st0" d="M340.8,716.4c1.5,0.3,3-0.7,3.4-2.2"/>
</g>
<g id="ARC_54_">
	<path class="st0" d="M959.3,591.7c1.6,0,2.8-1.3,2.8-2.8"/>
</g>
<g id="ARC_55_">
	<path class="st0" d="M389.9,723.9c-0.3,1.5,0.7,3,2.2,3.4"/>
</g>
<g id="ARC_56_">
	<path class="st0" d="M421,679.8c0.3-1.5-0.7-3-2.2-3.4"/>
</g>
<g id="LINE_62_">
	<line class="st0" x1="323.4" y1="709.8" x2="333.7" y2="661.3"/>
</g>
<g id="ARC_57_">
	<path class="st0" d="M891.3,591.7c1.6,0,2.8-1.3,2.8-2.8"/>
</g>
<g id="ARC_58_">
	<path class="st0" d="M934.5,586c1.6,0,2.8-1.3,2.8-2.8"/>
</g>
<g id="ARC_59_">
	<path class="st0" d="M897.7,583.2c0,1.6,1.3,2.8,2.8,2.8"/>
</g>
<g id="LINE_63_">
	<line class="st0" x1="396.5" y1="682.6" x2="397.2" y2="682.8"/>
</g>
<g id="ARC_60_">
	<path class="st0" d="M940.9,588.8c0,1.6,1.3,2.8,2.8,2.8"/>
</g>
<g id="ARC_61_">
	<path class="st0" d="M872.9,588.8c0,1.6,1.3,2.8,2.8,2.8"/>
</g>
</svg>
