0
SECTION
2
HEADER
9
$INSUNITS
70
4
9
$ACADVER
1
AC1014
9
$HANDSEED
5
FFFF
0
ENDSEC
0
SECTION
2
TABLES
0
TABLE
2
VPORT
5
8
100
AcDbSymbolTable
0
ENDTAB
0
TABLE
2
LTYPE
5
5
100
AcDbSymbolTable
0
LTYPE
5
14
100
AcDbSymbolTableRecord
100
AcDbLinetypeTableRecord
2
BYBLOCK
70
0
0
LTYPE
5
15
100
AcDbSymbolTableRecord
100
AcDbLinetypeTableRecord
2
BYLAYER
70
0
0
ENDTAB
0
TABLE
2
LAYER
5
2
100
AcDbSymbolTable
70
2
0
LAYER
5
50
100
AcDbSymbolTableRecord
100
AcDbLayerTableRecord
2
0
70
0
6
CONTINUOUS
0
ENDTAB
0
TABLE
2
STYLE
5
3
100
AcDbSymbolTable
70
1
0
STYLE
5
11
100
AcDbSymbolTableRecord
100
AcDbTextStyleTableRecord
2
STANDARD
70
0
0
ENDTAB
0
TABLE
2
VIEW
5
6
100
AcDbSymbolTable
70
0
0
ENDTAB
0
TABLE
2
UCS
5
7
100
AcDbSymbolTable
70
0
0
ENDTAB
0
TABLE
2
APPID
5
9
100
AcDbSymbolTable
70
2
0
APPID
5
12
100
AcDbSymbolTableRecord
100
AcDbRegAppTableRecord
2
ACAD
70
0
0
ENDTAB
0
TABLE
2
DIMSTYLE
5
A
100
AcDbSymbolTable
70
1
0
ENDTAB
0
TABLE
2
BLOCK_RECORD
5
1
100
AcDbSymbolTable
70
1
0
BLOCK_RECORD
5
1F
100
AcDbSymbolTableRecord
100
AcDbBlockTableRecord
2
*MODEL_SPACE
0
BLOCK_RECORD
5
1B
100
AcDbSymbolTableRecord
100
AcDbBlockTableRecord
2
*PAPER_SPACE
0
ENDTAB
0
ENDSEC
0
SECTION
2
BLOCKS
0
BLOCK
5
20
100
AcDbEntity
100
AcDbBlockBegin
2
*MODEL_SPACE
0
ENDBLK
5
21
100
AcDbEntity
100
AcDbBlockEnd
0
BLOCK
5
1C
100
AcDbEntity
100
AcDbBlockBegin
2
*PAPER_SPACE
0
ENDBLK
5
1D
100
AcDbEntity
100
AcDbBlockEnd
0
ENDSEC
0
SECTION
2
ENTITIES
0
ARC
5
100
100
AcDbEntity
8
0
100
AcDbCircle
10
667.65919454138259
20
203.02152123420967
30
0
40
1.0000000000028761
100
AcDbArc
50
257.99988388682925
51
347.9999999999518
0
LINE
5
101
100
AcDbEntity
8
0
100
AcDbLine
10
670.21443932828083
20
199.41136617530759
30
0
11
675.59425113231669
21
198.26785187581004
31
0
0
LWPOLYLINE
5
102
100
AcDbEntity
8
0
100
AcDbPolyline
90
54
70
1
43
0.0
10
573.61925251378636
20
421.09624692368345
10
573.61925251378636
20
438.14624692368341
42
-0.41421356237316442
10
575.11925251378648
20
439.64624692368346
10
610.80925251378642
20
439.64624692368346
42
0.41421356237309503
10
611.30925251378642
20
440.14624692368324
10
611.30925251378642
20
440.28624692368345
42
-0.41421356237309503
10
612.80925251378608
20
441.78624692368345
10
629.86925251378636
20
441.78624692368345
42
-0.35565177665020337
10
631.3381508294076
20
440.59011817662707
42
0.29769527893471215
10
631.72382775587243
20
440.20233479390811
10
708.16820580694775
20
423.95358063636809
42
-0.4142135623731929
10
709.32355967182173
20
422.17449169904086
10
705.77658622647095
20
405.487293630522
42
-0.41421356237311929
10
703.99749728914367
20
404.33193976564803
10
696.63596688868563
20
405.8966813561986
42
0.41421356237300494
10
696.04293724290983
20
405.51156340124061
10
692.49955567470897
20
388.84126378611091
42
0.41421356237279272
10
692.88467362966696
20
388.24823414033517
10
695.5882058069476
20
387.67358063636806
42
-0.41421356237313572
10
696.74355967182169
20
385.89449169904083
10
693.19922784736718
20
369.21972147972895
42
0.41421356237282481
10
693.58434580232529
20
368.6266918339532
10
700.93820580694796
20
367.06358063636821
42
-0.41421356237306789
10
702.09355967182194
20
365.28449169904059
10
698.54828485328142
20
348.60528504135908
42
0.41421356237279272
10
698.93340280823952
20
348.01225539558334
10
706.07820580694795
20
346.49358063636834
42
-0.41421356237309503
10
707.23355967182204
20
344.71449169904099
10
703.68658622647104
20
328.02729363052208
42
-0.41421356237305723
10
701.90749728914375
20
326.87193976564799
10
642.92102298449618
20
339.40990192888052
42
0.34246959556196921
10
642.36913720553116
20
339.14299647599921
42
-0.34246959556186041
10
640.71347986863645
20
338.34228011735519
10
614.71431664113186
20
343.86857285929119
42
-0.41421356237302431
10
613.558962776258
20
345.64766179661859
10
616.99911192827062
20
361.83229107827452
42
0.47697553269806647
10
616.51003812790361
20
362.4362469236832
10
591.3192525137863
20
362.43624692368337
42
0.41421356237297013
10
590.8192525137863
20
361.93624692368331
10
590.8192525137863
20
344.88624692368347
42
-0.41421356237312279
10
589.3192525137863
20
343.38624692368342
10
562.71925251378639
20
343.38624692368336
42
-0.41421356237309503
10
561.21925251378639
20
344.88624692368347
10
561.21925251378639
20
380.99624692368337
42
-0.41421356237310897
10
562.71925251378639
20
382.49624692368337
10
564.88925251378635
20
382.49624692368337
42
0.41421356237326151
10
565.38925251378623
20
382.99624692368332
10
565.38925251378623
20
400.04624692368338
42
-0.41421356237312279
10
566.88925251378635
20
401.54624692368344
10
568.9592525137864
20
401.54624692368344
42
0.4142135623730534
10
569.4592525137864
20
402.04624692368338
10
569.45925251378605
20
419.0962469236834
42
-0.41421356237301177
10
570.95925251378605
20
420.59624692368345
10
573.11925251378636
20
420.59624692368345
42
0.4142135623731783
0
LWPOLYLINE
5
103
100
AcDbEntity
8
0
100
AcDbPolyline
90
55
70
1
43
0.0
10
708.95494535575028
20
403.53449169904081
42
-0.41421356237312212
10
710.11029922062471
20
405.31358063636816
10
717.46619290846274
20
406.87712410666512
42
0.41421356237300494
10
717.85131086342085
20
407.47015375244086
10
714.30494535575065
20
424.15449169904088
42
-0.41421356237310575
10
715.46029922062485
20
425.93358063636805
10
789.39932082757764
20
441.64980484238725
42
-0.042377065209927033
10
789.65115548857614
20
441.68138164447868
10
792.23924810554422
20
441.78504512687567
42
-0.010008486344933286
10
792.2992809807721
20
441.78624692368345
10
810.8292525137864
20
441.78624692368317
42
-0.41421356237309503
10
812.32925251378617
20
440.28624692368339
10
812.32925251378617
20
440.14624692368341
42
0.41421356237309503
10
812.82925251378617
20
439.64624692368346
10
867.55925251378642
20
439.64624692368324
42
-0.41421356237313667
10
869.0592525137863
20
438.14624692368341
10
869.0592525137863
20
421.09624692368345
42
0.4142135623730534
10
869.5592525137863
20
420.59624692368351
10
871.72925251378626
20
420.59624692368345
42
-0.41421356237309503
10
873.22925251378638
20
419.0962469236834
10
873.22925251378649
20
402.04624692368338
42
0.41421356237309503
10
873.72925251378649
20
401.54624692368344
10
875.9892525137866
20
401.54624692368361
42
-0.4142135623731783
10
877.48925251378637
20
400.04624692368338
10
877.48925251378637
20
382.99624692368332
42
0.41421356237301177
10
877.98925251378637
20
382.4962469236832
10
880.1680025137864
20
382.4962469236832
42
-0.4142135623730257
10
881.66800251378629
20
380.99624692368337
10
881.66800251378618
20
363.93624692368348
42
-0.41421356237299795
10
880.1680025137864
20
362.43624692368326
10
878.49485251378633
20
362.43624692368337
42
0.41421356237292856
10
877.99485251378633
20
361.93624692368331
10
877.99485251378644
20
344.83824692368341
42
-0.41421356237309503
10
876.49485251378633
20
343.33824692368341
10
849.89485251378653
20
343.33824692368324
42
-0.41421356237309503
10
848.3948525137863
20
344.83824692368341
10
848.3948525137863
20
361.93624692368337
42
0.41421356237309503
10
847.89485251378642
20
362.43624692368337
10
797.79846689966928
20
362.43624692368337
42
0.47697553269825715
10
797.30939309930238
20
361.83229107827452
10
800.74954225131501
20
345.64766179661882
42
-0.41421356237303786
10
799.59418838644069
20
343.86857285929125
10
773.59501991436196
20
338.34227900258657
42
-0.34142032951708079
10
771.94187657879456
20
339.13795053204512
42
0.34142032951719525
10
771.39082880027206
20
339.40317437519786
10
721.50361878108686
20
328.79932054220939
42
-0.41421356237292645
10
719.72452984375934
20
329.95467440708353
10
712.21533415476972
20
365.28266254346897
42
-0.41421356237309503
10
713.37068801964381
20
367.06175148079632
10
720.73411575155455
20
368.62689636159712
42
0.41421356237294082
10
721.11923370651255
20
369.21992600737292
10
717.57770591324834
20
385.88150429711879
42
0.41421356237300494
10
716.98467626747242
20
386.26662225207679
10
714.28100773842903
20
385.69193976564804
42
-0.41421356237312212
10
712.50191880110174
20
386.84729363052213
0
LINE
5
104
100
AcDbEntity
8
0
100
AcDbLine
10
642.49256880596374
20
339.49763398222922
30
0
11
642.49324779049221
21
339.50082835328573
31
0
0
LINE
5
105
100
AcDbEntity
8
0
100
AcDbLine
10
631.36925251378648
20
440.2777020882192
30
0
11
631.36925251378648
21
440.28624692368345
31
0
0
LINE
5
106
100
AcDbEntity
8
0
100
AcDbLine
10
886.16925251378575
20
52.536246923682384
30
0
11
886.16925251378575
21
174.78624692368248
31
0
0
ARC
5
107
100
AcDbEntity
8
0
100
AcDbCircle
10
882.16925251378586
20
174.78624692368246
30
0
40
4.0000000000000568
100
AcDbArc
50
0
51
90
0
LINE
5
108
100
AcDbEntity
8
0
100
AcDbLine
10
541.3692525137858
20
48.536246923682391
30
0
11
882.16925251378586
21
48.536246923682413
31
0
0
ARC
5
109
100
AcDbEntity
8
0
100
AcDbCircle
10
882.16925251378586
20
52.536246923682306
30
0
40
3.9999999999998881
100
AcDbArc
50
-90
51
0
0
LINE
5
110
100
AcDbEntity
8
0
100
AcDbLine
10
537.3692525137858
20
174.78624692368248
30
0
11
537.3692525137858
21
52.536246923682377
31
0
0
ARC
5
111
100
AcDbEntity
8
0
100
AcDbCircle
10
541.3692525137858
20
174.7862469236824
30
0
40
4.0000000000000924
100
AcDbArc
50
90
51
180
0
ARC
5
112
100
AcDbEntity
8
0
100
AcDbCircle
10
541.36925251378568
20
52.536246923682349
30
0
40
3.9999999999999147
100
AcDbArc
50
180
51
270.00000000000159
0
LWPOLYLINE
5
113
100
AcDbEntity
8
0
100
AcDbPolyline
90
24
70
1
43
0.0
10
881.13800251378564
20
169.25624692368356
42
0.41421356237306034
10
879.63800251378586
20
170.75624692368348
10
718.04445251378513
20
170.75624692368351
42
-0.4142135623732095
10
717.0444525137849
20
171.75624692368356
10
717.04445251378525
20
175.92814610245395
42
0.41421296051067263
10
716.04445456867279
20
176.9281461024519
10
715.96925251378582
20
176.92814625698364
10
707.5692525137855
20
176.92814625698364
10
707.49405456867282
20
176.92814641150699
42
0.41421416423580482
10
706.49405251378528
20
175.92814641150906
10
706.49405251378539
20
171.75624692368356
42
-0.41421356237330315
10
705.49405251378528
20
170.75624692368353
10
544.39925251378577
20
170.75624692368351
42
0.41421356237297713
10
542.89925251378565
20
169.25624692368356
10
542.89925251378565
20
74.916246923683588
42
0.41421356237311241
10
544.39925251378577
20
73.41624692368363
10
616.93408276979812
20
73.416246923683602
42
-0.052407779283166075
10
617.14199446061582
20
73.394394524417422
10
711.56134082296671
20
53.324942906505569
42
0.10510423526559073
10
711.97716420460222
20
53.324942906505569
10
806.39651056695334
20
73.394394524417393
42
-0.052407779283222072
10
806.60442225777103
20
73.416246923683602
10
879.63800251378586
20
73.416246923683588
42
0.41421356237303608
10
881.13800251378564
20
74.91624692368363
0
CIRCLE
5
114
100
AcDbEntity
8
0
100
AcDbCircle
10
858.11800251378645
20
15.486246923683762
30
0
40
1.7499999999998863
0
CIRCLE
5
115
100
AcDbEntity
8
0
100
AcDbCircle
10
565.91925251378643
20
15.48624692368354
30
0
40
1.7500000000001137
0
ARC
5
116
100
AcDbEntity
8
0
100
AcDbCircle
10
541.3692525137858
20
310.03624692368237
30
0
40
4.0000000000000213
100
AcDbArc
50
90
51
180
0
LINE
5
117
100
AcDbEntity
8
0
100
AcDbLine
10
537.3692525137858
20
310.03624692368243
30
0
11
537.36925251378568
21
187.7862469236824
31
0
0
ARC
5
118
100
AcDbEntity
8
0
100
AcDbCircle
10
541.36925251378557
20
187.7862469236824
30
0
40
3.9999999999998437
100
AcDbArc
50
180
51
270.00000000000324
0
LINE
5
119
100
AcDbEntity
8
0
100
AcDbLine
10
541.3692525137858
20
183.78624692368254
30
0
11
882.16925251378586
21
183.78624692368237
31
0
0
LINE
5
120
100
AcDbEntity
8
0
100
AcDbLine
10
886.16925251378575
20
187.7862469236824
30
0
11
886.16925251378575
21
310.03624692368243
31
0
0
ARC
5
121
100
AcDbEntity
8
0
100
AcDbCircle
10
882.16925251378586
20
187.78624692368228
30
0
40
3.9999999999999147
100
AcDbArc
50
-90
51
0
0
ARC
5
122
100
AcDbEntity
8
0
100
AcDbCircle
10
882.16925251378586
20
310.03624692368248
30
0
40
3.9999999999999147
100
AcDbArc
50
0
51
90
0
LWPOLYLINE
5
123
100
AcDbEntity
8
0
100
AcDbPolyline
90
8
70
1
43
0.0
10
877.63800251378598
20
244.21624692368374
42
-0.41421356237299095
10
878.63800251378564
20
243.2162469236836
10
878.63800251378598
20
231.21624692368363
42
-0.41421356237288692
10
877.63800251378598
20
230.21624692368363
10
865.63800251378575
20
230.21624692368329
42
-0.41421356237307422
10
864.63800251378586
20
231.21624692368343
10
864.63800251378586
20
243.21624692368346
42
-0.4142135623730222
10
865.63800251378575
20
244.21624692368366
0
LWPOLYLINE
5
124
100
AcDbEntity
8
0
100
AcDbPolyline
90
8
70
1
43
0.0
10
838.44425251378595
20
231.2162469236836
10
838.44425251378584
20
243.2162469236836
42
-0.41421356237323032
10
839.44425251378573
20
244.21624692368371
10
851.44425251378584
20
244.2162469236838
42
-0.4142135623730846
10
852.44425251378573
20
243.2162469236836
10
852.44425251378573
20
231.2162469236836
42
-0.41421356237316787
10
851.44425251378584
20
230.21624692368374
10
839.44425251378573
20
230.21624692368357
42
-0.41421356237300139
0
LWPOLYLINE
5
125
100
AcDbEntity
8
0
100
AcDbPolyline
90
8
70
1
43
0.0
10
791.83351995391308
20
210.06668386345368
10
780.09574874510702
20
207.57174357364039
42
-0.41421356237331097
10
778.90968945355553
20
208.34197948355643
10
776.4147491637425
20
220.0797506923621
42
-0.41421356237307905
10
777.18498507365837
20
221.26580998391361
10
788.92275628246409
20
223.76075027372696
42
-0.41421356237294238
10
790.10881557401592
20
222.9905143638108
10
792.60375586382906
20
211.25274315500519
42
-0.41421356237311108
0
LWPOLYLINE
5
126
100
AcDbEntity
8
0
100
AcDbPolyline
90
73
70
1
43
0.0
10
831.60925251378569
20
250.26624692368344
42
-0.41421356237309503
10
830.60925251378592
20
249.26624692368364
10
827.24925251378852
20
249.26624692368358
42
0.41421356237307422
10
826.24925251378841
20
248.2662469236837
10
826.24925251378602
20
231.21624692368371
42
-0.41421356237309503
10
825.2492525137859
20
230.21624692368363
10
794.19925251378561
20
230.2162469236836
42
-0.24316773052359711
10
793.38342881690778
20
230.63794622714883
42
0.29939091188523659
10
792.35969342921237
20
231.03779313134768
10
789.87590423697372
20
230.50984744073241
42
-0.09767770691300641
10
789.48892775084619
20
230.50415775863905
42
0.097677706912918758
10
789.10195126471876
20
230.49846807654586
10
757.97638640044102
20
223.88252502895756
42
0.41421356237298523
10
757.20615049052481
20
222.69646573740627
10
761.16837257719556
20
204.05567640799686
42
-0.41421356237295998
10
760.39813666727923
20
202.86961711644517
10
755.01832486324349
20
201.72610281694756
42
-0.4142135623731984
10
753.83226557169223
20
202.4963387268636
10
752.19496116346613
20
210.19925034418392
42
0.41421356237330725
10
751.60193151769045
20
210.58436829914186
10
751.35739461750723
20
210.53239037643749
42
0.41421356237291185
10
750.97227666254912
20
209.93936073066169
10
752.19375784610361
20
204.19274357635061
42
-0.41421415593754746
10
751.42351995391323
20
203.00668386345353
10
739.68574946385945
20
200.51174019211999
42
-0.41421254982075434
10
738.49968945355545
20
201.28197948355665
10
737.27820827000119
20
207.02859663786808
42
0.41421356237299761
10
736.68517862422595
20
207.41371459282621
10
736.4406417240375
20
207.36173667012093
42
0.4142135623729612
10
736.05552376907895
20
206.76870702434542
10
737.69282833426303
20
199.06579466856374
42
-0.41421356237293588
10
736.92259242434704
20
197.87973537701288
10
731.54278062031017
20
196.73622107751501
42
-0.41421356237337698
10
730.35672132875834
20
197.50645698743102
10
726.39449908512904
20
216.1472470552992
42
0.41421356237326651
10
725.20843979357733
20
216.91748296521578
10
719.38461336317016
20
215.6795904434054
42
-0.41421356237310308
10
718.19855407161867
20
216.44982635332144
10
715.70361378180564
20
228.18759756212714
42
-0.41421356237321133
10
716.47384969172163
20
229.37365685367854
10
723.83727742363317
20
230.93880173447951
42
0.41421356237318668
10
724.60751333354915
20
232.12486102603111
10
720.01230750055038
20
253.74360474720672
42
0.41421356237308332
10
718.826248208999
20
254.51384065712284
10
716.1246133631704
20
253.93959044340548
42
-0.41421356237314011
10
714.93855407161868
20
254.70982635332146
10
712.44361378180542
20
266.4475975621271
42
-0.41421356237319096
10
713.21384969172163
20
267.63365685367887
10
720.57727742363556
20
269.19880173447899
42
0.41421356237256884
10
721.34751333355234
20
270.38486102603093
10
717.80361378180578
20
287.05759756212717
42
-0.4142135623731808
10
718.57384969172153
20
288.2436568536786
10
786.21275628246417
20
302.6207502737268
42
-0.41421356237308704
10
787.39881557401577
20
301.85051436381082
10
787.39906298314452
20
301.84935039537407
42
0.41421356237310308
10
788.585122274696
20
301.07911448545798
10
794.69682319004846
20
302.37819661798079
42
0.23476083173783746
10
795.39408200650837
20
302.93129557119903
42
-0.29074574131311298
10
796.29925251378586
20
303.50624692368353
10
808.29925251378586
20
303.50624692368353
42
-0.41421356237321988
10
809.29925251378575
20
302.50624692368399
10
809.29925251378563
20
302.3662469236836
42
0.41421356237312623
10
810.29925251378563
20
301.36624692368355
10
826.92925251378585
20
301.36624692368366
42
-0.41421356237309503
10
827.92925251378574
20
300.36624692368372
10
827.92925251378597
20
283.31624692368536
42
0.41421356237304302
10
828.92925251378551
20
282.31624692368536
10
840.6192525137858
20
282.31624692368371
42
-0.41421356237297013
10
841.61925251378591
20
281.31624692368359
10
841.61925251378591
20
269.31624692368371
42
-0.4142135623730534
10
840.6192525137858
20
268.31624692368348
10
832.60925251378342
20
268.31624692368371
42
0.4142135623730846
10
831.6092525137833
20
267.31624692368348
0
LWPOLYLINE
5
127
100
AcDbEntity
8
0
100
AcDbPolyline
90
8
70
1
43
0.0
10
856.1948525137858
20
212.11824692368361
10
856.1948525137858
20
224.11824692368359
42
-0.41421356237299095
10
857.19485251378592
20
225.11824692368361
10
869.19485251378603
20
225.11824692368361
42
-0.41421356237328233
10
870.19485251378569
20
224.11824692368359
10
870.1948525137858
20
212.11824692368364
42
-0.41421356237334478
10
869.19485251378592
20
211.11824692368373
10
857.19485251378592
20
211.11824692368347
42
-0.4142135623730222
0
LWPOLYLINE
5
128
100
AcDbEntity
8
0
100
AcDbPolyline
90
8
70
1
43
0.0
10
622.47498507365856
20
210.06668386345353
42
-0.41421356237304202
10
621.70474916374258
20
211.25274315500505
10
624.19968945355561
20
222.9905143638108
42
-0.41421356237322365
10
625.38574874510732
20
223.76075027372693
10
637.12351995391271
20
221.26580998391373
42
-0.41421356237314011
10
637.89375586382891
20
220.0797506923621
10
635.39881557401577
20
208.34197948355643
42
-0.4142135623730972
10
634.21275628246417
20
207.57174357364039
0
LWPOLYLINE
5
129
100
AcDbEntity
8
0
100
AcDbPolyline
90
8
70
1
43
0.0
10
553.62925251378567
20
290.50624692368353
10
553.62925251378567
20
302.50624692368353
42
-0.41421356237321988
10
554.62925251378567
20
303.50624692368353
10
566.62925251378567
20
303.50624692368359
42
-0.41421356237310542
10
567.62925251378567
20
302.50624692368353
10
567.62925251378556
20
290.50624692368353
42
-0.41421356237303258
10
566.62925251378567
20
289.50624692368365
10
554.62925251378579
20
289.50624692368353
42
-0.41421356237314705
0
LWPOLYLINE
5
130
100
AcDbEntity
8
0
100
AcDbPolyline
90
8
70
1
43
0.0
10
569.01925251378577
20
224.16624692368359
42
-0.41421356237306384
10
570.01925251378566
20
225.16624692368364
10
582.019252513786
20
225.16624692368356
42
-0.41421356237314705
10
583.01925251378577
20
224.16624692368359
10
583.01925251378589
20
212.16624692368359
42
-0.41421356237312623
10
582.01925251378589
20
211.16624692368362
10
570.01925251378566
20
211.16624692368362
42
-0.41421356237310542
10
569.01925251378566
20
212.16624692368359
0
LWPOLYLINE
5
131
100
AcDbEntity
8
0
100
AcDbPolyline
90
8
70
1
43
0.0
10
549.46925251378559
20
271.45624692368352
10
549.46925251378559
20
283.45624692368352
42
-0.41421356237295975
10
550.4692525137857
20
284.45624692368369
10
562.4692525137857
20
284.45624692368364
42
-0.41421356237312623
10
563.46925251378582
20
283.45624692368352
10
563.46925251378593
20
271.45624692368352
42
-0.41421356237318868
10
562.4692525137857
20
270.45624692368358
10
550.4692525137857
20
270.45624692368352
42
-0.41421356237301177
0
LWPOLYLINE
5
132
100
AcDbEntity
8
0
100
AcDbPolyline
90
8
70
1
43
0.0
10
558.39925251378577
20
251.40624692368363
10
546.39925251378588
20
251.40624692368363
42
-0.41421356237306384
10
545.39925251378565
20
252.4062469236836
10
545.39925251378565
20
264.40624692368363
42
-0.41421356237309503
10
546.39925251378577
20
265.40624692368357
10
558.39925251378577
20
265.40624692368363
42
-0.4142135623730534
10
559.39925251378565
20
264.40624692368363
10
559.39925251378565
20
252.40624692368363
42
-0.41421356237312623
0
LWPOLYLINE
5
133
100
AcDbEntity
8
0
100
AcDbPolyline
90
8
70
1
43
0.0
10
583.79925251378586
20
249.26624692368361
10
571.79925251378575
20
249.26624692368361
42
-0.41421356237300139
10
570.79925251378586
20
250.26624692368358
10
570.79925251378563
20
262.26624692368364
42
-0.41421356237309503
10
571.79925251378575
20
263.26624692368358
10
583.79925251378597
20
263.2662469236837
42
-0.41421356237300139
10
584.79925251378575
20
262.26624692368364
10
584.79925251378575
20
250.26624692368358
42
-0.41421356237301177
0
LWPOLYLINE
5
134
100
AcDbEntity
8
0
100
AcDbPolyline
90
8
70
1
43
0.0
10
577.24925251378579
20
281.31624692368359
42
-0.41421356237303258
10
578.24925251378568
20
282.31624692368365
10
590.24925251378568
20
282.31624692368371
42
-0.41421356237311585
10
591.24925251378568
20
281.31624692368359
10
591.24925251378568
20
269.31624692368354
42
-0.41421356237314705
10
590.24925251378568
20
268.31624692368354
10
578.24925251378568
20
268.31624692368359
42
-0.41421356237313667
10
577.24925251378568
20
269.31624692368359
0
LWPOLYLINE
5
135
100
AcDbEntity
8
0
100
AcDbPolyline
90
8
70
1
43
0.0
10
852.43925251378585
20
268.31624692368348
42
-0.41421356237297013
10
851.43925251378596
20
269.31624692368359
10
851.43925251378596
20
281.31624692368359
42
-0.41421356237297013
10
852.43925251378585
20
282.31624692368376
10
864.43925251378573
20
282.31624692368376
42
-0.41421356237327195
10
865.43925251378585
20
281.31624692368359
10
865.43925251378585
20
269.31624692368348
42
-0.4142135623730534
10
864.43925251378573
20
268.31624692368354
0
ARC
5
136
100
AcDbEntity
8
0
100
AcDbCircle
10
702.36180335521897
20
273.54773804413929
30
0
40
1.0000000000000959
100
AcDbArc
50
257.99999999999841
51
348.00000000000796
0
LINE
5
137
100
AcDbEntity
8
0
100
AcDbLine
10
705.8348912457659
20
285.07759756212721
30
0
11
703.33995095595287
21
273.33982635332166
31
0
0
ARC
5
138
100
AcDbEntity
8
0
100
AcDbCircle
10
704.85674364503234
20
285.2855092529453
30
0
40
0.99999999999974543
100
AcDbArc
50
-12.000000000021595
51
77.999999999993648
0
ARC
5
139
100
AcDbEntity
8
0
100
AcDbCircle
10
692.27674364503218
20
249.00550925294505
30
0
40
1.0000000000001106
100
AcDbArc
50
-12.000000000003222
51
77.999999999984624
0
ARC
5
140
100
AcDbEntity
8
0
100
AcDbCircle
10
695.13180335521906
20
216.65773804413931
30
0
40
1.0000000000000959
100
AcDbArc
50
258.00000000000477
51
348.00000000000318
0
ARC
5
141
100
AcDbEntity
8
0
100
AcDbCircle
10
608.1092525137858
20
231.216246923684
30
0
40
1.0000000000003695
100
AcDbArc
50
180
51
269.99999999999346
0
LINE
5
142
100
AcDbEntity
8
0
100
AcDbLine
10
698.60489124576588
20
228.18759756212722
30
0
11
696.10995095595297
21
216.44982635332158
31
0
0
ARC
5
143
100
AcDbEntity
8
0
100
AcDbCircle
10
697.62674364503141
20
228.39550925294475
30
0
40
1.0000000000003149
100
AcDbArc
50
-11.999999999978899
51
77.999999999988361
0
LWPOLYLINE
5
144
100
AcDbEntity
8
0
100
AcDbPolyline
90
8
70
1
43
0.0
10
577.64925251378577
20
287.36624692368355
42
-0.41421356237303258
10
576.64925251378565
20
288.36624692368355
10
576.64925251378565
20
300.36624692368372
42
-0.41421356237311585
10
577.64925251378577
20
301.3662469236836
10
589.64925251378588
20
301.36624692368372
42
-0.41421356237314705
10
590.64925251378565
20
300.36624692368372
10
590.64925251378577
20
288.36624692368355
42
-0.41421356237314705
10
589.64925251378577
20
287.36624692368355
0
LINE
5
145
100
AcDbEntity
8
0
100
AcDbLine
10
615.33925251378582
20
303.50624692368353
30
0
11
627.33925251378582
21
303.50624692368353
31
0
0
ARC
5
146
100
AcDbEntity
8
0
100
AcDbCircle
10
615.33925251378582
20
302.50624692368342
30
0
40
1.0000000000001563
100
AcDbArc
50
90
51
180
0
ARC
5
147
100
AcDbEntity
8
0
100
AcDbCircle
10
596.69925251378561
20
288.36624692368343
30
0
40
0.9999999999998721
100
AcDbArc
50
180
51
270
0
LINE
5
148
100
AcDbEntity
8
0
100
AcDbLine
10
595.69925251378572
20
288.36624692368343
30
0
11
595.69925251378561
21
300.36624692368372
31
0
0
ARC
5
149
100
AcDbEntity
8
0
100
AcDbCircle
10
596.69925251378561
20
300.36624692368372
30
0
40
0.99999999999994316
100
AcDbArc
50
90
51
180
0
ARC
5
150
100
AcDbEntity
8
0
100
AcDbCircle
10
861.55925454034264
20
250.26624692368441
30
0
40
1.0000000000028493
100
AcDbArc
50
-90.000116113157262
51
0
0
LINE
5
151
100
AcDbEntity
8
0
100
AcDbLine
10
849.55925251378574
20
249.26624692368361
30
0
11
861.55925251378574
21
249.26624692368361
31
0
0
ARC
5
152
100
AcDbEntity
8
0
100
AcDbCircle
10
849.55925597085582
20
250.26624692368446
30
0
40
1.0000034570700223
100
AcDbArc
50
180
51
269.99980192447583
0
LWPOLYLINE
5
153
100
AcDbEntity
8
0
100
AcDbPolyline
90
8
70
1
43
0.0
10
537.3692525137858
20
445.28624692368254
42
-0.41421356237314705
10
541.3692525137858
20
449.2862469236826
10
882.16925251378598
20
449.28624692368265
42
-0.41421356237307944
10
886.16925251378575
20
445.28624692368254
10
886.16925251378575
20
323.03624692368254
42
-0.41421356237308982
10
882.16925251378586
20
319.03624692368237
10
541.3692525137858
20
319.03624692368248
42
-0.41421356237309503
10
537.36925251378591
20
323.03624692368237
0
LWPOLYLINE
5
154
100
AcDbEntity
8
0
100
AcDbPolyline
90
8
70
1
43
0.0
10
882.16925251378586
20
-86.713753076317701
42
0.41421356237308593
10
886.16925251378575
20
-82.71375307631763
10
886.16925251378575
20
39.536246923682384
42
0.41421356237308915
10
882.16925251378586
20
43.536246923682469
10
541.3692525137858
20
43.536246923682391
42
0.41421356237308105
10
537.3692525137858
20
39.536246923682384
10
537.3692525137858
20
-82.71375307631763
42
0.41421356237308593
10
541.3692525137858
20
-86.713753076317559
0
ARC
5
155
100
AcDbEntity
8
0
100
AcDbCircle
10
568.40925048722613
20
245.21624616872745
30
0
40
1.0000000000001563
100
AcDbArc
50
90.000000000006523
51
180
0
LINE
5
156
100
AcDbEntity
8
0
100
AcDbLine
10
591.4092525137969
20
245.21624692368442
30
0
11
591.40925251378587
21
230.96624692368326
31
0
0
ARC
5
157
100
AcDbEntity
8
0
100
AcDbCircle
10
589.15924905671557
20
243.21624692368263
30
0
40
1.0000034570700223
100
AcDbArc
50
0
51
89.999801924475804
0
ARC
5
158
100
AcDbEntity
8
0
100
AcDbCircle
10
568.40925048722613
20
227.71624619269457
30
0
40
1.0000000000000853
100
AcDbArc
50
180
51
270.00000137318864
0
LINE
5
159
100
AcDbEntity
8
0
100
AcDbLine
10
589.15925251378565
20
244.21624692368366
30
0
11
577.15925251378553
21
244.21624692368371
31
0
0
LINE
5
160
100
AcDbEntity
8
0
100
AcDbLine
10
597.90925253776447
20
226.71624689971679
30
0
11
568.40925051119279
21
226.71624619269448
31
0
0
LINE
5
161
100
AcDbEntity
8
0
100
AcDbLine
10
590.65925251378553
20
230.46624692368368
30
0
11
590.90925251378599
21
230.46624692368371
31
0
0
ARC
5
162
100
AcDbEntity
8
0
100
AcDbCircle
10
592.40925251379679
20
245.21624692368377
30
0
40
0.99999999999980105
100
AcDbArc
50
89.999999999986969
51
180
0
LINE
5
163
100
AcDbEntity
8
0
100
AcDbLine
10
598.90925251379781
20
245.21624692368363
30
0
11
598.90925251379758
21
227.71624689971679
31
0
0
LINE
5
164
100
AcDbEntity
8
0
100
AcDbLine
10
592.40925251379701
20
246.21624692368357
30
0
11
597.90925251379781
21
246.2162469236836
31
0
0
ARC
5
165
100
AcDbEntity
8
0
100
AcDbCircle
10
597.90925251379792
20
245.21624692368391
30
0
40
0.99999999999980105
100
AcDbArc
50
0
51
90.000000000006523
0
LINE
5
166
100
AcDbEntity
8
0
100
AcDbLine
10
590.15925251378565
20
243.21624692368263
30
0
11
590.15925251378553
21
230.96624692368368
31
0
0
ARC
5
167
100
AcDbEntity
8
0
100
AcDbCircle
10
597.90925251379781
20
227.71624689971674
30
0
40
0.99999999999994338
100
AcDbArc
50
-89.999998626811347
51
0
0
ARC
5
168
100
AcDbEntity
8
0
100
AcDbCircle
10
573.90925048722636
20
245.21624616872799
30
0
40
0.99999999999965894
100
AcDbArc
50
0
51
90.000000000013031
0
ARC
5
169
100
AcDbEntity
8
0
100
AcDbCircle
10
577.15925048722875
20
243.21624692368289
30
0
40
1.0000000000028493
100
AcDbArc
50
89.999883886849247
51
180
0
LINE
5
170
100
AcDbEntity
8
0
100
AcDbLine
10
574.9092504872259
20
230.96624692368374
30
0
11
574.90925048722602
21
245.21624616872799
31
0
0
LINE
5
171
100
AcDbEntity
8
0
100
AcDbLine
10
576.1592504872259
20
243.21624692368289
30
0
11
576.1592504872259
21
230.96624692368377
31
0
0
LINE
5
172
100
AcDbEntity
8
0
100
AcDbLine
10
575.65925048722602
20
230.46624692368371
30
0
11
575.4092504872259
21
230.46624692368374
31
0
0
LINE
5
173
100
AcDbEntity
8
0
100
AcDbLine
10
573.90925048722613
20
246.21624616872765
30
0
11
568.40925048722602
21
246.21624616872762
31
0
0
LINE
5
174
100
AcDbEntity
8
0
100
AcDbLine
10
567.40925048722602
20
245.21624616872745
30
0
11
567.40925048722613
21
227.71624619269457
31
0
0
LINE
5
175
100
AcDbEntity
8
0
100
AcDbLine
10
645.96865886150272
20
205.58730572937506
30
0
11
649.60711345579671
21
222.70488876565969
31
0
0
ARC
5
176
100
AcDbEntity
8
0
100
AcDbCircle
10
652.3266182662735
20
204.23587973905921
30
0
40
0.99999999999978317
100
AcDbArc
50
257.99999999999466
51
347.99999999997073
0
LINE
5
177
100
AcDbEntity
8
0
100
AcDbLine
10
676.78031042386806
20
199.03808778572602
30
0
11
680.41876500819615
21
216.15567077512449
31
0
0
LINE
5
178
100
AcDbEntity
8
0
100
AcDbLine
10
654.94207043220331
20
211.73088040402007
30
0
11
653.30476586700695
21
204.02796804824101
31
0
0
LINE
5
179
100
AcDbEntity
8
0
100
AcDbLine
10
671.08150782659038
20
208.30033708417943
30
0
11
669.44420341836474
21
200.59742546685919
31
0
0
LINE
5
180
100
AcDbEntity
8
0
100
AcDbLine
10
656.16475493312555
20
211.47099079049616
30
0
11
654.94327374957129
21
205.72437363618477
31
0
0
LINE
5
181
100
AcDbEntity
8
0
100
AcDbLine
10
669.85882332567326
20
208.56022669770164
30
0
11
668.637342142119
21
202.8136095433905
31
0
0
LINE
5
182
100
AcDbEntity
8
0
100
AcDbLine
10
670.45185297144917
20
208.94534465265966
30
0
11
670.69638987163228
21
208.89336672995526
31
0
0
LINE
5
183
100
AcDbEntity
8
0
100
AcDbLine
10
655.7796369781679
20
212.06402043627185
30
0
11
655.53510007797945
21
212.11599835897749
31
0
0
LINE
5
184
100
AcDbEntity
8
0
100
AcDbLine
10
626.77240150166642
20
230.21624692368363
30
0
11
608.10925251378569
21
230.21624692368366
31
0
0
ARC
5
185
100
AcDbEntity
8
0
100
AcDbCircle
10
613.33925251378548
20
302.36624692368252
30
0
40
1.0000000000000497
100
AcDbArc
50
-90
51
0
0
ARC
5
186
100
AcDbEntity
8
0
100
AcDbCircle
10
694.58241588991314
20
273.1566167059334
30
0
40
1.0000000000000264
100
AcDbArc
50
77.999999999997712
51
167.99999999999386
0
ARC
5
187
100
AcDbEntity
8
0
100
AcDbCircle
10
689.98700116617431
20
251.53689023109081
30
0
40
0.99999999999970113
100
AcDbArc
50
167.9999999999898
51
258.00000000000068
0
ARC
5
188
100
AcDbEntity
8
0
100
AcDbCircle
10
690.68870702204413
20
231.91491565199786
30
0
40
0.99999999999984757
100
AcDbArc
50
167.99999999999093
51
257.99999999999534
0
ARC
5
189
100
AcDbEntity
8
0
100
AcDbCircle
10
681.72087824685889
20
217.47189757894418
30
0
40
0.9999999999999285
100
AcDbArc
50
77.965156899329116
51
168.00000000000981
0
ARC
5
190
100
AcDbEntity
8
0
100
AcDbCircle
10
648.95716726945147
20
224.45686671258341
30
0
40
0.99999999999983269
100
AcDbArc
50
-12.000000000005869
51
77.9651568993214
0
ARC
5
191
100
AcDbEntity
8
0
100
AcDbCircle
10
606.10925251378126
20
243.2162469236836
30
0
40
1.0000000000000142
100
AcDbArc
50
0
51
90
0
ARC
5
192
100
AcDbEntity
8
0
100
AcDbCircle
10
600.05925251378562
20
286.36624692368355
30
0
40
1.0000000000000142
100
AcDbArc
50
0
51
90
0
ARC
5
193
100
AcDbEntity
8
0
100
AcDbCircle
10
602.75925251378521
20
245.21624692368363
30
0
40
1.0000000000000142
100
AcDbArc
50
180
51
270
0
LINE
5
194
100
AcDbEntity
8
0
100
AcDbLine
10
606.10925251378126
20
244.21624692368363
30
0
11
602.75925251378521
21
244.21624692368363
31
0
0
LINE
5
195
100
AcDbEntity
8
0
100
AcDbLine
10
607.10925251378546
20
231.216246923684
30
0
11
607.10925251378126
21
243.2162469236836
31
0
0
LINE
5
196
100
AcDbEntity
8
0
100
AcDbLine
10
694.92389166440137
20
215.6795904434054
30
0
11
681.92938473699326
21
218.4499185621402
31
0
0
LINE
5
197
100
AcDbEntity
8
0
100
AcDbLine
10
649.16567375958596
20
225.43488769577931
30
0
11
627.30792921013085
21
230.09478935082058
31
0
0
LINE
5
198
100
AcDbEntity
8
0
100
AcDbLine
10
649.60711345579671
20
222.70488876565969
30
0
11
649.93531487018515
21
224.24895502176557
31
0
0
LINE
5
199
100
AcDbEntity
8
0
100
AcDbLine
10
680.41876500819615
20
216.15567077512449
30
0
11
680.7427306461251
21
217.67980926976176
31
0
0
ARC
5
200
100
AcDbEntity
8
0
100
AcDbCircle
10
627.51584090094889
20
231.07293695155454
30
0
40
1.0000000000002427
100
AcDbArc
50
248.17828523019261
51
257.9999999999863
0
LINE
5
201
100
AcDbEntity
8
0
100
AcDbLine
10
690.48079533122632
20
230.93676805126421
30
0
11
697.83465533584945
21
229.37365685367888
31
0
0
LINE
5
202
100
AcDbEntity
8
0
100
AcDbLine
10
692.48465533585022
20
249.98365685367887
30
0
11
689.77908947535661
21
250.55874263035724
31
0
0
LINE
5
203
100
AcDbEntity
8
0
100
AcDbLine
10
693.25489124576609
20
248.79759756212721
30
0
11
689.71055942131045
21
232.12282734281575
31
0
0
LINE
5
204
100
AcDbEntity
8
0
100
AcDbLine
10
693.60426828917934
20
273.36452839675127
30
0
11
689.00885356544086
21
251.74480192190867
31
0
0
LINE
5
205
100
AcDbEntity
8
0
100
AcDbLine
10
694.79032758073095
20
274.13476430666725
30
0
11
702.15389166440116
21
272.56959044340539
31
0
0
ARC
5
206
100
AcDbEntity
8
0
100
AcDbCircle
10
627.33925251378548
20
302.50624692368353
30
0
40
1.0000000000000684
100
AcDbArc
50
27.507907438493294
51
89.99999999998046
0
LINE
5
207
100
AcDbEntity
8
0
100
AcDbLine
10
614.3392525137856
20
302.36624692368252
30
0
11
614.33925251378571
21
302.50624692368342
31
0
0
LINE
5
208
100
AcDbEntity
8
0
100
AcDbLine
10
637.4257487451074
20
300.64075027372678
30
0
11
628.90523501980442
21
302.45184137483943
31
0
0
LINE
5
209
100
AcDbEntity
8
0
100
AcDbLine
10
596.69925251378561
20
301.36624692368366
30
0
11
613.33925251378548
21
301.36624692368247
31
0
0
LINE
5
210
100
AcDbEntity
8
0
100
AcDbLine
10
705.06465533585015
20
286.26365685367881
30
0
11
637.4257487451074
21
300.64075027372678
31
0
0
LINE
5
211
100
AcDbEntity
8
0
100
AcDbLine
10
600.05925251378562
20
287.3662469236836
30
0
11
596.69925251378561
21
287.36624692368355
31
0
0
ARC
5
212
100
AcDbEntity
8
0
100
AcDbCircle
10
858.75425251379716
20
302.36624692368372
30
0
40
0.99999999999980105
100
AcDbArc
50
89.999999999986969
51
180
0
LINE
5
213
100
AcDbEntity
8
0
100
AcDbLine
10
833.75425048722627
20
302.3662461687274
30
0
11
833.75425048722627
21
284.86624619269452
31
0
0
LINE
5
214
100
AcDbEntity
8
0
100
AcDbLine
10
840.25425048722639
20
303.36624616872757
30
0
11
834.75425048722627
21
303.36624616872763
31
0
0
LINE
5
215
100
AcDbEntity
8
0
100
AcDbLine
10
864.25425253776461
20
283.8662468997166
30
0
11
834.75425051119305
21
283.86624619269435
31
0
0
LINE
5
216
100
AcDbEntity
8
0
100
AcDbLine
10
865.25425251379818
20
302.36624692368383
30
0
11
865.25425251379772
21
284.86624689971666
31
0
0
LINE
5
217
100
AcDbEntity
8
0
100
AcDbLine
10
858.75425251379738
20
303.36624692368355
30
0
11
864.25425251379806
21
303.36624692368378
31
0
0
LINE
5
218
100
AcDbEntity
8
0
100
AcDbLine
10
857.75425251379727
20
302.36624692368372
30
0
11
857.75425251378635
21
288.11624692368321
31
0
0
LINE
5
219
100
AcDbEntity
8
0
100
AcDbLine
10
855.50425251378601
20
301.36624692368355
30
0
11
843.50425251378601
21
301.36624692368355
31
0
0
LINE
5
220
100
AcDbEntity
8
0
100
AcDbLine
10
842.00425048722639
20
287.61624692368372
30
0
11
841.75425048722627
21
287.61624692368372
31
0
0
LINE
5
221
100
AcDbEntity
8
0
100
AcDbLine
10
857.0042525137859
20
287.61624692368355
30
0
11
857.25425251378635
21
287.61624692368349
31
0
0
ARC
5
222
100
AcDbEntity
8
0
100
AcDbCircle
10
840.25425048722673
20
302.3662461687278
30
0
40
0.99999999999965894
100
AcDbArc
50
0
51
90.00000000001954
0
ARC
5
223
100
AcDbEntity
8
0
100
AcDbCircle
10
834.75425048722639
20
302.3662461687274
30
0
40
1.0000000000001563
100
AcDbArc
50
90.000000000006523
51
180
0
ARC
5
224
100
AcDbEntity
8
0
100
AcDbCircle
10
864.25425251379852
20
302.36624692368383
30
0
40
0.99999999999980105
100
AcDbArc
50
0
51
90.000000000026063
0
ARC
5
225
100
AcDbEntity
8
0
100
AcDbCircle
10
855.50424905671571
20
300.3662469236827
30
0
40
1.0000034570700223
100
AcDbArc
50
0
51
89.999801924462773
0
LINE
5
226
100
AcDbEntity
8
0
100
AcDbLine
10
856.50425251378579
20
300.3662469236827
30
0
11
856.50425251378579
21
288.1162469236836
31
0
0
ARC
5
227
100
AcDbEntity
8
0
100
AcDbCircle
10
843.50425048722911
20
300.36624692368275
30
0
40
1.0000000000028493
100
AcDbArc
50
89.999883886842738
51
180
0
ARC
5
228
100
AcDbEntity
8
0
100
AcDbCircle
10
834.75425048722639
20
284.86624619269452
30
0
40
1.0000000000000853
100
AcDbArc
50
180
51
270.00000137318864
0
LINE
5
229
100
AcDbEntity
8
0
100
AcDbLine
10
841.25425048722627
20
288.11624692368372
30
0
11
841.25425048722627
21
302.3662461687278
31
0
0
ARC
5
230
100
AcDbEntity
8
0
100
AcDbCircle
10
864.25425251379784
20
284.86624689971666
30
0
40
0.99999999999994338
100
AcDbArc
50
-89.999998626804825
51
0
0
LINE
5
231
100
AcDbEntity
8
0
100
AcDbLine
10
842.50425048722627
20
300.36624692368275
30
0
11
842.50425048722627
21
288.11624692368372
31
0
0
LWPOLYLINE
5
232
100
AcDbEntity
8
0
100
AcDbPolyline
90
24
70
1
43
0.0
10
566.49925251378613
20
404.17624692368344
42
-0.41421356237309503
10
564.99925251378636
20
402.67624692368344
10
562.92925251378631
20
402.67624692368344
42
0.4142135623730534
10
562.4292525137862
20
402.17624692368349
10
562.42925251378642
20
385.12624692368348
42
-0.41421356237301177
10
560.9292525137862
20
383.62624692368337
10
543.86925251378648
20
383.62624692368342
42
-0.4142135623730534
10
542.36925251378636
20
385.12624692368348
10
542.36925251378636
20
402.18624692368348
42
-0.41421356237308116
10
543.86925251378648
20
403.68624692368343
10
545.93925251378619
20
403.68624692368343
42
0.4142135623731783
10
546.43925251378619
20
404.18624692368337
10
546.43925251378607
20
421.23624692368338
42
-0.41421356237316442
10
547.9392525137863
20
422.73624692368372
10
550.09925251378627
20
422.7362469236835
42
0.41421356237321988
10
550.59925251378627
20
423.2362469236835
10
550.5992525137865
20
440.28624692368345
42
-0.41421356237313667
10
552.09925251378627
20
441.78624692368345
10
569.15925251378644
20
441.78624692368345
42
-0.41421356237306733
10
570.65925251378644
20
440.28624692368345
10
570.65925251378656
20
423.2262469236835
42
-0.41421356237301177
10
569.15925251378644
20
421.72624692368345
10
566.99925251378613
20
421.72624692368345
42
0.4142135623731783
10
566.49925251378613
20
421.22624692368345
0
LWPOLYLINE
5
233
100
AcDbEntity
8
0
100
AcDbPolyline
90
8
70
1
43
0.0
10
685.22675787399589
20
199.28757297915126
10
687.72169816380915
20
211.02534418795699
42
-0.41421356237318296
10
688.90775745536075
20
211.79558009787289
10
700.64552866416648
20
209.30063980805997
42
-0.41421356237328044
10
701.41576457408223
20
208.1145805165084
10
698.9208242842692
20
196.37680930770284
42
-0.4142135623730645
10
697.7347649927176
20
195.60657339778663
10
685.99699378391188
20
198.10151368759986
42
-0.41421356237327672
0
LINE
5
234
100
AcDbEntity
8
0
100
AcDbLine
10
862.55925454034536
20
250.26624692368441
30
0
11
862.55925454034525
21
262.51624692368352
31
0
0
LINE
5
235
100
AcDbEntity
8
0
100
AcDbLine
10
848.55925251378585
20
250.26624692368446
30
0
11
848.55925251378585
21
262.51624692368358
31
0
0
LINE
5
236
100
AcDbEntity
8
0
100
AcDbLine
10
863.05925454034525
20
263.01624692368352
30
0
11
863.30925454034525
21
263.01624692368352
31
0
0
LINE
5
237
100
AcDbEntity
8
0
100
AcDbLine
10
863.80925454034525
20
262.51624692368347
30
0
11
863.80925454034525
21
248.26624767863933
31
0
0
LINE
5
238
100
AcDbEntity
8
0
100
AcDbLine
10
864.80925454034536
20
247.26624767863967
30
0
11
870.30925454034559
21
247.26624767863964
31
0
0
LINE
5
239
100
AcDbEntity
8
0
100
AcDbLine
10
846.30925251377448
20
247.26624692368361
30
0
11
840.80925251377357
21
247.26624692368358
31
0
0
LINE
5
240
100
AcDbEntity
8
0
100
AcDbLine
10
871.30925454034525
20
248.26624767863976
30
0
11
871.30925454034525
21
265.76624765467272
31
0
0
LINE
5
241
100
AcDbEntity
8
0
100
AcDbLine
10
839.80925251377357
20
248.26624692368335
30
0
11
839.8092525137738
21
265.76624694765053
31
0
0
LINE
5
242
100
AcDbEntity
8
0
100
AcDbLine
10
840.80925248980691
20
266.76624694765047
30
0
11
870.30925451637881
21
266.76624765467284
31
0
0
LINE
5
243
100
AcDbEntity
8
0
100
AcDbLine
10
848.05925251378585
20
263.01624692368358
30
0
11
847.8092525137854
21
263.01624692368358
31
0
0
LINE
5
244
100
AcDbEntity
8
0
100
AcDbLine
10
847.30925251377448
20
248.26624692368341
30
0
11
847.3092525137854
21
262.51624692368398
31
0
0
ARC
5
245
100
AcDbEntity
8
0
100
AcDbCircle
10
870.30925454034514
20
265.76624765467272
30
0
40
1.0000000000000853
100
AcDbArc
50
0
51
90.000001373169113
0
ARC
5
246
100
AcDbEntity
8
0
100
AcDbCircle
10
870.30925454034514
20
248.26624767863976
30
0
40
1.0000000000001563
100
AcDbArc
50
-89.999999999973952
51
0
0
ARC
5
247
100
AcDbEntity
8
0
100
AcDbCircle
10
864.80925454034502
20
248.26624767863933
30
0
40
0.99999999999965894
100
AcDbArc
50
180
51
270.00000000001955
0
ARC
5
248
100
AcDbEntity
8
0
100
AcDbCircle
10
846.3092525137746
20
248.26624692368341
30
0
40
0.99999999999980105
100
AcDbArc
50
-90.000000000006523
51
0
0
ARC
5
249
100
AcDbEntity
8
0
100
AcDbCircle
10
840.80925251377323
20
248.26624692368335
30
0
40
0.99999999999980105
100
AcDbArc
50
180
51
270.00000000001955
0
ARC
5
250
100
AcDbEntity
8
0
100
AcDbCircle
10
840.8092525137738
20
265.76624694765053
30
0
40
0.99999999999994338
100
AcDbArc
50
90.000001373201684
51
180
0
ARC
5
251
100
AcDbEntity
8
0
100
AcDbCircle
10
670.42235101909807
20
200.38951377604121
30
0
40
0.99999999999973055
100
AcDbArc
50
167.99999999998207
51
258.00000000002683
0
LINE
5
252
100
AcDbEntity
8
0
100
AcDbLine
10
655.71350965948704
20
204.53831434463314
30
0
11
667.45128086829266
21
202.04337405481996
31
0
0
ARC
5
253
100
AcDbEntity
8
0
100
AcDbCircle
10
646.94680646223662
20
205.37939403855702
30
0
40
0.99999999999986222
100
AcDbArc
50
167.99999999998568
51
257.99999999998897
0
ARC
5
254
100
AcDbEntity
8
0
100
AcDbCircle
10
675.80216282313461
20
199.245999476544
30
0
40
1.0000000000001255
100
AcDbArc
50
257.99999999999272
51
347.9999999999834
0
LINE
5
255
100
AcDbEntity
8
0
100
AcDbLine
10
652.11870657545569
20
203.25773213832562
30
0
11
646.7388947714187
21
204.40124643782337
31
0
0
ARC
5
256
100
AcDbEntity
8
0
100
AcDbCircle
10
655.92142473183003
20
205.51646122660259
30
0
40
1.0000034570700822
100
AcDbArc
50
168.00000000005008
51
257.9998019244785
0
LINE
5
257
100
AcDbEntity
8
0
100
AcDbLine
10
601.05925251378562
20
286.36624692368355
30
0
11
601.05925251378562
21
269.31624692368354
31
0
0
ARC
5
258
100
AcDbEntity
8
0
100
AcDbCircle
10
602.05925251378562
20
269.31624692368348
30
0
40
0.99999999999994316
100
AcDbArc
50
180
51
229.45839812649515
0
LINE
5
259
100
AcDbEntity
8
0
100
AcDbLine
10
601.75925251378567
20
267.79637850832631
30
0
11
601.75925251378521
21
245.21624692368363
31
0
0
ARC
5
260
100
AcDbEntity
8
0
100
AcDbCircle
10
626.77240150166642
20
229.21624692368385
30
0
40
0.99999999999976763
100
AcDbArc
50
68.178285230202292
51
90
0
ARC
5
261
100
AcDbEntity
8
0
100
AcDbCircle
10
600.75925251378521
20
267.7963785083262
30
0
40
1.0000000000004405
100
AcDbArc
50
0
51
49.458398126485939
0
ARC
5
262
100
AcDbEntity
8
0
100
AcDbCircle
10
629.11314671062189
20
303.42998897557294
30
0
40
0.9999999999996384
100
AcDbArc
50
207.50790743849089
51
258.00000000001279
0
CIRCLE
5
263
100
AcDbEntity
8
0
100
AcDbCircle
10
545.11925251378443
20
219.88624692368359
30
0
40
2.0000000000000044
0
CIRCLE
5
264
100
AcDbEntity
8
0
100
AcDbCircle
10
545.11925251378443
20
215.38624692368359
30
0
40
2.000000000000016
0
CIRCLE
5
265
100
AcDbEntity
8
0
100
AcDbCircle
10
545.11925251378443
20
210.88624692368359
30
0
40
2.000000000000016
0
ARC
5
266
100
AcDbEntity
8
0
100
AcDbCircle
10
841.75425048722627
20
288.11624692368366
30
0
40
0.49999999999997158
100
AcDbArc
50
180
51
270
0
ARC
5
267
100
AcDbEntity
8
0
100
AcDbCircle
10
842.00425048722639
20
288.11624692368366
30
0
40
0.49999999999997158
100
AcDbArc
50
-90
51
0
0
ARC
5
268
100
AcDbEntity
8
0
100
AcDbCircle
10
857.0042525137859
20
288.1162469236836
30
0
40
0.50000000000011369
100
AcDbArc
50
180
51
270
0
ARC
5
269
100
AcDbEntity
8
0
100
AcDbCircle
10
857.25425251378624
20
288.1162469236836
30
0
40
0.50000000000011369
100
AcDbArc
50
270.00000000001302
51
360
0
ARC
5
270
100
AcDbEntity
8
0
100
AcDbCircle
10
847.8092525137854
20
262.51624692368358
30
0
40
0.50000000000000711
100
AcDbArc
50
90
51
180
0
ARC
5
271
100
AcDbEntity
8
0
100
AcDbCircle
10
848.05925251378585
20
262.51624692368358
30
0
40
0.49999999999997158
100
AcDbArc
50
0
51
90
0
ARC
5
272
100
AcDbEntity
8
0
100
AcDbCircle
10
863.05925454034525
20
262.51624692368352
30
0
40
0.49999999999997158
100
AcDbArc
50
90
51
180
0
ARC
5
273
100
AcDbEntity
8
0
100
AcDbCircle
10
863.30925454034525
20
262.51624692368352
30
0
40
0.49999999999997158
100
AcDbArc
50
0
51
90
0
ARC
5
274
100
AcDbEntity
8
0
100
AcDbCircle
10
655.43114423256998
20
211.62692455861091
30
0
40
0.49999999999981865
100
AcDbArc
50
77.999999999925862
51
167.99999999996297
0
ARC
5
275
100
AcDbEntity
8
0
100
AcDbCircle
10
655.67568113275888
20
211.57494663590518
30
0
40
0.49999999999979949
100
AcDbArc
50
-12.000000000021135
51
77.999999999978868
0
ARC
5
276
100
AcDbEntity
8
0
100
AcDbCircle
10
670.34789712604038
20
208.4562708522925
30
0
40
0.50000000000022693
100
AcDbArc
50
78.000000000015859
51
167.99999999997701
0
ARC
5
277
100
AcDbEntity
8
0
100
AcDbCircle
10
670.59243402622315
20
208.40429292958814
30
0
40
0.50000000000028899
100
AcDbArc
50
-11.999999999972538
51
77.99999999997695
0
ARC
5
278
100
AcDbEntity
8
0
100
AcDbCircle
10
575.40925048722579
20
230.96624692368357
30
0
40
0.49999999999982947
100
AcDbArc
50
180
51
270.00000000001302
0
ARC
5
279
100
AcDbEntity
8
0
100
AcDbCircle
10
575.6592504872259
20
230.96624692368377
30
0
40
0.50000000000004263
100
AcDbArc
50
-89.999999999986969
51
0
0
ARC
5
280
100
AcDbEntity
8
0
100
AcDbCircle
10
590.65925251378553
20
230.96624692368374
30
0
40
0.50000000000004263
100
AcDbArc
50
180
51
270
0
ARC
5
281
100
AcDbEntity
8
0
100
AcDbCircle
10
590.9092525137861
20
230.96624692368354
30
0
40
0.49999999999982947
100
AcDbArc
50
269.99999999998698
51
360
0
LINE
5
282
100
AcDbEntity
8
0
100
AcDbLine
10
882.16925251378586
20
314.03624692368237
30
0
11
717.1192525137858
21
314.03624692368243
31
0
0
LINE
5
283
100
AcDbEntity
8
0
100
AcDbLine
10
706.41925251378575
20
314.03624692368243
30
0
11
541.3692525137858
21
314.03624692368237
31
0
0
ARC
5
284
100
AcDbEntity
8
0
100
AcDbCircle
10
717.11925251378591
20
313.53624692368237
30
0
40
0.50000000000007816
100
AcDbArc
50
90.000000000013031
51
180
0
ARC
5
285
100
AcDbEntity
8
0
100
AcDbCircle
10
706.41925251378564
20
313.53624692368237
30
0
40
0.50000000000011369
100
AcDbArc
50
0
51
89.999999999986969
0
ARC
5
286
100
AcDbEntity
8
0
100
AcDbCircle
10
707.41925251378586
20
303.2704840782572
30
0
40
0.50000000000011369
100
AcDbArc
50
180
51
269.99999999998698
0
ARC
5
287
100
AcDbEntity
8
0
100
AcDbCircle
10
716.11925251378568
20
303.2704840782572
30
0
40
0.50000000000007816
100
AcDbArc
50
270.00000000001302
51
360
0
LINE
5
288
100
AcDbEntity
8
0
100
AcDbLine
10
706.91925251378575
20
313.53624692368243
30
0
11
706.91925251378575
21
303.27048407825714
31
0
0
LINE
5
289
100
AcDbEntity
8
0
100
AcDbLine
10
707.41925251378575
20
302.77048407825708
30
0
11
716.1192525137858
21
302.77048407825714
31
0
0
LINE
5
290
100
AcDbEntity
8
0
100
AcDbLine
10
716.6192525137858
20
303.27048407825714
30
0
11
716.6192525137858
21
313.53624692368243
31
0
0
LINE
5
291
100
AcDbEntity
8
0
100
AcDbLine
10
717.11925251378557
20
178.78624692368243
30
0
11
882.16925251378586
21
178.78624692368248
31
0
0
LINE
5
292
100
AcDbEntity
8
0
100
AcDbLine
10
706.41925251378564
20
178.78624692368243
30
0
11
541.3692525137858
21
178.78624692368248
31
0
0
ARC
5
293
100
AcDbEntity
8
0
100
AcDbCircle
10
706.41925251378564
20
178.28624692368243
30
0
40
0.49999999999997158
100
AcDbArc
50
0
51
90
0
ARC
5
294
100
AcDbEntity
8
0
100
AcDbCircle
10
717.11925251378557
20
178.28624692368243
30
0
40
0.49999999999997158
100
AcDbArc
50
90
51
180
0
LINE
5
295
100
AcDbEntity
8
0
100
AcDbLine
10
706.91925251378564
20
178.2862469236824
30
0
11
716.61925251378557
21
178.2862469236824
31
0
0
CIRCLE
5
296
100
AcDbEntity
8
0
100
AcDbCircle
10
767.16925251378586
20
444.28624692368254
30
0
40
1.7499999999999343
0
CIRCLE
5
297
100
AcDbEntity
8
0
100
AcDbCircle
10
656.3692525137858
20
444.28624692368254
30
0
40
1.7499999999999716
0
CIRCLE
5
298
100
AcDbEntity
8
0
100
AcDbCircle
10
656.3692525137858
20
324.03624692368254
30
0
40
1.7499999999999716
0
CIRCLE
5
299
100
AcDbEntity
8
0
100
AcDbCircle
10
767.16925251378586
20
324.03624692368254
30
0
40
1.7500000000000637
0
CIRCLE
5
300
100
AcDbEntity
8
0
100
AcDbCircle
10
881.16925251378575
20
324.03624692368237
30
0
40
1.7500000000000404
0
CIRCLE
5
301
100
AcDbEntity
8
0
100
AcDbCircle
10
542.36925251378591
20
324.03624692368254
30
0
40
1.7499999999999813
0
CIRCLE
5
302
100
AcDbEntity
8
0
100
AcDbCircle
10
542.3692525137858
20
444.2862469236826
30
0
40
1.7499999999999762
0
CIRCLE
5
303
100
AcDbEntity
8
0
100
AcDbCircle
10
881.16925251378575
20
444.28624692368265
30
0
40
1.7499999999999907
0
CIRCLE
5
304
100
AcDbEntity
8
0
100
AcDbCircle
10
767.16925251378598
20
309.03624692368237
30
0
40
1.7499999999999343
0
CIRCLE
5
305
100
AcDbEntity
8
0
100
AcDbCircle
10
656.36925251378602
20
309.03624692368237
30
0
40
1.7499999999999716
0
CIRCLE
5
306
100
AcDbEntity
8
0
100
AcDbCircle
10
881.16925251378586
20
309.03624692368248
30
0
40
1.7499999999999907
0
CIRCLE
5
307
100
AcDbEntity
8
0
100
AcDbCircle
10
542.36925251378591
20
309.03624692368243
30
0
40
1.7499999999999762
0
CIRCLE
5
308
100
AcDbEntity
8
0
100
AcDbCircle
10
542.36925251378602
20
188.78624692368237
30
0
40
1.7499999999999813
0
CIRCLE
5
309
100
AcDbEntity
8
0
100
AcDbCircle
10
656.36925251378602
20
188.78624692368237
30
0
40
1.7499999999999716
0
CIRCLE
5
310
100
AcDbEntity
8
0
100
AcDbCircle
10
767.16925251378598
20
188.78624692368237
30
0
40
1.7500000000000637
0
CIRCLE
5
311
100
AcDbEntity
8
0
100
AcDbCircle
10
881.16925251378586
20
188.78624692368223
30
0
40
1.7500000000000404
0
CIRCLE
5
312
100
AcDbEntity
8
0
100
AcDbCircle
10
767.16925251378598
20
173.78624692368237
30
0
40
1.7499999999999343
0
CIRCLE
5
313
100
AcDbEntity
8
0
100
AcDbCircle
10
656.36925251378602
20
173.78624692368237
30
0
40
1.7499999999999716
0
CIRCLE
5
314
100
AcDbEntity
8
0
100
AcDbCircle
10
881.16925251378586
20
173.78624692368251
30
0
40
1.7499999999999907
0
CIRCLE
5
315
100
AcDbEntity
8
0
100
AcDbCircle
10
542.36925251378591
20
173.78624692368246
30
0
40
1.7499999999999762
0
CIRCLE
5
316
100
AcDbEntity
8
0
100
AcDbCircle
10
542.36925251378602
20
53.536246923682391
30
0
40
1.7499999999999813
0
CIRCLE
5
317
100
AcDbEntity
8
0
100
AcDbCircle
10
656.36925251378602
20
53.536246923682391
30
0
40
1.7499999999999716
0
CIRCLE
5
318
100
AcDbEntity
8
0
100
AcDbCircle
10
767.16925251378598
20
53.536246923682391
30
0
40
1.7500000000000637
0
CIRCLE
5
319
100
AcDbEntity
8
0
100
AcDbCircle
10
881.16925251378586
20
53.536246923682249
30
0
40
1.7500000000000404
0
CIRCLE
5
320
100
AcDbEntity
8
0
100
AcDbCircle
10
767.16925251378586
20
38.536246923682427
30
0
40
1.25
0
CIRCLE
5
321
100
AcDbEntity
8
0
100
AcDbCircle
10
656.3692525137858
20
38.536246923682427
30
0
40
1.25
0
CIRCLE
5
322
100
AcDbEntity
8
0
100
AcDbCircle
10
881.16925251378575
20
38.536246923682569
30
0
40
1.25
0
CIRCLE
5
323
100
AcDbEntity
8
0
100
AcDbCircle
10
542.3692525137858
20
38.536246923682498
30
0
40
1.25
0
CIRCLE
5
324
100
AcDbEntity
8
0
100
AcDbCircle
10
542.36925251378591
20
-81.713753076317559
30
0
40
1.25
0
CIRCLE
5
325
100
AcDbEntity
8
0
100
AcDbCircle
10
656.3692525137858
20
-81.713753076317559
30
0
40
1.25
0
CIRCLE
5
326
100
AcDbEntity
8
0
100
AcDbCircle
10
767.16925251378586
20
-81.713753076317559
30
0
40
1.25
0
CIRCLE
5
327
100
AcDbEntity
8
0
100
AcDbCircle
10
881.16925251378575
20
-81.713753076317701
30
0
40
1.25
0
ENDSEC
0
SECTION
2
OBJECTS
0
DICTIONARY
5
C
100
AcDbDictionary
3
ACAD_GROUP
350
D
3
ACAD_MLINESTYLE
350
17
0
DICTIONARY
5
D
100
AcDbDictionary
0
DICTIONARY
5
1A
330
C
100
AcDbDictionary
0
DICTIONARY
5
17
100
AcDbDictionary
0
ENDSEC
0
EOF
