<?xml version="1.0" encoding="UTF-8" standalone="no"?>
<svg
   xmlns:dc="http://purl.org/dc/elements/1.1/"
   xmlns:cc="http://creativecommons.org/ns#"
   xmlns:rdf="http://www.w3.org/1999/02/22-rdf-syntax-ns#"
   xmlns:svg="http://www.w3.org/2000/svg"
   xmlns="http://www.w3.org/2000/svg"
   xmlns:sodipodi="http://sodipodi.sourceforge.net/DTD/sodipodi-0.dtd"
   xmlns:inkscape="http://www.inkscape.org/namespaces/inkscape"
   inkscape:version="1.0 (4035a4fb49, 2020-05-01)"
   sodipodi:docname="PlateD.svg"
   id="svg6779"
   version="1.1"
   height="1122.5196850393702"
   width="793.7007874015749"
   viewBox="0 0 793.7007874015749 1122.5196850393702">
  <metadata
     id="metadata6783">
    <rdf:RDF>
      <cc:Work
         rdf:about="">
        <dc:format>image/svg+xml</dc:format>
        <dc:type
           rdf:resource="http://purl.org/dc/dcmitype/StillImage" />
        <dc:title></dc:title>
      </cc:Work>
    </rdf:RDF>
  </metadata>
  <sodipodi:namedview
     inkscape:current-layer="g6771"
     inkscape:window-maximized="1"
     inkscape:window-y="-8"
     inkscape:window-x="-8"
     inkscape:cy="561.25983"
     inkscape:cx="396.8504"
     inkscape:zoom="0.76613358"
     showgrid="false"
     id="namedview6781"
     inkscape:window-height="1027"
     inkscape:window-width="2560"
     inkscape:pageshadow="2"
     inkscape:pageopacity="0"
     guidetolerance="10"
     gridtolerance="10"
     objecttolerance="10"
     borderopacity="1"
     bordercolor="#666666"
     pagecolor="#ffffff" />
  <defs
     id="defs6749">
    <marker
       style="overflow:visible"
       refY="0.0"
       refX="0.0"
       orient="auto"
       id="DistanceX">
      <path
         id="path6737"
         style="stroke:#000000; stroke-width:0.5"
         d="M 3,-3 L -3,3 M 0,-5 L  0,5" />
    </marker>
    <pattern
       y="0"
       x="0"
       height="8"
       width="8"
       patternUnits="userSpaceOnUse"
       id="Hatch">
      <path
         id="path6740"
         linecap="square"
         stroke-width="0.25"
         stroke="#000000"
         d="M8 4 l-4,4" />
      <path
         id="path6742"
         linecap="square"
         stroke-width="0.25"
         stroke="#000000"
         d="M6 2 l-4,4" />
      <path
         id="path6744"
         linecap="square"
         stroke-width="0.25"
         stroke="#000000"
         d="M4 0 l-4,4" />
    </pattern>
    <symbol
       id="*Model_Space" />
    <symbol
       id="*Paper_Space" />
  </defs>
  <g
     id="g6771"
     inkscape:label="Holes"
     inkscape:groupmode="layer">
    <path
       id="path6753"
       style="fill:none;stroke:#FF0000"
       d="M 697.730676,625.658060 A 3.779516,3.779516 0.0 0 0 696.159077,625.658060 L 339.298575,701.511099 A 3.779254,3.779254 0.0 0 1 338.512774,701.593697 L 62.480273,701.593697 A 5.669294,5.669294 0.0 0 0 56.810974,707.263000 L 56.810974,1063.823630 A 5.669294,5.669294 0.0 0 0 62.480273,1069.492917 L 673.227575,1069.492917 A 3.779531,3.779531 0.0 0 1 677.007077,1073.272437 L 677.007077,1089.040248 A 3.795704,3.795704 0.0 0 0 681.070874,1092.819780 L 712.818875,1092.819780 A 3.795710,3.795710 0.0 0 0 716.882676,1089.040248 L 716.882676,1073.272437 A 3.779526,3.779526 0.0 0 1 720.662173,1069.492917 L 1329.524375,1069.492917 A 5.669294,5.669294 0.0 0 0 1335.193674,1063.823630 L 1335.193674,707.263000 A 5.669294,5.669294 0.0 0 0 1329.524375,701.593697 L 1055.376975,701.593697 A 3.779308,3.779308 0.0 0 1 1054.591174,701.511099 L 697.730676,625.658060 z" />
    <path
       id="path6755"
       style="fill:none;stroke:#FF0000"
       d="M 62.834678,626.462297 A 6.136154,6.136154 -0.000000 1 0 50.562370,626.462297 6.136154,6.136154 -0.000000 1 0 62.834678,626.462297 z" />
    <path
       id="path6757"
       style="fill:none;stroke:#FF0000"
       d="M 493.700776,626.456698 A 6.141751,6.141751 -0.000000 1 0 481.417274,626.456698 6.141751,6.141751 -0.000000 1 0 493.700776,626.456698 z" />
    <path
       id="path6759"
       style="fill:none;stroke:#FF0000"
       d="M 912.472476,626.456699 A 6.141750,6.141750 -0.000000 1 0 900.188976,626.456699 6.141750,6.141750 -0.000000 1 0 912.472476,626.456699 z" />
    <path
       id="path6761"
       style="fill:none;stroke:#FF0000"
       d="M 1343.338576,626.456698 A 6.141750,6.141750 -0.000000 1 0 1331.055076,626.456698 6.141750,6.141750 -0.000000 1 0 1343.338576,626.456698 z" />
    <path
       id="path6763"
       style="fill:none;stroke:#FF0000"
       d="M 1343.338576,1080.944888 A 6.141750,6.141750 -0.000000 1 0 1331.055076,1080.944888 6.141750,6.141750 -0.000000 1 0 1343.338576,1080.944888 z" />
    <path
       id="path6765"
       style="fill:none;stroke:#FF0000"
       d="M 912.472476,1080.944888 A 6.141750,6.141750 -0.000000 1 0 900.188975,1080.944888 6.141750,6.141750 -0.000000 1 0 912.472476,1080.944888 z" />
    <path
       id="path6767"
       style="fill:none;stroke:#FF0000"
       d="M 493.700775,1080.944887 A 6.141750,6.141750 -0.000000 1 0 481.417274,1080.944887 6.141750,6.141750 -0.000000 1 0 493.700775,1080.944887 z" />
    <path
       id="path6769"
       style="fill:none;stroke:#FF0000"
       d="M 62.834675,1080.944888 A 6.141750,6.141750 -0.000000 1 0 50.551175,1080.944888 6.141750,6.141750 -0.000000 1 0 62.834675,1080.944888 z" />
  </g>
  <g
     id="g6775"
     inkscape:label="Part"
     inkscape:groupmode="layer">
    <path
       id="path6773"
       style="fill:none;stroke:#00FF00"
       d="M 1340.976374,607.559059 A 15.118108,15.118108 0.0 0 1 1356.094473,622.677169 L 1356.094473,1084.724409 A 15.118110,15.118110 0.0 0 1 1340.976374,1099.842520 L 52.913374,1099.842520 A 15.118110,15.118110 0.0 0 1 37.795276,1084.724409 L 37.795276,622.677169 A 15.118108,15.118108 0.0 0 1 52.913374,607.559059 L 1340.976374,607.559059 z" />
  </g>
  <desc
     id="desc6777">PlateD.dxf - scale = 1.000000, origin = (0.000000, 0.000000), method = manual</desc>
</svg>
