999
"DXF R12 Output" (www.mydxf.blogspot.com)
 0 
SECTION
 2 
HEADER
 9 
$ACADVER
 1 
AC1009
 9 
$EXTMIN
 10 
 0 
 20 
 0 
 9 
$EXTMAX
 10 
 8.5 
 20 
 11 
 0 
ENDSEC
 0 
SECTION
 2 
ENTITIES
0
LINE
8
Layer 1
10
3.000000
20
-3.000000
11
-3.000000
21
3.000000
0
LINE
8
Layer 1
10
0.000000
20
-5.000000
11
0.000000
21
5.000000
0
LINE
8
Layer 1
10
8.000000
20
4.000000
11
4.000000
21
8.000000
0
LINE
8
Layer 1
10
6.000000
20
2.000000
11
2.000000
21
6.000000
0
LINE
8
Layer 1
10
4.000000
20
0.000000
11
0.000000
21
4.000000
0
LINE
8
holes
10
1108.950000
20
835.956000
11
1109.711702
21
836.032792
0
LINE
8
holes
10
1109.711702
20
836.032792
11
1110.421154
21
836.253023
0
LINE
8
holes
10
1110.421154
20
836.253023
11
1111.622512
21
837.063009
0
LINE
8
holes
10
1111.622512
20
837.063009
11
1112.432489
21
838.264374
0
LINE
8
holes
10
1112.432489
20
838.264374
11
1112.652714
21
838.973827
0
LINE
8
holes
10
1112.652714
20
838.973827
11
1112.729500
21
839.735530
0
LINE
8
holes
10
1112.729500
20
839.735530
11
1112.729500
21
925.077730
0
LINE
8
holes
10
1112.729500
20
925.077730
11
1112.818150
21
925.891591
0
LINE
8
holes
10
1112.818150
20
925.891591
11
1113.076130
21
926.658832
0
LINE
8
holes
10
1113.076130
20
926.658832
11
1113.491520
21
927.353572
0
LINE
8
holes
10
1113.491520
20
927.353572
11
1114.052400
21
927.949930
0
LINE
8
holes
10
1114.052400
20
927.949930
11
1114.613251
21
928.546296
0
LINE
8
holes
10
1114.613251
20
928.546296
11
1115.028614
21
929.241036
0
LINE
8
holes
10
1115.028614
20
929.241036
11
1115.286570
21
930.008271
0
LINE
8
holes
10
1115.286570
20
930.008271
11
1115.375200
21
930.822120
0
LINE
8
holes
10
1115.375200
20
930.822120
11
1115.375200
21
995.263020
0
LINE
8
holes
10
1115.375200
20
995.263020
11
1115.451986
21
996.024723
0
LINE
8
holes
10
1115.451986
20
996.024723
11
1115.672211
21
996.734176
0
LINE
8
holes
10
1115.672211
20
996.734176
11
1116.482188
21
997.935541
0
LINE
8
holes
10
1116.482188
20
997.935541
11
1117.683546
21
998.745527
0
LINE
8
holes
10
1117.683546
20
998.745527
11
1118.392998
21
998.965758
0
LINE
8
holes
10
1118.392998
20
998.965758
11
1119.154700
21
999.042550
0
LINE
8
holes
10
1119.154700
20
999.042550
11
1131.853900
21
999.042550
0
LINE
8
holes
10
1131.853900
20
999.042550
11
1133.300273
21
999.330225
0
LINE
8
holes
10
1133.300273
20
999.330225
11
1134.526459
21
1000.149506
0
LINE
8
holes
10
1134.526459
20
1000.149506
11
1135.345779
21
1001.375666
0
LINE
8
holes
10
1135.345779
20
1001.375666
11
1135.633500
21
1002.822030
0
LINE
8
holes
10
1135.633500
20
1002.822030
11
1135.633500
21
1048.176430
0
LINE
8
holes
10
1135.633500
20
1048.176430
11
1135.345785
21
1049.622800
0
LINE
8
holes
10
1135.345785
20
1049.622800
11
1134.526466
21
1050.848967
0
LINE
8
holes
10
1134.526466
20
1050.848967
11
1133.300278
21
1051.668253
0
LINE
8
holes
10
1133.300278
20
1051.668253
11
1131.853900
21
1051.955930
0
LINE
8
holes
10
1131.853900
20
1051.955930
11
1068.962600
21
1051.955930
0
LINE
8
holes
10
1068.962600
20
1051.955930
11
1068.200902
21
1052.032721
0
LINE
8
holes
10
1068.200902
20
1052.032721
11
1067.491453
21
1052.252950
0
LINE
8
holes
10
1067.491453
20
1052.252950
11
1066.290099
21
1053.062929
0
LINE
8
holes
10
1066.290099
20
1053.062929
11
1065.480120
21
1054.264283
0
LINE
8
holes
10
1065.480120
20
1054.264283
11
1065.259891
21
1054.973732
0
LINE
8
holes
10
1065.259891
20
1054.973732
11
1065.183100
21
1055.735430
0
LINE
8
holes
10
1065.183100
20
1055.735430
11
1065.183100
21
1056.264630
0
LINE
8
holes
10
1065.183100
20
1056.264630
11
1065.120847
21
1057.010171
0
LINE
8
holes
10
1065.120847
20
1057.010171
11
1064.913210
21
1057.721288
0
LINE
8
holes
10
1064.913210
20
1057.721288
11
1064.568632
21
1058.377083
0
LINE
8
holes
10
1064.568632
20
1058.377083
11
1064.095556
21
1058.956657
0
LINE
8
holes
10
1064.095556
20
1058.956657
11
1063.515969
21
1059.429718
0
LINE
8
holes
10
1063.515969
20
1059.429718
11
1062.860165
21
1059.774279
0
LINE
8
holes
10
1062.860165
20
1059.774279
11
1062.149043
21
1059.981897
0
LINE
8
holes
10
1062.149043
20
1059.981897
11
1061.403500
21
1060.044130
0
LINE
8
holes
10
1061.403500
20
1060.044130
11
1016.049200
21
1060.044130
0
LINE
8
holes
10
1016.049200
20
1060.044130
11
1015.022442
21
1059.902090
0
LINE
8
holes
10
1015.022442
20
1059.902090
11
1014.088723
21
1059.495880
0
LINE
8
holes
10
1014.088723
20
1059.495880
11
1013.297192
21
1058.855319
0
LINE
8
holes
10
1013.297192
20
1058.855319
11
1012.697000
21
1058.010230
0
LINE
8
holes
10
1012.697000
20
1058.010230
11
1012.231317
21
1057.316040
0
LINE
8
holes
10
1012.231317
20
1057.316040
11
1011.632249
21
1056.747193
0
LINE
8
holes
10
1011.632249
20
1056.747193
11
1010.923932
21
1056.322040
0
LINE
8
holes
10
1010.923932
20
1056.322040
11
1010.130500
21
1056.058930
0
LINE
8
holes
10
1010.130500
20
1056.058930
11
977.927000
21
1049.213930
0
LINE
8
holes
10
977.927000
20
1049.213930
11
722.284000
21
994.875230
0
LINE
8
holes
10
722.284000
20
994.875230
11
721.554907
21
994.641751
0
LINE
8
holes
10
721.554907
20
994.641751
11
720.906746
21
994.278830
0
LINE
8
holes
10
720.906746
20
994.278830
11
719.900043
21
993.236768
0
LINE
8
holes
10
719.900043
20
993.236768
11
719.357541
21
991.893252
0
LINE
8
holes
10
719.357541
20
991.893252
11
719.289631
21
991.153514
0
LINE
8
holes
10
719.289631
20
991.153514
11
719.372890
21
990.392490
0
LINE
8
holes
10
719.372890
20
990.392490
11
728.802600
21
946.029290
0
LINE
8
holes
10
728.802600
20
946.029290
11
729.009719
21
945.306900
0
LINE
8
holes
10
729.009719
20
945.306900
11
729.355772
21
944.648436
0
LINE
8
holes
10
729.355772
20
944.648436
11
729.827761
21
944.073498
0
LINE
8
holes
10
729.827761
20
944.073498
11
730.412687
21
943.601685
0
LINE
8
holes
10
730.412687
20
943.601685
11
731.081616
21
943.259225
0
LINE
8
holes
10
731.081616
20
943.259225
11
731.798821
21
943.061881
0
LINE
8
holes
10
731.798821
20
943.061881
11
732.541110
21
943.013559
0
LINE
8
holes
10
732.541110
20
943.013559
11
733.285290
21
943.118160
0
LINE
8
holes
10
733.285290
20
943.118160
11
761.116090
21
949.033780
0
LINE
8
holes
10
761.116090
20
949.033780
11
762.590678
21
949.053101
0
LINE
8
holes
10
762.590678
20
949.053101
11
763.960412
21
948.506644
0
LINE
8
holes
10
763.960412
20
948.506644
11
765.016757
21
947.477606
0
LINE
8
holes
10
765.016757
20
947.477606
11
765.598890
21
946.122650
0
LINE
8
holes
10
765.598890
20
946.122650
11
782.967290
21
864.410250
0
LINE
8
holes
10
782.967290
20
864.410250
11
783.050549
21
863.649226
0
LINE
8
holes
10
783.050549
20
863.649226
11
782.982639
21
862.909488
0
LINE
8
holes
10
782.982639
20
862.909488
11
782.440137
21
861.565972
0
LINE
8
holes
10
782.440137
20
861.565972
11
781.433434
21
860.523910
0
LINE
8
holes
10
781.433434
20
860.523910
11
780.785273
21
860.160989
0
LINE
8
holes
10
780.785273
20
860.160989
11
780.056180
21
859.927510
0
LINE
8
holes
10
780.056180
20
859.927510
11
769.830480
21
857.753950
0
LINE
8
holes
10
769.830480
20
857.753950
11
768.475519
21
857.171839
0
LINE
8
holes
10
768.475519
20
857.171839
11
767.446466
21
856.115514
0
LINE
8
holes
10
767.446466
20
856.115514
11
766.899987
21
854.745795
0
LINE
8
holes
10
766.899987
20
854.745795
11
766.919280
21
853.271210
0
LINE
8
holes
10
766.919280
20
853.271210
11
780.315180
21
790.248410
0
LINE
8
holes
10
780.315180
20
790.248410
11
780.398441
21
789.487386
0
LINE
8
holes
10
780.398441
20
789.487386
11
780.330533
21
788.747647
0
LINE
8
holes
10
780.330533
20
788.747647
11
779.788035
21
787.404129
0
LINE
8
holes
10
779.788035
20
787.404129
11
778.781334
21
786.362063
0
LINE
8
holes
10
778.781334
20
786.362063
11
778.133173
21
785.999141
0
LINE
8
holes
10
778.133173
20
785.999141
11
777.404080
21
785.765660
0
LINE
8
holes
10
777.404080
20
785.765660
11
749.609980
21
779.857840
0
LINE
8
holes
10
749.609980
20
779.857840
11
748.880885
21
779.624361
0
LINE
8
holes
10
748.880885
20
779.624361
11
748.232723
21
779.261439
0
LINE
8
holes
10
748.232723
20
779.261439
11
747.226019
21
778.219374
0
LINE
8
holes
10
747.226019
20
778.219374
11
746.683518
21
776.875855
0
LINE
8
holes
10
746.683518
20
776.875855
11
746.615609
21
776.136115
0
LINE
8
holes
10
746.615609
20
776.136115
11
746.698870
21
775.375090
0
LINE
8
holes
10
746.698870
20
775.375090
11
756.128580
21
731.011890
0
LINE
8
holes
10
756.128580
20
731.011890
11
756.362054
21
730.282799
0
LINE
8
holes
10
756.362054
20
730.282799
11
756.724969
21
729.634639
0
LINE
8
holes
10
756.724969
20
729.634639
11
757.767019
21
728.627934
0
LINE
8
holes
10
757.767019
20
728.627934
11
759.110525
21
728.085424
0
LINE
8
holes
10
759.110525
20
728.085424
11
759.850259
21
728.017508
0
LINE
8
holes
10
759.850259
20
728.017508
11
760.611280
21
728.100760
0
LINE
8
holes
10
760.611280
20
728.100760
11
809.724380
21
738.571260
0
LINE
8
holes
10
809.724380
20
738.571260
11
811.199507
21
738.591357
0
LINE
8
holes
10
811.199507
20
738.591357
11
812.569955
21
738.045209
0
LINE
8
holes
10
812.569955
20
738.045209
11
813.626925
21
737.016026
0
LINE
8
holes
10
813.626925
20
737.016026
11
814.209380
21
735.660610
0
LINE
8
holes
10
814.209380
20
735.660610
11
815.433780
21
729.900080
0
LINE
8
holes
10
815.433780
20
729.900080
11
829.185480
21
665.203680
0
LINE
8
holes
10
829.185480
20
665.203680
11
829.418958
21
664.474592
0
LINE
8
holes
10
829.418958
20
664.474592
11
829.781877
21
663.826434
0
LINE
8
holes
10
829.781877
20
663.826434
11
830.823931
21
662.819736
0
LINE
8
holes
10
830.823931
20
662.819736
11
832.167437
21
662.277231
0
LINE
8
holes
10
832.167437
20
662.277231
11
832.907171
21
662.209317
0
LINE
8
holes
10
832.907171
20
662.209317
11
833.668190
21
662.292570
0
LINE
8
holes
10
833.668190
20
662.292570
11
854.001390
21
666.614510
0
LINE
8
holes
10
854.001390
20
666.614510
11
854.730483
21
666.847989
0
LINE
8
holes
10
854.730483
20
666.847989
11
855.378644
21
667.210910
0
LINE
8
holes
10
855.378644
20
667.210910
11
856.385347
21
668.252972
0
LINE
8
holes
10
856.385347
20
668.252972
11
856.927849
21
669.596488
0
LINE
8
holes
10
856.927849
20
669.596488
11
856.995759
21
670.336226
0
LINE
8
holes
10
856.995759
20
670.336226
11
856.912500
21
671.097250
0
LINE
8
holes
10
856.912500
20
671.097250
11
856.519590
21
672.945710
0
LINE
8
holes
10
856.519590
20
672.945710
11
856.511907
21
673.696082
0
LINE
8
holes
10
856.511907
20
673.696082
11
856.783144
21
674.367838
0
LINE
8
holes
10
856.783144
20
674.367838
11
857.286479
21
674.888875
0
LINE
8
holes
10
857.286479
20
674.888875
11
857.975090
21
675.187090
0
LINE
8
holes
10
857.975090
20
675.187090
11
915.277690
21
687.367090
0
LINE
8
holes
10
915.277690
20
687.367090
11
916.028055
21
687.374741
0
LINE
8
holes
10
916.028055
20
687.374741
11
916.699794
21
687.103481
0
LINE
8
holes
10
916.699794
20
687.103481
11
917.220809
21
686.600133
0
LINE
8
holes
10
917.220809
20
686.600133
11
917.519000
21
685.911520
0
LINE
8
holes
10
917.519000
20
685.911520
11
917.911900
21
684.063050
0
LINE
8
holes
10
917.911900
20
684.063050
11
918.494031
21
682.708092
0
LINE
8
holes
10
918.494031
20
682.708092
11
919.550376
21
681.679052
0
LINE
8
holes
10
919.550376
20
681.679052
11
920.920111
21
681.132596
0
LINE
8
holes
10
920.920111
20
681.132596
11
922.394700
21
681.151920
0
LINE
8
holes
10
922.394700
20
681.151920
11
942.727800
21
685.473870
0
LINE
8
holes
10
942.727800
20
685.473870
11
944.082761
21
686.055981
0
LINE
8
holes
10
944.082761
20
686.055981
11
945.111814
21
687.112306
0
LINE
8
holes
10
945.111814
20
687.112306
11
945.658293
21
688.482025
0
LINE
8
holes
10
945.658293
20
688.482025
11
945.639000
21
689.956610
0
LINE
8
holes
10
945.639000
20
689.956610
11
931.887300
21
754.653010
0
LINE
8
holes
10
931.887300
20
754.653010
11
930.646890
21
760.488840
0
LINE
8
holes
10
930.646890
20
760.488840
11
930.563631
21
761.249542
0
LINE
8
holes
10
930.563631
20
761.249542
11
930.631419
21
761.988999
0
LINE
8
holes
10
930.631419
20
761.988999
11
931.173391
21
763.332141
0
LINE
8
holes
10
931.173391
20
763.332141
11
932.179313
21
764.374201
0
LINE
8
holes
10
932.179313
20
764.374201
11
932.827038
21
764.737303
0
LINE
8
holes
10
932.827038
20
764.737303
11
933.555690
21
764.971110
0
LINE
8
holes
10
933.555690
20
764.971110
11
1016.167690
21
782.583310
0
LINE
8
holes
10
1016.167690
20
782.583310
11
1016.786790
21
782.771540
0
LINE
8
holes
10
1016.786790
20
782.771540
11
1018.191690
21
783.042370
0
LINE
8
holes
10
1018.191690
20
783.042370
11
1088.729590
21
783.042370
0
LINE
8
holes
10
1088.729590
20
783.042370
11
1089.491291
21
783.119162
0
LINE
8
holes
10
1089.491291
20
783.119162
11
1090.200742
21
783.339392
0
LINE
8
holes
10
1090.200742
20
783.339392
11
1091.402098
21
784.149376
0
LINE
8
holes
10
1091.402098
20
784.149376
11
1092.212076
21
785.350737
0
LINE
8
holes
10
1092.212076
20
785.350737
11
1092.432302
21
786.060188
0
LINE
8
holes
10
1092.432302
20
786.060188
11
1092.509090
21
786.821890
0
LINE
8
holes
10
1092.509090
20
786.821890
11
1092.509090
21
832.176190
0
LINE
8
holes
10
1092.509090
20
832.176190
11
1092.796796
21
833.622570
0
LINE
8
holes
10
1092.796796
20
833.622570
11
1093.616113
21
834.848746
0
LINE
8
holes
10
1093.616113
20
834.848746
11
1094.842305
21
835.668041
0
LINE
8
holes
10
1094.842305
20
835.668041
11
1096.288690
21
835.955720
0
LINE
8
holes
10
1096.288690
20
835.955720
11
1108.950000
21
835.956000
0
LINE
8
holes
10
218.173000
20
786.822000
11
218.173000
21
832.176300
0
LINE
8
holes
10
218.173000
20
832.176300
11
218.096214
21
832.938003
0
LINE
8
holes
10
218.096214
20
832.938003
11
217.875989
21
833.647456
0
LINE
8
holes
10
217.875989
20
833.647456
11
217.066012
21
834.848821
0
LINE
8
holes
10
217.066012
20
834.848821
11
215.864654
21
835.658807
0
LINE
8
holes
10
215.864654
20
835.658807
11
215.155202
21
835.879038
0
LINE
8
holes
10
215.155202
20
835.879038
11
214.393500
21
835.955830
0
LINE
8
holes
10
214.393500
20
835.955830
11
169.039200
21
835.955830
0
LINE
8
holes
10
169.039200
20
835.955830
11
168.277498
21
835.879038
0
LINE
8
holes
10
168.277498
20
835.879038
11
167.568047
21
835.658807
0
LINE
8
holes
10
167.568047
20
835.658807
11
166.366692
21
834.848820
0
LINE
8
holes
10
166.366692
20
834.848820
11
165.556717
21
833.647456
0
LINE
8
holes
10
165.556717
20
833.647456
11
165.336494
21
832.938003
0
LINE
8
holes
10
165.336494
20
832.938003
11
165.259710
21
832.176300
0
LINE
8
holes
10
165.259710
20
832.176300
11
165.259710
21
786.822000
0
LINE
8
holes
10
165.259710
20
786.822000
11
165.336497
21
786.060300
0
LINE
8
holes
10
165.336497
20
786.060300
11
165.556723
21
785.350849
0
LINE
8
holes
10
165.556723
20
785.350849
11
166.366698
21
784.149489
0
LINE
8
holes
10
166.366698
20
784.149489
11
167.568052
21
783.339505
0
LINE
8
holes
10
167.568052
20
783.339505
11
168.277500
21
783.119273
0
LINE
8
holes
10
168.277500
20
783.119273
11
169.039200
21
783.042480
0
LINE
8
holes
10
169.039200
20
783.042480
11
214.393500
21
783.042480
0
LINE
8
holes
10
214.393500
20
783.042480
11
215.155201
21
783.119272
0
LINE
8
holes
10
215.155201
20
783.119272
11
215.864652
21
783.339502
0
LINE
8
holes
10
215.864652
20
783.339502
11
217.066008
21
784.149486
0
LINE
8
holes
10
217.066008
20
784.149486
11
217.875986
21
785.350847
0
LINE
8
holes
10
217.875986
20
785.350847
11
218.096212
21
786.060298
0
LINE
8
holes
10
218.096212
20
786.060298
11
218.173000
21
786.822000
0
LINE
8
holes
10
218.173000
20
786.822000
11
218.173000
21
786.822000
0
LINE
8
holes
10
66.259900
20
832.176000
11
66.259900
21
786.821700
0
LINE
8
holes
10
66.259900
20
786.821700
11
66.336688
21
786.059998
0
LINE
8
holes
10
66.336688
20
786.059998
11
66.556914
21
785.350547
0
LINE
8
holes
10
66.556914
20
785.350547
11
67.366892
21
784.149186
0
LINE
8
holes
10
67.366892
20
784.149186
11
68.568248
21
783.339202
0
LINE
8
holes
10
68.568248
20
783.339202
11
69.277699
21
783.118972
0
LINE
8
holes
10
69.277699
20
783.118972
11
70.039400
21
783.042180
0
LINE
8
holes
10
70.039400
20
783.042180
11
115.393700
21
783.042180
0
LINE
8
holes
10
115.393700
20
783.042180
11
116.155403
21
783.118970
0
LINE
8
holes
10
116.155403
20
783.118970
11
116.864855
21
783.339199
0
LINE
8
holes
10
116.864855
20
783.339199
11
118.066215
21
784.149182
0
LINE
8
holes
10
118.066215
20
784.149182
11
118.876195
21
785.350544
0
LINE
8
holes
10
118.876195
20
785.350544
11
119.096422
21
786.059997
0
LINE
8
holes
10
119.096422
20
786.059997
11
119.173210
21
786.821700
0
LINE
8
holes
10
119.173210
20
786.821700
11
119.173210
21
832.176000
0
LINE
8
holes
10
119.173210
20
832.176000
11
119.096424
21
832.937704
0
LINE
8
holes
10
119.096424
20
832.937704
11
118.876198
21
833.647159
0
LINE
8
holes
10
118.876198
20
833.647159
11
118.066218
21
834.848524
0
LINE
8
holes
10
118.066218
20
834.848524
11
116.864857
21
835.658510
0
LINE
8
holes
10
116.864857
20
835.658510
11
116.155404
21
835.878740
0
LINE
8
holes
10
116.155404
20
835.878740
11
115.393700
21
835.955530
0
LINE
8
holes
10
115.393700
20
835.955530
11
70.039400
21
835.955530
0
LINE
8
holes
10
70.039400
20
835.955530
11
69.277697
21
835.878740
0
LINE
8
holes
10
69.277697
20
835.878740
11
68.568244
21
835.658510
0
LINE
8
holes
10
68.568244
20
835.658510
11
67.366885
21
834.848524
0
LINE
8
holes
10
67.366885
20
834.848524
11
66.556909
21
833.647158
0
LINE
8
holes
10
66.556909
20
833.647158
11
66.336684
21
832.937704
0
LINE
8
holes
10
66.336684
20
832.937704
11
66.259900
21
832.176000
0
LINE
8
holes
10
66.259900
20
832.176000
11
66.259900
21
832.176000
0
LINE
8
holes
10
394.340000
20
706.887000
11
438.703200
21
697.457300
0
LINE
8
holes
10
438.703200
20
697.457300
11
440.177789
21
697.437975
0
LINE
8
holes
10
440.177789
20
697.437975
11
441.547525
21
697.984428
0
LINE
8
holes
10
441.547525
20
697.984428
11
442.603873
21
699.013465
0
LINE
8
holes
10
442.603873
20
699.013465
11
443.186010
21
700.368420
0
LINE
8
holes
10
443.186010
20
700.368420
11
452.615700
21
744.731620
0
LINE
8
holes
10
452.615700
20
744.731620
11
452.634993
21
746.206205
0
LINE
8
holes
10
452.634993
20
746.206205
11
452.088514
21
747.575924
0
LINE
8
holes
10
452.088514
20
747.575924
11
451.059461
21
748.632249
0
LINE
8
holes
10
451.059461
20
748.632249
11
449.704500
21
749.214360
0
LINE
8
holes
10
449.704500
20
749.214360
11
405.341300
21
758.644050
0
LINE
8
holes
10
405.341300
20
758.644050
11
404.580280
21
758.727302
0
LINE
8
holes
10
404.580280
20
758.727302
11
403.840547
21
758.659387
0
LINE
8
holes
10
403.840547
20
758.659387
11
402.497042
21
758.116880
0
LINE
8
holes
10
402.497042
20
758.116880
11
401.454991
21
757.110178
0
LINE
8
holes
10
401.454991
20
757.110178
11
401.092075
21
756.462019
0
LINE
8
holes
10
401.092075
20
756.462019
11
400.858600
21
755.732930
0
LINE
8
holes
10
400.858600
20
755.732930
11
391.428900
21
711.369730
0
LINE
8
holes
10
391.428900
20
711.369730
11
391.345641
21
710.608709
0
LINE
8
holes
10
391.345641
20
710.608709
11
391.413549
21
709.868972
0
LINE
8
holes
10
391.413549
20
709.868972
11
391.956046
21
708.525458
0
LINE
8
holes
10
391.956046
20
708.525458
11
392.962742
21
707.483395
0
LINE
8
holes
10
392.962742
20
707.483395
11
393.610900
21
707.120472
0
LINE
8
holes
10
393.610900
20
707.120472
11
394.339990
21
706.886990
0
LINE
8
holes
10
394.339990
20
706.886990
11
394.340000
21
706.887000
0
LINE
8
holes
10
206.175000
20
982.161000
11
206.174370
21
930.822200
0
LINE
8
holes
10
206.174370
20
930.822200
11
206.251162
21
930.060485
0
LINE
8
holes
10
206.251162
20
930.060485
11
206.471398
21
929.351024
0
LINE
8
holes
10
206.471398
20
929.351024
11
207.281404
21
928.149655
0
LINE
8
holes
10
207.281404
20
928.149655
11
208.482795
21
927.339681
0
LINE
8
holes
10
208.482795
20
927.339681
11
209.192263
21
927.119463
0
LINE
8
holes
10
209.192263
20
927.119463
11
209.953980
21
927.042690
0
LINE
8
holes
10
209.953980
20
927.042690
11
240.227980
21
927.042690
0
LINE
8
holes
10
240.227980
20
927.042690
11
240.989684
21
926.965900
0
LINE
8
holes
10
240.989684
20
926.965900
11
241.699136
21
926.745671
0
LINE
8
holes
10
241.699136
20
926.745671
11
242.900494
21
925.935685
0
LINE
8
holes
10
242.900494
20
925.935685
11
243.710470
21
924.734319
0
LINE
8
holes
10
243.710470
20
924.734319
11
243.930694
21
924.024865
0
LINE
8
holes
10
243.930694
20
924.024865
11
244.007480
21
923.263160
0
LINE
8
holes
10
244.007480
20
923.263160
11
244.006490
21
858.822160
0
LINE
8
holes
10
244.006490
20
858.822160
11
244.083276
21
858.060459
0
LINE
8
holes
10
244.083276
20
858.060459
11
244.303500
21
857.351008
0
LINE
8
holes
10
244.303500
20
857.351008
11
245.113475
21
856.149647
0
LINE
8
holes
10
245.113475
20
856.149647
11
246.314830
21
855.339663
0
LINE
8
holes
10
246.314830
20
855.339663
11
247.024279
21
855.119433
0
LINE
8
holes
10
247.024279
20
855.119433
11
247.785980
21
855.042640
0
LINE
8
holes
10
247.785980
20
855.042640
11
260.485280
21
855.042640
0
LINE
8
holes
10
260.485280
20
855.042640
11
261.246984
21
854.965847
0
LINE
8
holes
10
261.246984
20
854.965847
11
261.956436
21
854.745616
0
LINE
8
holes
10
261.956436
20
854.745616
11
263.157794
21
853.935631
0
LINE
8
holes
10
263.157794
20
853.935631
11
263.967770
21
852.734268
0
LINE
8
holes
10
263.967770
20
852.734268
11
264.187994
21
852.024814
0
LINE
8
holes
10
264.187994
20
852.024814
11
264.264780
21
851.263110
0
LINE
8
holes
10
264.264780
20
851.263110
11
264.264780
21
786.822110
0
LINE
8
holes
10
264.264780
20
786.822110
11
264.341566
21
786.060406
0
LINE
8
holes
10
264.341566
20
786.060406
11
264.561792
21
785.350952
0
LINE
8
holes
10
264.561792
20
785.350952
11
265.371771
21
784.149590
0
LINE
8
holes
10
265.371771
20
784.149590
11
266.573132
21
783.339608
0
LINE
8
holes
10
266.573132
20
783.339608
11
267.282586
21
783.119379
0
LINE
8
holes
10
267.282586
20
783.119379
11
268.044290
21
783.042590
0
LINE
8
holes
10
268.044290
20
783.042590
11
385.398290
21
783.042590
0
LINE
8
holes
10
385.398290
20
783.042590
11
386.297407
21
783.151027
0
LINE
8
holes
10
386.297407
20
783.151027
11
387.133820
21
783.464590
0
LINE
8
holes
10
387.133820
20
783.464590
11
387.873341
21
783.965607
0
LINE
8
holes
10
387.873341
20
783.965607
11
388.481780
21
784.636410
0
LINE
8
holes
10
388.481780
20
784.636410
11
389.246900
21
785.435913
0
LINE
8
holes
10
389.246900
20
785.435913
11
390.190157
21
785.971215
0
LINE
8
holes
10
390.190157
20
785.971215
11
391.246527
21
786.216920
0
LINE
8
holes
10
391.246527
20
786.216920
11
392.350980
21
786.147630
0
LINE
8
holes
10
392.350980
20
786.147630
11
401.738590
21
784.152260
0
LINE
8
holes
10
401.738590
20
784.152260
11
403.201080
21
784.130760
0
LINE
8
holes
10
403.201080
20
784.130760
11
404.663680
21
784.109260
0
LINE
8
holes
10
404.663680
20
784.109260
11
522.303680
21
759.104160
0
LINE
8
holes
10
522.303680
20
759.104160
11
523.032772
21
758.870677
0
LINE
8
holes
10
523.032772
20
758.870677
11
523.680931
21
758.507753
0
LINE
8
holes
10
523.680931
20
758.507753
11
524.687627
21
757.465687
0
LINE
8
holes
10
524.687627
20
757.465687
11
525.230123
21
756.122170
0
LINE
8
holes
10
525.230123
20
756.122170
11
525.298030
21
755.382433
0
LINE
8
holes
10
525.298030
20
755.382433
11
525.214770
21
754.621410
0
LINE
8
holes
10
525.214770
20
754.621410
11
510.239470
21
684.168010
0
LINE
8
holes
10
510.239470
20
684.168010
11
510.156207
21
683.406987
0
LINE
8
holes
10
510.156207
20
683.406987
11
510.224113
21
682.667250
0
LINE
8
holes
10
510.224113
20
682.667250
11
510.766609
21
681.323733
0
LINE
8
holes
10
510.766609
20
681.323733
11
511.773308
21
680.281667
0
LINE
8
holes
10
511.773308
20
680.281667
11
512.421468
21
679.918743
0
LINE
8
holes
10
512.421468
20
679.918743
11
513.150560
21
679.685260
0
LINE
8
holes
10
513.150560
20
679.685260
11
533.483660
21
675.363320
0
LINE
8
holes
10
533.483660
20
675.363320
11
534.244695
21
675.280048
0
LINE
8
holes
10
534.244695
20
675.280048
11
534.984445
21
675.347949
0
LINE
8
holes
10
534.984445
20
675.347949
11
536.327986
21
675.890447
0
LINE
8
holes
10
536.327986
20
675.890447
11
537.370067
21
676.897162
0
LINE
8
holes
10
537.370067
20
676.897162
11
537.732992
21
677.545334
0
LINE
8
holes
10
537.732992
20
677.545334
11
537.966470
21
678.274440
0
LINE
8
holes
10
537.966470
20
678.274440
11
538.359360
21
680.122900
0
LINE
8
holes
10
538.359360
20
680.122900
11
538.657553
21
680.811511
0
LINE
8
holes
10
538.657553
20
680.811511
11
539.178566
21
681.314855
0
LINE
8
holes
10
539.178566
20
681.314855
11
539.850301
21
681.586112
0
LINE
8
holes
10
539.850301
20
681.586112
11
540.600660
21
681.578460
0
LINE
8
holes
10
540.600660
20
681.578460
11
597.903260
21
669.398460
0
LINE
8
holes
10
597.903260
20
669.398460
11
598.591874
21
669.100247
0
LINE
8
holes
10
598.591874
20
669.100247
11
599.095211
21
668.579209
0
LINE
8
holes
10
599.095211
20
668.579209
11
599.366448
21
667.907448
0
LINE
8
holes
10
599.366448
20
667.907448
11
599.358760
21
667.157070
0
LINE
8
holes
10
599.358760
20
667.157070
11
598.965860
21
665.308620
0
LINE
8
holes
10
598.965860
20
665.308620
11
598.882606
21
664.547588
0
LINE
8
holes
10
598.882606
20
664.547588
11
598.950524
21
663.807843
0
LINE
8
holes
10
598.950524
20
663.807843
11
599.493050
21
662.464322
0
LINE
8
holes
10
599.493050
20
662.464322
11
600.499781
21
661.422268
0
LINE
8
holes
10
600.499781
20
661.422268
11
601.147955
21
661.059356
0
LINE
8
holes
10
601.147955
20
661.059356
11
601.877060
21
660.825890
0
LINE
8
holes
10
601.877060
20
660.825890
11
622.210160
21
656.503940
0
LINE
8
holes
10
622.210160
20
656.503940
11
622.971178
21
656.420690
0
LINE
8
holes
10
622.971178
20
656.420690
11
623.710910
21
656.488607
0
LINE
8
holes
10
623.710910
20
656.488607
11
625.054411
21
657.031116
0
LINE
8
holes
10
625.054411
20
657.031116
11
626.096460
21
658.037817
0
LINE
8
holes
10
626.096460
20
658.037817
11
626.459375
21
658.685974
0
LINE
8
holes
10
626.459375
20
658.685974
11
626.692850
21
659.415060
0
LINE
8
holes
10
626.692850
20
659.415060
11
641.668250
21
729.868460
0
LINE
8
holes
10
641.668250
20
729.868460
11
641.901725
21
730.597549
0
LINE
8
holes
10
641.901725
20
730.597549
11
642.264640
21
731.245709
0
LINE
8
holes
10
642.264640
20
731.245709
11
643.306689
21
732.252412
0
LINE
8
holes
10
643.306689
20
732.252412
11
644.650190
21
732.794922
0
LINE
8
holes
10
644.650190
20
732.794922
11
645.389922
21
732.862840
0
LINE
8
holes
10
645.389922
20
732.862840
11
646.150940
21
732.779590
0
LINE
8
holes
10
646.150940
20
732.779590
11
668.162240
21
728.100930
0
LINE
8
holes
10
668.162240
20
728.100930
11
668.923278
21
728.017658
0
LINE
8
holes
10
668.923278
20
728.017658
11
669.663031
21
728.085561
0
LINE
8
holes
10
669.663031
20
728.085561
11
671.006574
21
728.628064
0
LINE
8
holes
10
671.006574
20
728.628064
11
672.048652
21
729.634785
0
LINE
8
holes
10
672.048652
20
729.634785
11
672.411575
21
730.282960
0
LINE
8
holes
10
672.411575
20
730.282960
11
672.645050
21
731.012070
0
LINE
8
holes
10
672.645050
20
731.012070
11
682.074750
21
775.375270
0
LINE
8
holes
10
682.074750
20
775.375270
11
682.158004
21
776.136303
0
LINE
8
holes
10
682.158004
20
776.136303
11
682.090085
21
776.876048
0
LINE
8
holes
10
682.090085
20
776.876048
11
681.547559
21
778.219571
0
LINE
8
holes
10
681.547559
20
778.219571
11
680.540825
21
779.261626
0
LINE
8
holes
10
680.540825
20
779.261626
11
679.892648
21
779.624536
0
LINE
8
holes
10
679.892648
20
779.624536
11
679.163540
21
779.858000
0
LINE
8
holes
10
679.163540
20
779.858000
11
651.333340
21
785.773520
0
LINE
8
holes
10
651.333340
20
785.773520
11
650.581070
21
785.978543
0
LINE
8
holes
10
650.581070
20
785.978543
11
649.912852
21
786.326525
0
LINE
8
holes
10
649.912852
20
786.326525
11
649.342141
21
786.796747
0
LINE
8
holes
10
649.342141
20
786.796747
11
648.882392
21
787.368487
0
LINE
8
holes
10
648.882392
20
787.368487
11
648.547062
21
788.021029
0
LINE
8
holes
10
648.547062
20
788.021029
11
648.349607
21
788.733651
0
LINE
8
holes
10
648.349607
20
788.733651
11
648.303481
21
789.485634
0
LINE
8
holes
10
648.303481
20
789.485634
11
648.422140
21
790.256260
0
LINE
8
holes
10
648.422140
20
790.256260
11
665.789840
21
871.964860
0
LINE
8
holes
10
665.789840
20
871.964860
11
666.023318
21
872.693967
0
LINE
8
holes
10
666.023318
20
872.693967
11
666.386242
21
873.342140
0
LINE
8
holes
10
666.386242
20
873.342140
11
667.428319
21
874.348858
0
LINE
8
holes
10
667.428319
20
874.348858
11
668.771856
21
874.891359
0
LINE
8
holes
10
668.771856
20
874.891359
11
669.511606
21
874.959262
0
LINE
8
holes
10
669.511606
20
874.959262
11
670.272640
21
874.875990
0
LINE
8
holes
10
670.272640
20
874.875990
11
680.483540
21
872.705600
0
LINE
8
holes
10
680.483540
20
872.705600
11
681.244562
21
872.622347
0
LINE
8
holes
10
681.244562
20
872.622347
11
681.984297
21
872.690262
0
LINE
8
holes
10
681.984297
20
872.690262
11
683.327805
21
873.232769
0
LINE
8
holes
10
683.327805
20
873.232769
11
684.369858
21
874.239471
0
LINE
8
holes
10
684.369858
20
874.239471
11
684.732775
21
874.887631
0
LINE
8
holes
10
684.732775
20
874.887631
11
684.966250
21
875.616720
0
LINE
8
holes
10
684.966250
20
875.616720
11
694.395940
21
919.979920
0
LINE
8
holes
10
694.395940
20
919.979920
11
694.479200
21
920.740943
0
LINE
8
holes
10
694.479200
20
920.740943
11
694.411293
21
921.480680
0
LINE
8
holes
10
694.411293
20
921.480680
11
693.868798
21
922.824197
0
LINE
8
holes
10
693.868798
20
922.824197
11
692.862101
21
923.866263
0
LINE
8
holes
10
692.862101
20
923.866263
11
692.213942
21
924.229187
0
LINE
8
holes
10
692.213942
20
924.229187
11
691.484850
21
924.462670
0
LINE
8
holes
10
691.484850
20
924.462670
11
663.654550
21
930.378160
0
LINE
8
holes
10
663.654550
20
930.378160
11
662.925458
21
930.611643
0
LINE
8
holes
10
662.925458
20
930.611643
11
662.277298
21
930.974567
0
LINE
8
holes
10
662.277298
20
930.974567
11
661.270599
21
932.016632
0
LINE
8
holes
10
661.270599
20
932.016632
11
660.728103
21
933.360150
0
LINE
8
holes
10
660.728103
20
933.360150
11
660.660197
21
934.099887
0
LINE
8
holes
10
660.660197
20
934.099887
11
660.743460
21
934.860910
0
LINE
8
holes
10
660.743460
20
934.860910
11
674.137760
21
997.876010
0
LINE
8
holes
10
674.137760
20
997.876010
11
674.221011
21
998.637040
0
LINE
8
holes
10
674.221011
20
998.637040
11
674.153091
21
999.376780
0
LINE
8
holes
10
674.153091
20
999.376780
11
673.610566
21
1000.720287
0
LINE
8
holes
10
673.610566
20
1000.720287
11
672.603838
21
1001.762337
0
LINE
8
holes
10
672.603838
20
1001.762337
11
671.955664
21
1002.125253
0
LINE
8
holes
10
671.955664
20
1002.125253
11
671.226560
21
1002.358730
0
LINE
8
holes
10
671.226560
20
1002.358730
11
415.583560
21
1056.697330
0
LINE
8
holes
10
415.583560
20
1056.697330
11
414.822542
21
1056.780591
0
LINE
8
holes
10
414.822542
20
1056.780591
11
414.082810
21
1056.712678
0
LINE
8
holes
10
414.082810
20
1056.712678
11
412.739308
21
1056.170167
0
LINE
8
holes
10
412.739308
20
1056.170167
11
411.697256
21
1055.163463
0
LINE
8
holes
10
411.697256
20
1055.163463
11
411.334338
21
1054.515308
0
LINE
8
holes
10
411.334338
20
1054.515308
11
411.100860
21
1053.786230
0
LINE
8
holes
10
411.100860
20
1053.786230
11
411.100860
21
1053.786230
0
LINE
8
holes
10
411.100860
20
1053.786230
11
410.867381
21
1053.057152
0
LINE
8
holes
10
410.867381
20
1053.057152
11
410.504463
21
1052.408997
0
LINE
8
holes
10
410.504463
20
1052.408997
11
409.462408
21
1051.402292
0
LINE
8
holes
10
409.462408
20
1051.402292
11
408.118901
21
1050.859782
0
LINE
8
holes
10
408.118901
20
1050.859782
11
407.379168
21
1050.791869
0
LINE
8
holes
10
407.379168
20
1050.791869
11
406.618150
21
1050.875130
0
LINE
8
holes
10
406.618150
20
1050.875130
11
383.518850
21
1055.785030
0
LINE
8
holes
10
383.518850
20
1055.785030
11
382.689573
21
1056.064857
0
LINE
8
holes
10
382.689573
20
1056.064857
11
381.955758
21
1056.520943
0
LINE
8
holes
10
381.955758
20
1056.520943
11
381.344638
21
1057.131697
0
LINE
8
holes
10
381.344638
20
1057.131697
11
380.883450
21
1057.875530
0
LINE
8
holes
10
380.883450
20
1057.875530
11
380.292366
21
1058.774735
0
LINE
8
holes
10
380.292366
20
1058.774735
11
379.488965
21
1059.459617
0
LINE
8
holes
10
379.488965
20
1059.459617
11
378.527531
21
1059.895707
0
LINE
8
holes
10
378.527531
20
1059.895707
11
377.462350
21
1060.048530
0
LINE
8
holes
10
377.462350
20
1060.048530
11
332.108050
21
1060.048530
0
LINE
8
holes
10
332.108050
20
1060.048530
11
331.346353
21
1059.971746
0
LINE
8
holes
10
331.346353
20
1059.971746
11
330.636905
21
1059.751524
0
LINE
8
holes
10
330.636905
20
1059.751524
11
329.435553
21
1058.941555
0
LINE
8
holes
10
329.435553
20
1058.941555
11
328.625576
21
1057.740199
0
LINE
8
holes
10
328.625576
20
1057.740199
11
328.405349
21
1057.030743
0
LINE
8
holes
10
328.405349
20
1057.030743
11
328.328560
21
1056.269030
0
LINE
8
holes
10
328.328560
20
1056.269030
11
328.342676
21
1055.430114
0
LINE
8
holes
10
328.342676
20
1055.430114
11
328.181944
21
1054.636157
0
LINE
8
holes
10
328.181944
20
1054.636157
11
327.864277
21
1053.907583
0
LINE
8
holes
10
327.864277
20
1053.907583
11
327.407591
21
1053.264817
0
LINE
8
holes
10
327.407591
20
1053.264817
11
326.829802
21
1052.728285
0
LINE
8
holes
10
326.829802
20
1052.728285
11
326.148823
21
1052.318410
0
LINE
8
holes
10
326.148823
20
1052.318410
11
325.382571
21
1052.055617
0
LINE
8
holes
10
325.382571
20
1052.055617
11
324.548960
21
1051.960330
0
LINE
8
holes
10
324.548960
20
1051.960330
11
237.785000
21
1051.960330
0
LINE
8
holes
10
237.785000
20
1051.960330
11
237.489942
21
1051.989819
0
LINE
8
holes
10
237.489942
20
1051.989819
11
236.840815
21
1052.196392
0
LINE
8
holes
10
236.840815
20
1052.196392
11
236.191688
21
1052.757210
0
LINE
8
holes
10
236.191688
20
1052.757210
11
235.977771
21
1053.225822
0
LINE
8
holes
10
235.977771
20
1053.225822
11
235.896630
21
1053.849430
0
LINE
8
holes
10
235.896630
20
1053.849430
11
235.896640
21
1055.726530
0
LINE
8
holes
10
235.896640
20
1055.726530
11
235.819848
21
1056.488242
0
LINE
8
holes
10
235.819848
20
1056.488242
11
235.599618
21
1057.197699
0
LINE
8
holes
10
235.599618
20
1057.197699
11
234.789639
21
1058.399055
0
LINE
8
holes
10
234.789639
20
1058.399055
11
233.588285
21
1059.209024
0
LINE
8
holes
10
233.588285
20
1059.209024
11
232.878837
21
1059.429246
0
LINE
8
holes
10
232.878837
20
1059.429246
11
232.117140
21
1059.506030
0
LINE
8
holes
10
232.117140
20
1059.506030
11
211.329740
21
1059.506030
0
LINE
8
holes
10
211.329740
20
1059.506030
11
210.568042
21
1059.429246
0
LINE
8
holes
10
210.568042
20
1059.429246
11
209.858594
21
1059.209024
0
LINE
8
holes
10
209.858594
20
1059.209024
11
208.657238
21
1058.399055
0
LINE
8
holes
10
208.657238
20
1058.399055
11
207.847257
21
1057.197699
0
LINE
8
holes
10
207.847257
20
1057.197699
11
207.627029
21
1056.488243
0
LINE
8
holes
10
207.627029
20
1056.488243
11
207.550240
21
1055.726530
0
LINE
8
holes
10
207.550240
20
1055.726530
11
207.550240
21
1053.836730
0
LINE
8
holes
10
207.550240
20
1053.836730
11
207.401709
21
1053.101153
0
LINE
8
holes
10
207.401709
20
1053.101153
11
206.996705
21
1052.500493
0
LINE
8
holes
10
206.996705
20
1052.500493
11
206.396018
21
1052.095525
0
LINE
8
holes
10
206.396018
20
1052.095525
11
205.660440
21
1051.947030
0
LINE
8
holes
10
205.660440
20
1051.947030
11
147.078000
21
1051.947030
0
LINE
8
holes
10
147.078000
20
1051.947030
11
146.342454
21
1052.095539
0
LINE
8
holes
10
146.342454
20
1052.095539
11
145.741800
21
1052.500530
0
LINE
8
holes
10
145.741800
20
1052.500530
11
145.336821
21
1053.101196
0
LINE
8
holes
10
145.336821
20
1053.101196
11
145.188300
21
1053.836730
0
LINE
8
holes
10
145.188300
20
1053.836730
11
145.188300
21
1055.726530
0
LINE
8
holes
10
145.188300
20
1055.726530
11
145.111505
21
1056.488242
0
LINE
8
holes
10
145.111505
20
1056.488242
11
144.891268
21
1057.197699
0
LINE
8
holes
10
144.891268
20
1057.197699
11
144.081264
21
1058.399055
0
LINE
8
holes
10
144.081264
20
1058.399055
11
142.879877
21
1059.209024
0
LINE
8
holes
10
142.879877
20
1059.209024
11
142.170413
21
1059.429246
0
LINE
8
holes
10
142.170413
20
1059.429246
11
141.408700
21
1059.506030
0
LINE
8
holes
10
141.408700
20
1059.506030
11
120.621300
21
1059.506030
0
LINE
8
holes
10
120.621300
20
1059.506030
11
119.859603
21
1059.429246
0
LINE
8
holes
10
119.859603
20
1059.429246
11
119.150155
21
1059.209024
0
LINE
8
holes
10
119.150155
20
1059.209024
11
117.948802
21
1058.399055
0
LINE
8
holes
10
117.948802
20
1058.399055
11
117.138826
21
1057.197699
0
LINE
8
holes
10
117.138826
20
1057.197699
11
116.918599
21
1056.488243
0
LINE
8
holes
10
116.918599
20
1056.488243
11
116.841810
21
1055.726530
0
LINE
8
holes
10
116.841810
20
1055.726530
11
116.843810
21
989.593730
0
LINE
8
holes
10
116.843810
20
989.593730
11
116.920596
21
988.832026
0
LINE
8
holes
10
116.920596
20
988.832026
11
117.140820
21
988.122572
0
LINE
8
holes
10
117.140820
20
988.122572
11
117.950796
21
986.921209
0
LINE
8
holes
10
117.950796
20
986.921209
11
119.152154
21
986.111224
0
LINE
8
holes
10
119.152154
20
986.111224
11
119.861606
21
985.890993
0
LINE
8
holes
10
119.861606
20
985.890993
11
120.623310
21
985.814200
0
LINE
8
holes
10
120.623310
20
985.814200
11
202.403510
21
985.805200
0
LINE
8
holes
10
1294.640000
20
1010.910000
11
1294.640000
21
1056.264400
0
LINE
8
holes
10
1294.640000
20
1056.264400
11
1294.563209
21
1057.026098
0
LINE
8
holes
10
1294.563209
20
1057.026098
11
1294.342980
21
1057.735547
0
LINE
8
holes
10
1294.342980
20
1057.735547
11
1293.533001
21
1058.936901
0
LINE
8
holes
10
1293.533001
20
1058.936901
11
1292.331647
21
1059.746880
0
LINE
8
holes
10
1292.331647
20
1059.746880
11
1291.622198
21
1059.967109
0
LINE
8
holes
10
1291.622198
20
1059.967109
11
1290.860500
21
1060.043900
0
LINE
8
holes
10
1290.860500
20
1060.043900
11
1245.506100
21
1060.043900
0
LINE
8
holes
10
1245.506100
20
1060.043900
11
1244.744402
21
1059.967109
0
LINE
8
holes
10
1244.744402
20
1059.967109
11
1244.034953
21
1059.746880
0
LINE
8
holes
10
1244.034953
20
1059.746880
11
1242.833599
21
1058.936901
0
LINE
8
holes
10
1242.833599
20
1058.936901
11
1242.023620
21
1057.735547
0
LINE
8
holes
10
1242.023620
20
1057.735547
11
1241.803391
21
1057.026098
0
LINE
8
holes
10
1241.803391
20
1057.026098
11
1241.726600
21
1056.264400
0
LINE
8
holes
10
1241.726600
20
1056.264400
11
1241.726600
21
1010.910000
0
LINE
8
holes
10
1241.726600
20
1010.910000
11
1241.803391
21
1010.148302
0
LINE
8
holes
10
1241.803391
20
1010.148302
11
1242.023620
21
1009.438853
0
LINE
8
holes
10
1242.023620
20
1009.438853
11
1242.833599
21
1008.237499
0
LINE
8
holes
10
1242.833599
20
1008.237499
11
1244.034953
21
1007.427520
0
LINE
8
holes
10
1244.034953
20
1007.427520
11
1244.744402
21
1007.207291
0
LINE
8
holes
10
1244.744402
20
1007.207291
11
1245.506100
21
1007.130500
0
LINE
8
holes
10
1245.506100
20
1007.130500
11
1290.860500
21
1007.130500
0
LINE
8
holes
10
1290.860500
20
1007.130500
11
1291.622198
21
1007.207291
0
LINE
8
holes
10
1291.622198
20
1007.207291
11
1292.331647
21
1007.427520
0
LINE
8
holes
10
1292.331647
20
1007.427520
11
1293.533001
21
1008.237499
0
LINE
8
holes
10
1293.533001
20
1008.237499
11
1294.342980
21
1009.438853
0
LINE
8
holes
10
1294.342980
20
1009.438853
11
1294.563209
21
1010.148302
0
LINE
8
holes
10
1294.563209
20
1010.148302
11
1294.640000
21
1010.910000
0
LINE
8
holes
10
1294.640000
20
1010.910000
11
1294.640000
21
1010.910000
0
LINE
8
holes
10
1232.690000
20
763.956000
11
1187.335700
21
763.956000
0
LINE
8
holes
10
1187.335700
20
763.956000
11
1186.573998
21
763.879208
0
LINE
8
holes
10
1186.573998
20
763.879208
11
1185.864546
21
763.658977
0
LINE
8
holes
10
1185.864546
20
763.658977
11
1184.663188
21
762.848991
0
LINE
8
holes
10
1184.663188
20
762.848991
11
1183.853211
21
761.647626
0
LINE
8
holes
10
1183.853211
20
761.647626
11
1183.632986
21
760.938173
0
LINE
8
holes
10
1183.632986
20
760.938173
11
1183.556200
21
760.176470
0
LINE
8
holes
10
1183.556200
20
760.176470
11
1183.556200
21
714.822170
0
LINE
8
holes
10
1183.556200
20
714.822170
11
1183.632986
21
714.060467
0
LINE
8
holes
10
1183.632986
20
714.060467
11
1183.853211
21
713.351014
0
LINE
8
holes
10
1183.853211
20
713.351014
11
1184.663188
21
712.149649
0
LINE
8
holes
10
1184.663188
20
712.149649
11
1185.864546
21
711.339663
0
LINE
8
holes
10
1185.864546
20
711.339663
11
1186.573998
21
711.119432
0
LINE
8
holes
10
1186.573998
20
711.119432
11
1187.335700
21
711.042640
0
LINE
8
holes
10
1187.335700
20
711.042640
11
1232.690000
21
711.042640
0
LINE
8
holes
10
1232.690000
20
711.042640
11
1234.136385
21
711.330319
0
LINE
8
holes
10
1234.136385
20
711.330319
11
1235.362577
21
712.149614
0
LINE
8
holes
10
1235.362577
20
712.149614
11
1236.181894
21
713.375790
0
LINE
8
holes
10
1236.181894
20
713.375790
11
1236.469600
21
714.822170
0
LINE
8
holes
10
1236.469600
20
714.822170
11
1236.469600
21
760.176470
0
LINE
8
holes
10
1236.469600
20
760.176470
11
1236.181894
21
761.622850
0
LINE
8
holes
10
1236.181894
20
761.622850
11
1235.362577
21
762.849026
0
LINE
8
holes
10
1235.362577
20
762.849026
11
1234.136385
21
763.668321
0
LINE
8
holes
10
1234.136385
20
763.668321
11
1232.690000
21
763.956000
0
LINE
8
holes
10
1232.690000
20
763.956000
11
1232.690000
21
763.956000
0
LINE
8
holes
10
1310.360000
20
938.910000
11
1310.360000
21
984.264300
0
LINE
8
holes
10
1310.360000
20
984.264300
11
1310.283212
21
985.026002
0
LINE
8
holes
10
1310.283212
20
985.026002
11
1310.062986
21
985.735453
0
LINE
8
holes
10
1310.062986
20
985.735453
11
1309.253008
21
986.936814
0
LINE
8
holes
10
1309.253008
20
986.936814
11
1308.051652
21
987.746798
0
LINE
8
holes
10
1308.051652
20
987.746798
11
1307.342201
21
987.967028
0
LINE
8
holes
10
1307.342201
20
987.967028
11
1306.580500
21
988.043820
0
LINE
8
holes
10
1306.580500
20
988.043820
11
1261.226200
21
988.043820
0
LINE
8
holes
10
1261.226200
20
988.043820
11
1259.779817
21
987.756141
0
LINE
8
holes
10
1259.779817
20
987.756141
11
1258.553627
21
986.936850
0
LINE
8
holes
10
1258.553627
20
986.936850
11
1257.734309
21
985.710677
0
LINE
8
holes
10
1257.734309
20
985.710677
11
1257.446600
21
984.264300
0
LINE
8
holes
10
1257.446600
20
984.264300
11
1257.446600
21
938.910000
0
LINE
8
holes
10
1257.446600
20
938.910000
11
1257.734306
21
937.463620
0
LINE
8
holes
10
1257.734306
20
937.463620
11
1258.553623
21
936.237444
0
LINE
8
holes
10
1258.553623
20
936.237444
11
1259.779815
21
935.418149
0
LINE
8
holes
10
1259.779815
20
935.418149
11
1261.226200
21
935.130470
0
LINE
8
holes
10
1261.226200
20
935.130470
11
1306.580500
21
935.130470
0
LINE
8
holes
10
1306.580500
20
935.130470
11
1307.342202
21
935.207262
0
LINE
8
holes
10
1307.342202
20
935.207262
11
1308.051654
21
935.427493
0
LINE
8
holes
10
1308.051654
20
935.427493
11
1309.253012
21
936.237479
0
LINE
8
holes
10
1309.253012
20
936.237479
11
1310.062989
21
937.438844
0
LINE
8
holes
10
1310.062989
20
937.438844
11
1310.283214
21
938.148297
0
LINE
8
holes
10
1310.283214
20
938.148297
11
1310.360000
21
938.910000
0
LINE
8
holes
10
1310.360000
20
938.910000
11
1310.360000
21
938.910000
0
LINE
8
holes
10
1176.830000
20
858.822000
11
1176.906788
21
858.060298
0
LINE
8
holes
10
1176.906788
20
858.060298
11
1177.127014
21
857.350847
0
LINE
8
holes
10
1177.127014
20
857.350847
11
1177.936992
21
856.149486
0
LINE
8
holes
10
1177.936992
20
856.149486
11
1179.138348
21
855.339502
0
LINE
8
holes
10
1179.138348
20
855.339502
11
1179.847799
21
855.119272
0
LINE
8
holes
10
1179.847799
20
855.119272
11
1180.609500
21
855.042480
0
LINE
8
holes
10
1180.609500
20
855.042480
11
1225.963900
21
855.042480
0
LINE
8
holes
10
1225.963900
20
855.042480
11
1226.725601
21
855.119272
0
LINE
8
holes
10
1226.725601
20
855.119272
11
1227.435052
21
855.339502
0
LINE
8
holes
10
1227.435052
20
855.339502
11
1228.636408
21
856.149486
0
LINE
8
holes
10
1228.636408
20
856.149486
11
1229.446386
21
857.350847
0
LINE
8
holes
10
1229.446386
20
857.350847
11
1229.666612
21
858.060298
0
LINE
8
holes
10
1229.666612
20
858.060298
11
1229.743400
21
858.822000
0
LINE
8
holes
10
1229.743400
20
858.822000
11
1229.743400
21
904.176300
0
LINE
8
holes
10
1229.743400
20
904.176300
11
1229.666614
21
904.938003
0
LINE
8
holes
10
1229.666614
20
904.938003
11
1229.446389
21
905.647456
0
LINE
8
holes
10
1229.446389
20
905.647456
11
1228.636412
21
906.848821
0
LINE
8
holes
10
1228.636412
20
906.848821
11
1227.435054
21
907.658807
0
LINE
8
holes
10
1227.435054
20
907.658807
11
1226.725602
21
907.879038
0
LINE
8
holes
10
1226.725602
20
907.879038
11
1225.963900
21
907.955830
0
LINE
8
holes
10
1225.963900
20
907.955830
11
1180.609500
21
907.955830
0
LINE
8
holes
10
1180.609500
20
907.955830
11
1179.847798
21
907.879038
0
LINE
8
holes
10
1179.847798
20
907.879038
11
1179.138346
21
907.658807
0
LINE
8
holes
10
1179.138346
20
907.658807
11
1177.936988
21
906.848821
0
LINE
8
holes
10
1177.936988
20
906.848821
11
1177.127011
21
905.647456
0
LINE
8
holes
10
1177.127011
20
905.647456
11
1176.906786
21
904.938003
0
LINE
8
holes
10
1176.906786
20
904.938003
11
1176.830000
21
904.176300
0
LINE
8
holes
10
1176.830000
20
904.176300
11
1176.830000
21
858.822000
0
LINE
8
holes
10
1272.830000
20
912.265000
11
1272.830000
21
866.910700
0
LINE
8
holes
10
1272.830000
20
866.910700
11
1272.906786
21
866.148997
0
LINE
8
holes
10
1272.906786
20
866.148997
11
1273.127011
21
865.439544
0
LINE
8
holes
10
1273.127011
20
865.439544
11
1273.936988
21
864.238179
0
LINE
8
holes
10
1273.936988
20
864.238179
11
1275.138346
21
863.428193
0
LINE
8
holes
10
1275.138346
20
863.428193
11
1275.847798
21
863.207962
0
LINE
8
holes
10
1275.847798
20
863.207962
11
1276.609500
21
863.131170
0
LINE
8
holes
10
1276.609500
20
863.131170
11
1321.963900
21
863.131170
0
LINE
8
holes
10
1321.963900
20
863.131170
11
1322.725602
21
863.207962
0
LINE
8
holes
10
1322.725602
20
863.207962
11
1323.435054
21
863.428193
0
LINE
8
holes
10
1323.435054
20
863.428193
11
1324.636412
21
864.238179
0
LINE
8
holes
10
1324.636412
20
864.238179
11
1325.446389
21
865.439544
0
LINE
8
holes
10
1325.446389
20
865.439544
11
1325.666614
21
866.148997
0
LINE
8
holes
10
1325.666614
20
866.148997
11
1325.743400
21
866.910700
0
LINE
8
holes
10
1325.743400
20
866.910700
11
1325.743400
21
912.265000
0
LINE
8
holes
10
1325.743400
20
912.265000
11
1325.666612
21
913.026702
0
LINE
8
holes
10
1325.666612
20
913.026702
11
1325.446386
21
913.736153
0
LINE
8
holes
10
1325.446386
20
913.736153
11
1324.636408
21
914.937514
0
LINE
8
holes
10
1324.636408
20
914.937514
11
1323.435052
21
915.747498
0
LINE
8
holes
10
1323.435052
20
915.747498
11
1322.725601
21
915.967728
0
LINE
8
holes
10
1322.725601
20
915.967728
11
1321.963900
21
916.044520
0
LINE
8
holes
10
1321.963900
20
916.044520
11
1276.609500
21
916.044520
0
LINE
8
holes
10
1276.609500
20
916.044520
11
1275.847799
21
915.967728
0
LINE
8
holes
10
1275.847799
20
915.967728
11
1275.138348
21
915.747498
0
LINE
8
holes
10
1275.138348
20
915.747498
11
1273.936992
21
914.937514
0
LINE
8
holes
10
1273.936992
20
914.937514
11
1273.127014
21
913.736153
0
LINE
8
holes
10
1273.127014
20
913.736153
11
1272.906788
21
913.026702
0
LINE
8
holes
10
1272.906788
20
913.026702
11
1272.830000
21
912.265000
0
LINE
8
holes
10
165.279000
20
979.956000
11
119.924600
21
979.956000
0
LINE
8
holes
10
119.924600
20
979.956000
11
119.162898
21
979.879208
0
LINE
8
holes
10
119.162898
20
979.879208
11
118.453446
21
979.658977
0
LINE
8
holes
10
118.453446
20
979.658977
11
117.252088
21
978.848991
0
LINE
8
holes
10
117.252088
20
978.848991
11
116.442111
21
977.647626
0
LINE
8
holes
10
116.442111
20
977.647626
11
116.221886
21
976.938173
0
LINE
8
holes
10
116.221886
20
976.938173
11
116.145100
21
976.176470
0
LINE
8
holes
10
116.145100
20
976.176470
11
116.145100
21
930.822170
0
LINE
8
holes
10
116.145100
20
930.822170
11
116.221888
21
930.060468
0
LINE
8
holes
10
116.221888
20
930.060468
11
116.442114
21
929.351017
0
LINE
8
holes
10
116.442114
20
929.351017
11
117.252092
21
928.149656
0
LINE
8
holes
10
117.252092
20
928.149656
11
118.453448
21
927.339672
0
LINE
8
holes
10
118.453448
20
927.339672
11
119.162899
21
927.119442
0
LINE
8
holes
10
119.162899
20
927.119442
11
119.924600
21
927.042650
0
LINE
8
holes
10
119.924600
20
927.042650
11
165.279000
21
927.042650
0
LINE
8
holes
10
165.279000
20
927.042650
11
166.040701
21
927.119442
0
LINE
8
holes
10
166.040701
20
927.119442
11
166.750152
21
927.339672
0
LINE
8
holes
10
166.750152
20
927.339672
11
167.951508
21
928.149656
0
LINE
8
holes
10
167.951508
20
928.149656
11
168.761486
21
929.351017
0
LINE
8
holes
10
168.761486
20
929.351017
11
168.981712
21
930.060468
0
LINE
8
holes
10
168.981712
20
930.060468
11
169.058500
21
930.822170
0
LINE
8
holes
10
169.058500
20
930.822170
11
169.058500
21
976.176470
0
LINE
8
holes
10
169.058500
20
976.176470
11
168.981714
21
976.938173
0
LINE
8
holes
10
168.981714
20
976.938173
11
168.761489
21
977.647626
0
LINE
8
holes
10
168.761489
20
977.647626
11
167.951512
21
978.848991
0
LINE
8
holes
10
167.951512
20
978.848991
11
166.750154
21
979.658977
0
LINE
8
holes
10
166.750154
20
979.658977
11
166.040702
21
979.879208
0
LINE
8
holes
10
166.040702
20
979.879208
11
165.279000
21
979.956000
0
LINE
8
holes
10
165.279000
20
979.956000
11
165.279000
21
979.956000
0
LINE
8
holes
10
1201.590000
20
927.043000
11
1202.351701
21
927.119792
0
LINE
8
holes
10
1202.351701
20
927.119792
11
1203.061152
21
927.340022
0
LINE
8
holes
10
1203.061152
20
927.340022
11
1204.262508
21
928.150006
0
LINE
8
holes
10
1204.262508
20
928.150006
11
1205.072486
21
929.351367
0
LINE
8
holes
10
1205.072486
20
929.351367
11
1205.292712
21
930.060818
0
LINE
8
holes
10
1205.292712
20
930.060818
11
1205.369500
21
930.822520
0
LINE
8
holes
10
1205.369500
20
930.822520
11
1205.369500
21
976.176820
0
LINE
8
holes
10
1205.369500
20
976.176820
11
1205.292714
21
976.938523
0
LINE
8
holes
10
1205.292714
20
976.938523
11
1205.072489
21
977.647976
0
LINE
8
holes
10
1205.072489
20
977.647976
11
1204.262512
21
978.849341
0
LINE
8
holes
10
1204.262512
20
978.849341
11
1203.061154
21
979.659327
0
LINE
8
holes
10
1203.061154
20
979.659327
11
1202.351702
21
979.879558
0
LINE
8
holes
10
1202.351702
20
979.879558
11
1201.590000
21
979.956350
0
LINE
8
holes
10
1201.590000
20
979.956350
11
1156.235700
21
979.956350
0
LINE
8
holes
10
1156.235700
20
979.956350
11
1155.473998
21
979.879558
0
LINE
8
holes
10
1155.473998
20
979.879558
11
1154.764546
21
979.659327
0
LINE
8
holes
10
1154.764546
20
979.659327
11
1153.563188
21
978.849341
0
LINE
8
holes
10
1153.563188
20
978.849341
11
1152.753211
21
977.647976
0
LINE
8
holes
10
1152.753211
20
977.647976
11
1152.532986
21
976.938523
0
LINE
8
holes
10
1152.532986
20
976.938523
11
1152.456200
21
976.176820
0
LINE
8
holes
10
1152.456200
20
976.176820
11
1152.456200
21
930.822520
0
LINE
8
holes
10
1152.456200
20
930.822520
11
1152.532988
21
930.060818
0
LINE
8
holes
10
1152.532988
20
930.060818
11
1152.753214
21
929.351367
0
LINE
8
holes
10
1152.753214
20
929.351367
11
1153.563192
21
928.150006
0
LINE
8
holes
10
1153.563192
20
928.150006
11
1154.764548
21
927.340022
0
LINE
8
holes
10
1154.764548
20
927.340022
11
1155.473999
21
927.119792
0
LINE
8
holes
10
1155.473999
20
927.119792
11
1156.235700
21
927.043000
0
LINE
8
holes
10
1156.235700
20
927.043000
11
1201.590000
21
927.043000
0
LINE
8
holes
10
1207.630000
20
1002.820000
11
1207.630000
21
1048.174400
0
LINE
8
holes
10
1207.630000
20
1048.174400
11
1207.342285
21
1049.620770
0
LINE
8
holes
10
1207.342285
20
1049.620770
11
1206.522966
21
1050.846937
0
LINE
8
holes
10
1206.522966
20
1050.846937
11
1205.296778
21
1051.666223
0
LINE
8
holes
10
1205.296778
20
1051.666223
11
1203.850400
21
1051.953900
0
LINE
8
holes
10
1203.850400
20
1051.953900
11
1158.496100
21
1051.953900
0
LINE
8
holes
10
1158.496100
20
1051.953900
11
1157.734402
21
1051.877109
0
LINE
8
holes
10
1157.734402
20
1051.877109
11
1157.024953
21
1051.656880
0
LINE
8
holes
10
1157.024953
20
1051.656880
11
1155.823599
21
1050.846901
0
LINE
8
holes
10
1155.823599
20
1050.846901
11
1155.013620
21
1049.645547
0
LINE
8
holes
10
1155.013620
20
1049.645547
11
1154.793391
21
1048.936098
0
LINE
8
holes
10
1154.793391
20
1048.936098
11
1154.716600
21
1048.174400
0
LINE
8
holes
10
1154.716600
20
1048.174400
11
1154.716600
21
1002.820000
0
LINE
8
holes
10
1154.716600
20
1002.820000
11
1154.793395
21
1002.058305
0
LINE
8
holes
10
1154.793395
20
1002.058305
11
1155.013626
21
1001.348860
0
LINE
8
holes
10
1155.013626
20
1001.348860
11
1155.823606
21
1000.147512
0
LINE
8
holes
10
1155.823606
20
1000.147512
11
1157.024958
21
999.337538
0
LINE
8
holes
10
1157.024958
20
999.337538
11
1157.734404
21
999.117311
0
LINE
8
holes
10
1157.734404
20
999.117311
11
1158.496100
21
999.040520
0
LINE
8
holes
10
1158.496100
20
999.040520
11
1203.850400
21
999.040520
0
LINE
8
holes
10
1203.850400
20
999.040520
11
1205.296773
21
999.328195
0
LINE
8
holes
10
1205.296773
20
999.328195
11
1206.522959
21
1000.147476
0
LINE
8
holes
10
1206.522959
20
1000.147476
11
1207.342279
21
1001.373636
0
LINE
8
holes
10
1207.342279
20
1001.373636
11
1207.630000
21
1002.820000
0
LINE
8
holes
10
1207.630000
20
1002.820000
11
1207.630000
21
1002.820000
0
LINE
8
holes
10
1214.210000
20
839.735000
11
1214.210000
21
837.845230
0
LINE
8
holes
10
1214.210000
20
837.845230
11
1214.061497
21
837.109666
0
LINE
8
holes
10
1214.061497
20
837.109666
11
1213.656520
21
836.508992
0
LINE
8
holes
10
1213.656520
20
836.508992
11
1213.055859
21
836.103997
0
LINE
8
holes
10
1213.055859
20
836.103997
11
1212.320300
21
835.955470
0
LINE
8
holes
10
1212.320300
20
835.955470
11
1153.737600
21
835.955470
0
LINE
8
holes
10
1153.737600
20
835.955470
11
1153.014409
21
836.099311
0
LINE
8
holes
10
1153.014409
20
836.099311
11
1152.401315
21
836.508957
0
LINE
8
holes
10
1152.401315
20
836.508957
11
1151.991656
21
837.122042
0
LINE
8
holes
10
1151.991656
20
837.122042
11
1151.847800
21
837.845230
0
LINE
8
holes
10
1151.847800
20
837.845230
11
1151.847800
21
839.735000
0
LINE
8
holes
10
1151.847800
20
839.735000
11
1151.771014
21
840.496702
0
LINE
8
holes
10
1151.771014
20
840.496702
11
1151.550789
21
841.206155
0
LINE
8
holes
10
1151.550789
20
841.206155
11
1150.740811
21
842.407517
0
LINE
8
holes
10
1150.740811
20
842.407517
11
1149.539453
21
843.217501
0
LINE
8
holes
10
1149.539453
20
843.217501
11
1148.830002
21
843.437730
0
LINE
8
holes
10
1148.830002
20
843.437730
11
1148.068300
21
843.514520
0
LINE
8
holes
10
1148.068300
20
843.514520
11
1127.280900
21
843.514520
0
LINE
8
holes
10
1127.280900
20
843.514520
11
1126.519199
21
843.437728
0
LINE
8
holes
10
1126.519199
20
843.437728
11
1125.809748
21
843.217498
0
LINE
8
holes
10
1125.809748
20
843.217498
11
1124.608392
21
842.407514
0
LINE
8
holes
10
1124.608392
20
842.407514
11
1123.798414
21
841.206153
0
LINE
8
holes
10
1123.798414
20
841.206153
11
1123.578188
21
840.496702
0
LINE
8
holes
10
1123.578188
20
840.496702
11
1123.501400
21
839.735000
0
LINE
8
holes
10
1123.501400
20
839.735000
11
1123.501400
21
773.594000
0
LINE
8
holes
10
1123.501400
20
773.594000
11
1123.578188
21
772.832298
0
LINE
8
holes
10
1123.578188
20
772.832298
11
1123.798414
21
772.122847
0
LINE
8
holes
10
1123.798414
20
772.122847
11
1124.608392
21
770.921486
0
LINE
8
holes
10
1124.608392
20
770.921486
11
1125.809748
21
770.111502
0
LINE
8
holes
10
1125.809748
20
770.111502
11
1126.519199
21
769.891272
0
LINE
8
holes
10
1126.519199
20
769.891272
11
1127.280900
21
769.814480
0
LINE
8
holes
10
1127.280900
20
769.814480
11
1238.776900
21
769.814480
0
LINE
8
holes
10
1238.776900
20
769.814480
11
1239.538601
21
769.891272
0
LINE
8
holes
10
1239.538601
20
769.891272
11
1240.248052
21
770.111502
0
LINE
8
holes
10
1240.248052
20
770.111502
11
1241.449408
21
770.921486
0
LINE
8
holes
10
1241.449408
20
770.921486
11
1242.259386
21
772.122847
0
LINE
8
holes
10
1242.259386
20
772.122847
11
1242.479612
21
772.832298
0
LINE
8
holes
10
1242.479612
20
772.832298
11
1242.556400
21
773.594000
0
LINE
8
holes
10
1242.556400
20
773.594000
11
1242.556400
21
839.735700
0
LINE
8
holes
10
1242.556400
20
839.735700
11
1242.479612
21
840.497402
0
LINE
8
holes
10
1242.479612
20
840.497402
11
1242.259386
21
841.206853
0
LINE
8
holes
10
1242.259386
20
841.206853
11
1241.449408
21
842.408214
0
LINE
8
holes
10
1241.449408
20
842.408214
11
1240.248052
21
843.218198
0
LINE
8
holes
10
1240.248052
20
843.218198
11
1239.538601
21
843.438428
0
LINE
8
holes
10
1239.538601
20
843.438428
11
1238.776900
21
843.515220
0
LINE
8
holes
10
1238.776900
20
843.515220
11
1217.989500
21
843.515220
0
LINE
8
holes
10
1217.989500
20
843.515220
11
1216.543117
21
843.227541
0
LINE
8
holes
10
1216.543117
20
843.227541
11
1215.316927
21
842.408250
0
LINE
8
holes
10
1215.316927
20
842.408250
11
1214.497609
21
841.182077
0
LINE
8
holes
10
1214.497609
20
841.182077
11
1214.209900
21
839.735700
0
LINE
8
holes
10
1214.209900
20
839.735700
11
1214.210000
21
839.735000
0
LINE
8
holes
10
188.447000
20
847.483000
11
209.234400
21
847.483000
0
LINE
8
holes
10
209.234400
20
847.483000
11
209.996101
21
847.559794
0
LINE
8
holes
10
209.996101
20
847.559794
11
210.705551
21
847.780026
0
LINE
8
holes
10
210.705551
20
847.780026
11
211.906905
21
848.590013
0
LINE
8
holes
10
211.906905
20
848.590013
11
212.716880
21
849.791376
0
LINE
8
holes
10
212.716880
20
849.791376
11
212.937104
21
850.500828
0
LINE
8
holes
10
212.937104
20
850.500828
11
213.013890
21
851.262530
0
LINE
8
holes
10
213.013890
20
851.262530
11
213.013890
21
917.404230
0
LINE
8
holes
10
213.013890
20
917.404230
11
212.937108
21
918.165934
0
LINE
8
holes
10
212.937108
20
918.165934
11
212.716885
21
918.875389
0
LINE
8
holes
10
212.716885
20
918.875389
11
211.906912
21
920.076757
0
LINE
8
holes
10
211.906912
20
920.076757
11
210.705555
21
920.886746
0
LINE
8
holes
10
210.705555
20
920.886746
11
209.996103
21
921.106978
0
LINE
8
holes
10
209.996103
20
921.106978
11
209.234400
21
921.183770
0
LINE
8
holes
10
209.234400
20
921.183770
11
97.738600
21
921.183770
0
LINE
8
holes
10
97.738600
20
921.183770
11
96.976896
21
921.106978
0
LINE
8
holes
10
96.976896
20
921.106978
11
96.267444
21
920.886746
0
LINE
8
holes
10
96.267444
20
920.886746
11
95.066085
21
920.076757
0
LINE
8
holes
10
95.066085
20
920.076757
11
94.256108
21
918.875390
0
LINE
8
holes
10
94.256108
20
918.875390
11
94.035884
21
918.165935
0
LINE
8
holes
10
94.035884
20
918.165935
11
93.959100
21
917.404230
0
LINE
8
holes
10
93.959100
20
917.404230
11
93.959100
21
851.263000
0
LINE
8
holes
10
93.959100
20
851.263000
11
94.035886
21
850.501297
0
LINE
8
holes
10
94.035886
20
850.501297
11
94.256111
21
849.791844
0
LINE
8
holes
10
94.256111
20
849.791844
11
95.066088
21
848.590479
0
LINE
8
holes
10
95.066088
20
848.590479
11
96.267446
21
847.780493
0
LINE
8
holes
10
96.267446
20
847.780493
11
96.976898
21
847.560262
0
LINE
8
holes
10
96.976898
20
847.560262
11
97.738600
21
847.483470
0
LINE
8
holes
10
97.738600
20
847.483470
11
118.526000
21
847.483470
0
LINE
8
holes
10
118.526000
20
847.483470
11
119.287701
21
847.560264
0
LINE
8
holes
10
119.287701
20
847.560264
11
119.997151
21
847.780496
0
LINE
8
holes
10
119.997151
20
847.780496
11
121.198505
21
848.590483
0
LINE
8
holes
10
121.198505
20
848.590483
11
122.008480
21
849.791846
0
LINE
8
holes
10
122.008480
20
849.791846
11
122.228704
21
850.501298
0
LINE
8
holes
10
122.228704
20
850.501298
11
122.305490
21
851.263000
0
LINE
8
holes
10
122.305490
20
851.263000
11
122.305490
21
853.152760
0
LINE
8
holes
10
122.305490
20
853.152760
11
122.449344
21
853.875953
0
LINE
8
holes
10
122.449344
20
853.875953
11
122.859005
21
854.489043
0
LINE
8
holes
10
122.859005
20
854.489043
11
123.472104
21
854.898691
0
LINE
8
holes
10
123.472104
20
854.898691
11
124.195300
21
855.042530
0
LINE
8
holes
10
124.195300
20
855.042530
11
182.778000
21
855.042530
0
LINE
8
holes
10
182.778000
20
855.042530
11
183.513561
21
854.894002
0
LINE
8
holes
10
183.513561
20
854.894002
11
184.114224
21
854.489004
0
LINE
8
holes
10
184.114224
20
854.489004
11
184.519200
21
853.888327
0
LINE
8
holes
10
184.519200
20
853.888327
11
184.667700
21
853.152760
0
LINE
8
holes
10
184.667700
20
853.152760
11
184.667700
21
851.263000
0
LINE
8
holes
10
184.667700
20
851.263000
11
184.955406
21
849.816620
0
LINE
8
holes
10
184.955406
20
849.816620
11
185.774723
21
848.590444
0
LINE
8
holes
10
185.774723
20
848.590444
11
187.000915
21
847.771149
0
LINE
8
holes
10
187.000915
20
847.771149
11
188.447300
21
847.483470
0
LINE
8
holes
10
188.447300
20
847.483470
11
188.447000
21
847.483000
0
LINE
8
holes
10
1319.240000
20
744.000000
11
1319.240000
21
709.984300
0
LINE
8
holes
10
1319.240000
20
709.984300
11
1319.395717
21
708.462794
0
LINE
8
holes
10
1319.395717
20
708.462794
11
1319.837563
21
707.045922
0
LINE
8
holes
10
1319.837563
20
707.045922
11
1320.535212
21
705.763960
0
LINE
8
holes
10
1320.535212
20
705.763960
11
1321.458336
21
704.647188
0
LINE
8
holes
10
1321.458336
20
704.647188
11
1322.576609
21
703.725881
0
LINE
8
holes
10
1322.576609
20
703.725881
11
1323.859704
21
703.030319
0
LINE
8
holes
10
1323.859704
20
703.030319
11
1325.277293
21
702.590778
0
LINE
8
holes
10
1325.277293
20
702.590778
11
1326.799050
21
702.437536
0
LINE
8
holes
10
1326.799050
20
702.437536
11
1328.320807
21
702.590778
0
LINE
8
holes
10
1328.320807
20
702.590778
11
1329.738396
21
703.030319
0
LINE
8
holes
10
1329.738396
20
703.030319
11
1331.021491
21
703.725881
0
LINE
8
holes
10
1331.021491
20
703.725881
11
1332.139764
21
704.647188
0
LINE
8
holes
10
1332.139764
20
704.647188
11
1333.062888
21
705.763960
0
LINE
8
holes
10
1333.062888
20
705.763960
11
1333.760537
21
707.045922
0
LINE
8
holes
10
1333.760537
20
707.045922
11
1334.202383
21
708.462794
0
LINE
8
holes
10
1334.202383
20
708.462794
11
1334.358100
21
709.984300
0
LINE
8
holes
10
1334.358100
20
709.984300
11
1334.358100
21
744.000000
0
LINE
8
holes
10
1334.358100
20
744.000000
11
1334.096440
21
745.972290
0
LINE
8
holes
10
1334.096440
20
745.972290
11
1333.345379
21
747.779525
0
LINE
8
holes
10
1333.345379
20
747.779525
11
1332.155798
21
749.333580
0
LINE
8
holes
10
1332.155798
20
749.333580
11
1330.578575
21
750.546329
0
LINE
8
holes
10
1330.578575
20
750.546329
11
1328.739692
21
751.305870
0
LINE
8
holes
10
1328.739692
20
751.305870
11
1326.799050
21
751.559050
0
LINE
8
holes
10
1326.799050
20
751.559050
11
1324.858408
21
751.305870
0
LINE
8
holes
10
1324.858408
20
751.305870
11
1323.019525
21
750.546329
0
LINE
8
holes
10
1323.019525
20
750.546329
11
1321.442302
21
749.333580
0
LINE
8
holes
10
1321.442302
20
749.333580
11
1320.252721
21
747.779525
0
LINE
8
holes
10
1320.252721
20
747.779525
11
1319.501660
21
745.972290
0
LINE
8
holes
10
1319.501660
20
745.972290
11
1319.240000
21
744.000000
0
LINE
8
holes
10
1319.240000
20
744.000000
11
1319.240000
21
744.000000
0
LINE
8
holes
10
151.084000
20
714.641000
11
151.084000
21
759.995300
0
LINE
8
holes
10
151.084000
20
759.995300
11
150.796290
21
761.441679
0
LINE
8
holes
10
150.796290
20
761.441679
11
149.976969
21
762.667853
0
LINE
8
holes
10
149.976969
20
762.667853
11
148.750776
21
763.487144
0
LINE
8
holes
10
148.750776
20
763.487144
11
147.304390
21
763.774820
0
LINE
8
holes
10
147.304390
20
763.774820
11
101.950090
21
763.774820
0
LINE
8
holes
10
101.950090
20
763.774820
11
101.188390
21
763.698028
0
LINE
8
holes
10
101.188390
20
763.698028
11
100.478940
21
763.477798
0
LINE
8
holes
10
100.478940
20
763.477798
11
99.277585
21
762.667814
0
LINE
8
holes
10
99.277585
20
762.667814
11
98.467610
21
761.466452
0
LINE
8
holes
10
98.467610
20
761.466452
11
98.247386
21
760.757001
0
LINE
8
holes
10
98.247386
20
760.757001
11
98.170600
21
759.995300
0
LINE
8
holes
10
98.170600
20
759.995300
11
98.170600
21
714.641000
0
LINE
8
holes
10
98.170600
20
714.641000
11
98.247386
21
713.879298
0
LINE
8
holes
10
98.247386
20
713.879298
11
98.467610
21
713.169846
0
LINE
8
holes
10
98.467610
20
713.169846
11
99.277585
21
711.968483
0
LINE
8
holes
10
99.277585
20
711.968483
11
100.478939
21
711.158496
0
LINE
8
holes
10
100.478939
20
711.158496
11
101.188389
21
710.938264
0
LINE
8
holes
10
101.188389
20
710.938264
11
101.950090
21
710.861470
0
LINE
8
holes
10
101.950090
20
710.861470
11
147.304390
21
710.861470
0
LINE
8
holes
10
147.304390
20
710.861470
11
148.750778
21
711.149147
0
LINE
8
holes
10
148.750778
20
711.149147
11
149.976973
21
711.968440
0
LINE
8
holes
10
149.976973
20
711.968440
11
150.796293
21
713.194618
0
LINE
8
holes
10
150.796293
20
713.194618
11
151.084000
21
714.641000
0
LINE
8
holes
10
151.084000
20
714.641000
11
151.084000
21
714.641000
0
LINE
8
holes
10
783.350000
20
713.421000
11
738.986800
21
703.991310
0
LINE
8
holes
10
738.986800
20
703.991310
11
738.257710
21
703.757828
0
LINE
8
holes
10
738.257710
20
703.757828
11
737.609552
21
703.394905
0
LINE
8
holes
10
737.609552
20
703.394905
11
736.602856
21
702.352842
0
LINE
8
holes
10
736.602856
20
702.352842
11
736.060359
21
701.009328
0
LINE
8
holes
10
736.060359
20
701.009328
11
735.992451
21
700.269591
0
LINE
8
holes
10
735.992451
20
700.269591
11
736.075710
21
699.508570
0
LINE
8
holes
10
736.075710
20
699.508570
11
745.505400
21
655.145370
0
LINE
8
holes
10
745.505400
20
655.145370
11
745.738875
21
654.416280
0
LINE
8
holes
10
745.738875
20
654.416280
11
746.101791
21
653.768121
0
LINE
8
holes
10
746.101791
20
653.768121
11
747.143841
21
652.761417
0
LINE
8
holes
10
747.143841
20
652.761417
11
748.487346
21
652.218907
0
LINE
8
holes
10
748.487346
20
652.218907
11
749.227080
21
652.150990
0
LINE
8
holes
10
749.227080
20
652.150990
11
749.988100
21
652.234240
0
LINE
8
holes
10
749.988100
20
652.234240
11
794.351400
21
661.663930
0
LINE
8
holes
10
794.351400
20
661.663930
11
795.080493
21
661.897411
0
LINE
8
holes
10
795.080493
20
661.897411
11
795.728654
21
662.260333
0
LINE
8
holes
10
795.728654
20
662.260333
11
796.735355
21
663.302399
0
LINE
8
holes
10
796.735355
20
663.302399
11
797.277853
21
664.645917
0
LINE
8
holes
10
797.277853
20
664.645917
11
797.345761
21
665.385656
0
LINE
8
holes
10
797.345761
20
665.385656
11
797.262500
21
666.146680
0
LINE
8
holes
10
797.262500
20
666.146680
11
787.832800
21
710.509880
0
LINE
8
holes
10
787.832800
20
710.509880
11
787.250665
21
711.864830
0
LINE
8
holes
10
787.250665
20
711.864830
11
786.194323
21
712.893864
0
LINE
8
holes
10
786.194323
20
712.893864
11
784.824594
21
713.440319
0
LINE
8
holes
10
784.824594
20
713.440319
11
783.350010
21
713.421000
0
LINE
8
holes
10
783.350010
20
713.421000
11
783.350000
21
713.421000
0
LINE
8
holes
10
976.159000
20
744.731000
11
985.588710
21
700.367800
0
LINE
8
holes
10
985.588710
20
700.367800
11
985.822187
21
699.638714
0
LINE
8
holes
10
985.822187
20
699.638714
11
986.185102
21
698.990557
0
LINE
8
holes
10
986.185102
20
698.990557
11
987.227151
21
697.983857
0
LINE
8
holes
10
987.227151
20
697.983857
11
988.570651
21
697.441349
0
LINE
8
holes
10
988.570651
20
697.441349
11
989.310382
21
697.373432
0
LINE
8
holes
10
989.310382
20
697.373432
11
990.071400
21
697.456680
0
LINE
8
holes
10
990.071400
20
697.456680
11
1034.434600
21
706.886380
0
LINE
8
holes
10
1034.434600
20
706.886380
11
1035.789559
21
707.468493
0
LINE
8
holes
10
1035.789559
20
707.468493
11
1036.818610
21
708.524818
0
LINE
8
holes
10
1036.818610
20
708.524818
11
1037.365090
21
709.894536
0
LINE
8
holes
10
1037.365090
20
709.894536
11
1037.345800
21
711.369120
0
LINE
8
holes
10
1037.345800
20
711.369120
11
1027.916100
21
755.732320
0
LINE
8
holes
10
1027.916100
20
755.732320
11
1027.333964
21
757.087273
0
LINE
8
holes
10
1027.333964
20
757.087273
11
1026.277619
21
758.116308
0
LINE
8
holes
10
1026.277619
20
758.116308
11
1024.907887
21
758.662762
0
LINE
8
holes
10
1024.907887
20
758.662762
11
1023.433300
21
758.643440
0
LINE
8
holes
10
1023.433300
20
758.643440
11
979.070100
21
749.213750
0
LINE
8
holes
10
979.070100
20
749.213750
11
978.341007
21
748.980271
0
LINE
8
holes
10
978.341007
20
748.980271
11
977.692846
21
748.617350
0
LINE
8
holes
10
977.692846
20
748.617350
11
976.686143
21
747.575288
0
LINE
8
holes
10
976.686143
20
747.575288
11
976.143641
21
746.231772
0
LINE
8
holes
10
976.143641
20
746.231772
11
976.075731
21
745.492034
0
LINE
8
holes
10
976.075731
20
745.492034
11
976.158990
21
744.731010
0
LINE
8
holes
10
976.158990
20
744.731010
11
976.159000
21
744.731000
0
LINE
8
holes
10
62.834700
20
626.457000
11
62.622100
21
624.854509
0
LINE
8
holes
10
62.622100
20
624.854509
11
62.011862
21
623.386125
0
LINE
8
holes
10
62.011862
20
623.386125
11
61.045323
21
622.123451
0
LINE
8
holes
10
61.045323
20
622.123451
11
59.763825
21
621.138088
0
LINE
8
holes
10
59.763825
20
621.138088
11
58.269727
21
620.520960
0
LINE
8
holes
10
58.269727
20
620.520960
11
56.692950
21
620.315250
0
LINE
8
holes
10
56.692950
20
620.315250
11
55.116173
21
620.520960
0
LINE
8
holes
10
55.116173
20
620.520960
11
53.622075
21
621.138088
0
LINE
8
holes
10
53.622075
20
621.138088
11
52.340577
21
622.123451
0
LINE
8
holes
10
52.340577
20
622.123451
11
51.374038
21
623.386125
0
LINE
8
holes
10
51.374038
20
623.386125
11
50.763800
21
624.854509
0
LINE
8
holes
10
50.763800
20
624.854509
11
50.551200
21
626.457000
0
LINE
8
holes
10
50.551200
20
626.457000
11
50.763800
21
628.059491
0
LINE
8
holes
10
50.763800
20
628.059491
11
51.374038
21
629.527875
0
LINE
8
holes
10
51.374038
20
629.527875
11
52.340577
21
630.790549
0
LINE
8
holes
10
52.340577
20
630.790549
11
53.622075
21
631.775912
0
LINE
8
holes
10
53.622075
20
631.775912
11
55.116173
21
632.393040
0
LINE
8
holes
10
55.116173
20
632.393040
11
56.692950
21
632.598750
0
LINE
8
holes
10
56.692950
20
632.598750
11
58.269727
21
632.393040
0
LINE
8
holes
10
58.269727
20
632.393040
11
59.763825
21
631.775912
0
LINE
8
holes
10
59.763825
20
631.775912
11
61.045323
21
630.790549
0
LINE
8
holes
10
61.045323
20
630.790549
11
62.011862
21
629.527875
0
LINE
8
holes
10
62.011862
20
629.527875
11
62.622100
21
628.059491
0
LINE
8
holes
10
62.622100
20
628.059491
11
62.834700
21
626.457000
0
LINE
8
holes
10
62.834700
20
626.457000
11
62.834700
21
626.457000
0
LINE
8
holes
10
62.834700
20
1080.940000
11
62.622100
21
1079.337509
0
LINE
8
holes
10
62.622100
20
1079.337509
11
62.011862
21
1077.869125
0
LINE
8
holes
10
62.011862
20
1077.869125
11
61.045323
21
1076.606451
0
LINE
8
holes
10
61.045323
20
1076.606451
11
59.763825
21
1075.621088
0
LINE
8
holes
10
59.763825
20
1075.621088
11
58.269727
21
1075.003960
0
LINE
8
holes
10
58.269727
20
1075.003960
11
56.692950
21
1074.798250
0
LINE
8
holes
10
56.692950
20
1074.798250
11
55.116173
21
1075.003960
0
LINE
8
holes
10
55.116173
20
1075.003960
11
53.622075
21
1075.621088
0
LINE
8
holes
10
53.622075
20
1075.621088
11
52.340577
21
1076.606451
0
LINE
8
holes
10
52.340577
20
1076.606451
11
51.374038
21
1077.869125
0
LINE
8
holes
10
51.374038
20
1077.869125
11
50.763800
21
1079.337509
0
LINE
8
holes
10
50.763800
20
1079.337509
11
50.551200
21
1080.940000
0
LINE
8
holes
10
50.551200
20
1080.940000
11
50.763800
21
1082.542491
0
LINE
8
holes
10
50.763800
20
1082.542491
11
51.374038
21
1084.010875
0
LINE
8
holes
10
51.374038
20
1084.010875
11
52.340577
21
1085.273549
0
LINE
8
holes
10
52.340577
20
1085.273549
11
53.622075
21
1086.258912
0
LINE
8
holes
10
53.622075
20
1086.258912
11
55.116173
21
1086.876040
0
LINE
8
holes
10
55.116173
20
1086.876040
11
56.692950
21
1087.081750
0
LINE
8
holes
10
56.692950
20
1087.081750
11
58.269727
21
1086.876040
0
LINE
8
holes
10
58.269727
20
1086.876040
11
59.763825
21
1086.258912
0
LINE
8
holes
10
59.763825
20
1086.258912
11
61.045323
21
1085.273549
0
LINE
8
holes
10
61.045323
20
1085.273549
11
62.011862
21
1084.010875
0
LINE
8
holes
10
62.011862
20
1084.010875
11
62.622100
21
1082.542491
0
LINE
8
holes
10
62.622100
20
1082.542491
11
62.834700
21
1080.940000
0
LINE
8
holes
10
62.834700
20
1080.940000
11
62.834700
21
1080.940000
0
LINE
8
holes
10
493.701000
20
1080.940000
11
493.488400
21
1079.337509
0
LINE
8
holes
10
493.488400
20
1079.337509
11
492.878162
21
1077.869125
0
LINE
8
holes
10
492.878162
20
1077.869125
11
491.911623
21
1076.606451
0
LINE
8
holes
10
491.911623
20
1076.606451
11
490.630125
21
1075.621088
0
LINE
8
holes
10
490.630125
20
1075.621088
11
489.136027
21
1075.003960
0
LINE
8
holes
10
489.136027
20
1075.003960
11
487.559250
21
1074.798250
0
LINE
8
holes
10
487.559250
20
1074.798250
11
485.982473
21
1075.003960
0
LINE
8
holes
10
485.982473
20
1075.003960
11
484.488375
21
1075.621088
0
LINE
8
holes
10
484.488375
20
1075.621088
11
483.206877
21
1076.606451
0
LINE
8
holes
10
483.206877
20
1076.606451
11
482.240338
21
1077.869125
0
LINE
8
holes
10
482.240338
20
1077.869125
11
481.630100
21
1079.337509
0
LINE
8
holes
10
481.630100
20
1079.337509
11
481.417500
21
1080.940000
0
LINE
8
holes
10
481.417500
20
1080.940000
11
481.630100
21
1082.542491
0
LINE
8
holes
10
481.630100
20
1082.542491
11
482.240338
21
1084.010875
0
LINE
8
holes
10
482.240338
20
1084.010875
11
483.206877
21
1085.273549
0
LINE
8
holes
10
483.206877
20
1085.273549
11
484.488375
21
1086.258912
0
LINE
8
holes
10
484.488375
20
1086.258912
11
485.982473
21
1086.876040
0
LINE
8
holes
10
485.982473
20
1086.876040
11
487.559250
21
1087.081750
0
LINE
8
holes
10
487.559250
20
1087.081750
11
489.136027
21
1086.876040
0
LINE
8
holes
10
489.136027
20
1086.876040
11
490.630125
21
1086.258912
0
LINE
8
holes
10
490.630125
20
1086.258912
11
491.911623
21
1085.273549
0
LINE
8
holes
10
491.911623
20
1085.273549
11
492.878162
21
1084.010875
0
LINE
8
holes
10
492.878162
20
1084.010875
11
493.488400
21
1082.542491
0
LINE
8
holes
10
493.488400
20
1082.542491
11
493.701000
21
1080.940000
0
LINE
8
holes
10
493.701000
20
1080.940000
11
493.701000
21
1080.940000
0
LINE
8
holes
10
912.472000
20
1080.940000
11
912.259400
21
1079.337509
0
LINE
8
holes
10
912.259400
20
1079.337509
11
911.649162
21
1077.869125
0
LINE
8
holes
10
911.649162
20
1077.869125
11
910.682623
21
1076.606451
0
LINE
8
holes
10
910.682623
20
1076.606451
11
909.401125
21
1075.621088
0
LINE
8
holes
10
909.401125
20
1075.621088
11
907.907027
21
1075.003960
0
LINE
8
holes
10
907.907027
20
1075.003960
11
906.330250
21
1074.798250
0
LINE
8
holes
10
906.330250
20
1074.798250
11
904.753473
21
1075.003960
0
LINE
8
holes
10
904.753473
20
1075.003960
11
903.259375
21
1075.621088
0
LINE
8
holes
10
903.259375
20
1075.621088
11
901.977877
21
1076.606451
0
LINE
8
holes
10
901.977877
20
1076.606451
11
901.011338
21
1077.869125
0
LINE
8
holes
10
901.011338
20
1077.869125
11
900.401100
21
1079.337509
0
LINE
8
holes
10
900.401100
20
1079.337509
11
900.188500
21
1080.940000
0
LINE
8
holes
10
900.188500
20
1080.940000
11
900.401100
21
1082.542491
0
LINE
8
holes
10
900.401100
20
1082.542491
11
901.011338
21
1084.010875
0
LINE
8
holes
10
901.011338
20
1084.010875
11
901.977877
21
1085.273549
0
LINE
8
holes
10
901.977877
20
1085.273549
11
903.259375
21
1086.258912
0
LINE
8
holes
10
903.259375
20
1086.258912
11
904.753473
21
1086.876040
0
LINE
8
holes
10
904.753473
20
1086.876040
11
906.330250
21
1087.081750
0
LINE
8
holes
10
906.330250
20
1087.081750
11
907.907027
21
1086.876040
0
LINE
8
holes
10
907.907027
20
1086.876040
11
909.401125
21
1086.258912
0
LINE
8
holes
10
909.401125
20
1086.258912
11
910.682623
21
1085.273549
0
LINE
8
holes
10
910.682623
20
1085.273549
11
911.649162
21
1084.010875
0
LINE
8
holes
10
911.649162
20
1084.010875
11
912.259400
21
1082.542491
0
LINE
8
holes
10
912.259400
20
1082.542491
11
912.472000
21
1080.940000
0
LINE
8
holes
10
912.472000
20
1080.940000
11
912.472000
21
1080.940000
0
LINE
8
holes
10
1343.340000
20
1080.940000
11
1343.127400
21
1079.337509
0
LINE
8
holes
10
1343.127400
20
1079.337509
11
1342.517162
21
1077.869125
0
LINE
8
holes
10
1342.517162
20
1077.869125
11
1341.550623
21
1076.606451
0
LINE
8
holes
10
1341.550623
20
1076.606451
11
1340.269125
21
1075.621088
0
LINE
8
holes
10
1340.269125
20
1075.621088
11
1338.775027
21
1075.003960
0
LINE
8
holes
10
1338.775027
20
1075.003960
11
1337.198250
21
1074.798250
0
LINE
8
holes
10
1337.198250
20
1074.798250
11
1335.621473
21
1075.003960
0
LINE
8
holes
10
1335.621473
20
1075.003960
11
1334.127375
21
1075.621088
0
LINE
8
holes
10
1334.127375
20
1075.621088
11
1332.845877
21
1076.606451
0
LINE
8
holes
10
1332.845877
20
1076.606451
11
1331.879338
21
1077.869125
0
LINE
8
holes
10
1331.879338
20
1077.869125
11
1331.269100
21
1079.337509
0
LINE
8
holes
10
1331.269100
20
1079.337509
11
1331.056500
21
1080.940000
0
LINE
8
holes
10
1331.056500
20
1080.940000
11
1331.269099
21
1082.542491
0
LINE
8
holes
10
1331.269099
20
1082.542491
11
1331.879338
21
1084.010875
0
LINE
8
holes
10
1331.879338
20
1084.010875
11
1332.845877
21
1085.273550
0
LINE
8
holes
10
1332.845877
20
1085.273550
11
1334.127375
21
1086.258912
0
LINE
8
holes
10
1334.127375
20
1086.258912
11
1335.621473
21
1086.876041
0
LINE
8
holes
10
1335.621473
20
1086.876041
11
1337.198250
21
1087.081751
0
LINE
8
holes
10
1337.198250
20
1087.081751
11
1338.775027
21
1086.876041
0
LINE
8
holes
10
1338.775027
20
1086.876041
11
1340.269125
21
1086.258912
0
LINE
8
holes
10
1340.269125
20
1086.258912
11
1341.550623
21
1085.273550
0
LINE
8
holes
10
1341.550623
20
1085.273550
11
1342.517162
21
1084.010875
0
LINE
8
holes
10
1342.517162
20
1084.010875
11
1343.127401
21
1082.542491
0
LINE
8
holes
10
1343.127401
20
1082.542491
11
1343.340000
21
1080.940000
0
LINE
8
holes
10
1343.340000
20
1080.940000
11
1343.340000
21
1080.940000
0
LINE
8
holes
10
1343.340000
20
626.457000
11
1343.127400
21
624.854509
0
LINE
8
holes
10
1343.127400
20
624.854509
11
1342.517162
21
623.386125
0
LINE
8
holes
10
1342.517162
20
623.386125
11
1341.550623
21
622.123451
0
LINE
8
holes
10
1341.550623
20
622.123451
11
1340.269125
21
621.138088
0
LINE
8
holes
10
1340.269125
20
621.138088
11
1338.775027
21
620.520960
0
LINE
8
holes
10
1338.775027
20
620.520960
11
1337.198250
21
620.315250
0
LINE
8
holes
10
1337.198250
20
620.315250
11
1335.621473
21
620.520960
0
LINE
8
holes
10
1335.621473
20
620.520960
11
1334.127375
21
621.138088
0
LINE
8
holes
10
1334.127375
20
621.138088
11
1332.845877
21
622.123451
0
LINE
8
holes
10
1332.845877
20
622.123451
11
1331.879338
21
623.386125
0
LINE
8
holes
10
1331.879338
20
623.386125
11
1331.269100
21
624.854509
0
LINE
8
holes
10
1331.269100
20
624.854509
11
1331.056500
21
626.457000
0
LINE
8
holes
10
1331.056500
20
626.457000
11
1331.269099
21
628.059491
0
LINE
8
holes
10
1331.269099
20
628.059491
11
1331.879338
21
629.527875
0
LINE
8
holes
10
1331.879338
20
629.527875
11
1332.845877
21
630.790550
0
LINE
8
holes
10
1332.845877
20
630.790550
11
1334.127375
21
631.775912
0
LINE
8
holes
10
1334.127375
20
631.775912
11
1335.621473
21
632.393041
0
LINE
8
holes
10
1335.621473
20
632.393041
11
1337.198250
21
632.598751
0
LINE
8
holes
10
1337.198250
20
632.598751
11
1338.775027
21
632.393041
0
LINE
8
holes
10
1338.775027
20
632.393041
11
1340.269125
21
631.775912
0
LINE
8
holes
10
1340.269125
20
631.775912
11
1341.550623
21
630.790550
0
LINE
8
holes
10
1341.550623
20
630.790550
11
1342.517162
21
629.527875
0
LINE
8
holes
10
1342.517162
20
629.527875
11
1343.127401
21
628.059491
0
LINE
8
holes
10
1343.127401
20
628.059491
11
1343.340000
21
626.457000
0
LINE
8
holes
10
1343.340000
20
626.457000
11
1343.340000
21
626.457000
0
LINE
8
holes
10
912.472000
20
626.457000
11
912.259400
21
624.854509
0
LINE
8
holes
10
912.259400
20
624.854509
11
911.649162
21
623.386125
0
LINE
8
holes
10
911.649162
20
623.386125
11
910.682623
21
622.123451
0
LINE
8
holes
10
910.682623
20
622.123451
11
909.401125
21
621.138088
0
LINE
8
holes
10
909.401125
20
621.138088
11
907.907027
21
620.520960
0
LINE
8
holes
10
907.907027
20
620.520960
11
906.330250
21
620.315250
0
LINE
8
holes
10
906.330250
20
620.315250
11
904.753473
21
620.520960
0
LINE
8
holes
10
904.753473
20
620.520960
11
903.259375
21
621.138088
0
LINE
8
holes
10
903.259375
20
621.138088
11
901.977877
21
622.123451
0
LINE
8
holes
10
901.977877
20
622.123451
11
901.011338
21
623.386125
0
LINE
8
holes
10
901.011338
20
623.386125
11
900.401100
21
624.854509
0
LINE
8
holes
10
900.401100
20
624.854509
11
900.188500
21
626.457000
0
LINE
8
holes
10
900.188500
20
626.457000
11
900.401100
21
628.059491
0
LINE
8
holes
10
900.401100
20
628.059491
11
901.011338
21
629.527875
0
LINE
8
holes
10
901.011338
20
629.527875
11
901.977877
21
630.790549
0
LINE
8
holes
10
901.977877
20
630.790549
11
903.259375
21
631.775912
0
LINE
8
holes
10
903.259375
20
631.775912
11
904.753473
21
632.393040
0
LINE
8
holes
10
904.753473
20
632.393040
11
906.330250
21
632.598750
0
LINE
8
holes
10
906.330250
20
632.598750
11
907.907027
21
632.393040
0
LINE
8
holes
10
907.907027
20
632.393040
11
909.401125
21
631.775912
0
LINE
8
holes
10
909.401125
20
631.775912
11
910.682623
21
630.790549
0
LINE
8
holes
10
910.682623
20
630.790549
11
911.649162
21
629.527875
0
LINE
8
holes
10
911.649162
20
629.527875
11
912.259400
21
628.059491
0
LINE
8
holes
10
912.259400
20
628.059491
11
912.472000
21
626.457000
0
LINE
8
holes
10
912.472000
20
626.457000
11
912.472000
21
626.457000
0
LINE
8
holes
10
493.701000
20
626.457000
11
493.488400
21
624.854509
0
LINE
8
holes
10
493.488400
20
624.854509
11
492.878162
21
623.386125
0
LINE
8
holes
10
492.878162
20
623.386125
11
491.911623
21
622.123451
0
LINE
8
holes
10
491.911623
20
622.123451
11
490.630125
21
621.138088
0
LINE
8
holes
10
490.630125
20
621.138088
11
489.136027
21
620.520960
0
LINE
8
holes
10
489.136027
20
620.520960
11
487.559250
21
620.315250
0
LINE
8
holes
10
487.559250
20
620.315250
11
485.982473
21
620.520960
0
LINE
8
holes
10
485.982473
20
620.520960
11
484.488375
21
621.138088
0
LINE
8
holes
10
484.488375
20
621.138088
11
483.206877
21
622.123451
0
LINE
8
holes
10
483.206877
20
622.123451
11
482.240338
21
623.386125
0
LINE
8
holes
10
482.240338
20
623.386125
11
481.630100
21
624.854509
0
LINE
8
holes
10
481.630100
20
624.854509
11
481.417500
21
626.457000
0
LINE
8
holes
10
481.417500
20
626.457000
11
481.630100
21
628.059491
0
LINE
8
holes
10
481.630100
20
628.059491
11
482.240338
21
629.527875
0
LINE
8
holes
10
482.240338
20
629.527875
11
483.206877
21
630.790549
0
LINE
8
holes
10
483.206877
20
630.790549
11
484.488375
21
631.775912
0
LINE
8
holes
10
484.488375
20
631.775912
11
485.982473
21
632.393040
0
LINE
8
holes
10
485.982473
20
632.393040
11
487.559250
21
632.598750
0
LINE
8
holes
10
487.559250
20
632.598750
11
489.136027
21
632.393040
0
LINE
8
holes
10
489.136027
20
632.393040
11
490.630125
21
631.775912
0
LINE
8
holes
10
490.630125
20
631.775912
11
491.911623
21
630.790549
0
LINE
8
holes
10
491.911623
20
630.790549
11
492.878162
21
629.527875
0
LINE
8
holes
10
492.878162
20
629.527875
11
493.488400
21
628.059491
0
LINE
8
holes
10
493.488400
20
628.059491
11
493.701000
21
626.457000
0
LINE
8
holes
10
493.701000
20
626.457000
11
493.701000
21
626.457000
0
LINE
8
holes
10
202.415000
20
985.800000
11
203.176701
21
985.723208
0
LINE
8
holes
10
203.176701
20
985.723208
11
203.886152
21
985.502978
0
LINE
8
holes
10
203.886152
20
985.502978
11
205.087508
21
984.692994
0
LINE
8
holes
10
205.087508
20
984.692994
11
205.897486
21
983.491633
0
LINE
8
holes
10
205.897486
20
983.491633
11
206.117712
21
982.782182
0
LINE
8
holes
10
206.117712
20
982.782182
11
206.194500
21
982.020480
0
LINE
8
parts
10
37.795300
20
622.677000
11
37.795300
21
1084.724000
0
LINE
8
parts
10
37.795300
20
1084.724000
11
38.088474
21
1087.687168
0
LINE
8
parts
10
38.088474
20
1087.687168
11
38.946097
21
1090.509446
0
LINE
8
parts
10
38.946097
20
1090.509446
11
40.335318
21
1093.111530
0
LINE
8
parts
10
40.335318
20
1093.111530
11
42.223289
21
1095.414111
0
LINE
8
parts
10
42.223289
20
1095.414111
11
44.525870
21
1097.302082
0
LINE
8
parts
10
44.525870
20
1097.302082
11
47.127954
21
1098.691303
0
LINE
8
parts
10
47.127954
20
1098.691303
11
49.950232
21
1099.548926
0
LINE
8
parts
10
49.950232
20
1099.548926
11
52.913400
21
1099.842100
0
LINE
8
parts
10
52.913400
20
1099.842100
11
676.724000
21
1099.842100
0
LINE
8
parts
10
676.724000
20
1099.842100
11
677.459578
21
1099.693611
0
LINE
8
parts
10
677.459578
20
1099.693611
11
678.060267
21
1099.288637
0
LINE
8
parts
10
678.060267
20
1099.288637
11
678.465272
21
1098.687970
0
LINE
8
parts
10
678.465272
20
1098.687970
11
678.613800
21
1097.952400
0
LINE
8
parts
10
678.613800
20
1097.952400
11
678.613800
21
1059.152600
0
LINE
8
parts
10
678.613800
20
1059.152600
11
678.762322
21
1058.417053
0
LINE
8
parts
10
678.762322
20
1058.417053
11
679.167304
21
1057.816397
0
LINE
8
parts
10
679.167304
20
1057.816397
11
679.767962
21
1057.411418
0
LINE
8
parts
10
679.767962
20
1057.411418
11
680.503510
21
1057.262900
0
LINE
8
parts
10
680.503510
20
1057.262900
11
713.385410
21
1057.262900
0
LINE
8
parts
10
713.385410
20
1057.262900
11
714.120988
21
1057.411389
0
LINE
8
parts
10
714.120988
20
1057.411389
11
714.721677
21
1057.816363
0
LINE
8
parts
10
714.721677
20
1057.816363
11
715.126682
21
1058.417030
0
LINE
8
parts
10
715.126682
20
1058.417030
11
715.275210
21
1059.152600
0
LINE
8
parts
10
715.275210
20
1059.152600
11
715.275210
21
1097.952400
0
LINE
8
parts
10
715.275210
20
1097.952400
11
715.423738
21
1098.687970
0
LINE
8
parts
10
715.423738
20
1098.687970
11
715.828743
21
1099.288637
0
LINE
8
parts
10
715.828743
20
1099.288637
11
716.429432
21
1099.693611
0
LINE
8
parts
10
716.429432
20
1099.693611
11
717.165010
21
1099.842100
0
LINE
8
parts
10
717.165010
20
1099.842100
11
1340.976010
21
1099.842100
0
LINE
8
parts
10
1340.976010
20
1099.842100
11
1342.521748
21
1099.764047
0
LINE
8
parts
10
1342.521748
20
1099.764047
11
1344.022834
21
1099.534954
0
LINE
8
parts
10
1344.022834
20
1099.534954
11
1346.860657
21
1098.654045
0
LINE
8
parts
10
1346.860657
20
1098.654045
11
1349.428683
21
1097.260166
0
LINE
8
parts
10
1349.428683
20
1097.260166
11
1351.666121
21
1095.414111
0
LINE
8
parts
10
1351.666121
20
1095.414111
11
1353.512176
21
1093.176673
0
LINE
8
parts
10
1353.512176
20
1093.176673
11
1354.906055
21
1090.608647
0
LINE
8
parts
10
1354.906055
20
1090.608647
11
1355.786964
21
1087.770824
0
LINE
8
parts
10
1355.786964
20
1087.770824
11
1356.016057
21
1086.269738
0
LINE
8
parts
10
1356.016057
20
1086.269738
11
1356.094110
21
1084.724000
0
LINE
8
parts
10
1356.094110
20
1084.724000
11
1356.094110
21
622.677000
0
LINE
8
parts
10
1356.094110
20
622.677000
11
1356.016057
21
621.131262
0
LINE
8
parts
10
1356.016057
20
621.131262
11
1355.786964
21
619.630176
0
LINE
8
parts
10
1355.786964
20
619.630176
11
1354.906055
21
616.792353
0
LINE
8
parts
10
1354.906055
20
616.792353
11
1353.512176
21
614.224327
0
LINE
8
parts
10
1353.512176
20
614.224327
11
1351.666121
21
611.986889
0
LINE
8
parts
10
1351.666121
20
611.986889
11
1349.428683
21
610.140834
0
LINE
8
parts
10
1349.428683
20
610.140834
11
1346.860657
21
608.746955
0
LINE
8
parts
10
1346.860657
20
608.746955
11
1344.022834
21
607.866046
0
LINE
8
parts
10
1344.022834
20
607.866046
11
1342.521748
21
607.636953
0
LINE
8
parts
10
1342.521748
20
607.636953
11
1340.976010
21
607.558900
0
LINE
8
parts
10
1340.976010
20
607.558900
11
52.913400
21
607.558900
0
LINE
8
parts
10
52.913400
20
607.558900
11
49.950232
21
607.852074
0
LINE
8
parts
10
49.950232
20
607.852074
11
47.127954
21
608.709697
0
LINE
8
parts
10
47.127954
20
608.709697
11
44.525870
21
610.098918
0
LINE
8
parts
10
44.525870
20
610.098918
11
42.223289
21
611.986889
0
LINE
8
parts
10
42.223289
20
611.986889
11
40.335318
21
614.289470
0
LINE
8
parts
10
40.335318
20
614.289470
11
38.946097
21
616.891554
0
LINE
8
parts
10
38.946097
20
616.891554
11
38.088474
21
619.713832
0
LINE
8
parts
10
38.088474
20
619.713832
11
37.795300
21
622.677000
0
LINE
8
parts
10
37.795300
20
622.677000
11
37.795300
21
622.677000
 0 
ENDSEC
 0 
EOF